{"glyphs":{"0":{"ha":1302,"x_min":0,"x_max":0,"o":"m 0 694 b 101 832 40 694 68 720 b 490 1207 151 1002 302 1149 b 561 1267 540 1222 561 1241 b 509 1302 561 1286 547 1302 l 0 1302 b -38 998 -23 1302 -38 1236 b 0 694 -38 760 -23 694 z m 1201 832 b 1302 694 1234 720 1262 694 l 1302 1302 l 793 1302 b 741 1267 755 1302 741 1286 b 813 1207 741 1241 762 1222 b 1201 832 1000 1149 1151 1002 z m 773 649 b 733 569 773 616 757 589 b 696 512 722 563 696 545 l 696 384 b 752 342 696 339 726 332 b 977 651 882 387 977 507 b 752 962 977 792 884 915 b 696 918 727 970 696 958 l 696 792 b 733 733 696 753 724 740 b 773 649 759 714 773 682 z m 530 649 b 569 733 530 682 543 714 b 606 792 578 740 606 753 l 606 918 b 550 962 606 958 575 970 b 325 651 418 915 325 792 b 550 342 325 507 420 387 b 606 384 576 332 606 339 l 606 512 b 569 569 606 545 580 563 b 530 649 545 589 530 616 z m 0 0 l 509 0 b 561 35 547 0 561 16 b 490 95 561 61 540 80 b 101 470 302 153 151 300 b 0 608 68 582 40 608 b -38 304 -23 608 -38 542 b 0 0 -38 66 -23 0 z m 1201 470 b 813 95 1151 300 1000 153 b 741 35 762 80 741 61 b 793 0 741 16 755 0 l 1302 0 l 1302 608 b 1201 470 1262 608 1234 582 z "},"1":{"ha":1302,"x_min":0,"x_max":0,"o":"m 1302 1302 l 1016 1302 b 929 1215 967 1302 929 1264 l 929 781 b 1016 694 929 733 967 694 l 1302 694 z m 0 694 l 57 694 b 168 769 106 694 142 722 l 417 1212 b 365 1302 443 1259 415 1302 l 0 1302 b -38 998 -23 1302 -38 1236 b 0 694 -38 760 -23 694 z m 0 0 l 69 0 b 314 241 233 0 115 241 l 573 241 b 660 328 622 241 660 280 l 660 955 b 625 1023 660 1000 648 1023 b 557 955 597 1023 580 998 l 368 594 b 267 547 347 556 321 521 l 181 589 b 75 608 144 606 115 608 l 0 608 b -38 304 -23 608 -38 542 b 0 0 -38 66 -23 0 z m 929 521 l 929 328 b 1016 241 929 280 967 241 l 1057 241 b 1302 0 1257 241 1137 0 l 1302 608 l 1016 608 b 929 521 967 608 929 569 z "},"2":{"ha":1302,"x_min":0,"x_max":0,"o":"m 1125 958 b 1016 741 1125 863 1089 786 b 993 715 995 729 993 727 b 1014 694 993 701 1002 694 l 1302 694 l 1302 1302 l 802 1302 b 769 1276 778 1302 769 1290 b 821 1241 769 1262 783 1247 b 1125 958 1003 1219 1125 1087 z m 0 694 l 158 694 b 307 703 233 694 280 696 b 352 792 361 714 384 743 b 201 908 328 830 288 861 b 168 1014 153 934 139 965 b 458 1240 231 1116 332 1201 b 505 1276 493 1250 505 1257 b 474 1302 505 1285 498 1302 l 0 1302 b -38 998 -23 1302 -38 1236 b 0 694 -38 760 -23 694 z m 411 821 b 627 769 441 759 536 724 b 840 950 745 830 840 878 b 665 1043 840 1016 776 1043 b 411 932 536 1043 458 988 b 411 821 384 899 385 875 z m 0 0 l 68 0 b 142 90 118 0 142 30 l 142 142 b 352 561 142 339 227 451 b 372 589 366 573 372 576 b 340 608 372 601 359 608 l 0 608 b -38 304 -23 608 -38 542 b 0 0 -38 66 -23 0 z m 899 608 b 722 535 847 608 781 583 l 613 444 b 563 385 575 413 563 401 b 866 260 563 333 781 260 b 977 415 951 260 977 318 b 899 608 977 569 967 608 z m 1302 608 l 1158 608 b 1059 573 1094 608 1059 599 b 1149 509 1059 552 1085 535 b 1243 413 1215 481 1243 484 b 1059 47 1243 188 1203 109 b 1024 19 1035 36 1024 24 b 1064 0 1024 9 1030 0 l 1302 0 z m 368 0 l 691 0 b 707 56 738 0 743 47 b 415 196 564 92 462 196 b 330 109 373 196 344 158 l 314 57 b 368 0 300 9 321 0 z "},"3":{"ha":1302,"x_min":0,"x_max":0,"o":"m 1168 958 b 1007 741 1168 863 1106 800 b 984 715 990 731 984 726 b 1005 694 984 701 993 694 l 1302 694 l 1302 1302 l 845 1302 b 813 1276 821 1302 813 1290 b 865 1241 813 1262 826 1247 b 1168 958 1047 1219 1168 1087 z m 0 694 l 109 694 b 259 703 184 694 231 696 b 304 792 313 714 335 743 b 153 908 280 830 240 861 b 120 1014 104 934 90 965 b 410 1240 182 1116 283 1201 b 457 1276 444 1250 457 1257 b 425 1302 457 1285 450 1302 l 0 1302 b -38 998 -23 1302 -38 1236 b 0 694 -38 760 -23 694 z m 363 821 b 550 753 391 769 457 753 b 891 932 741 753 891 819 b 665 1043 891 1016 809 1043 b 363 932 512 1043 415 993 b 363 821 335 899 335 875 z m 1203 344 b 865 61 1203 215 1068 85 b 813 26 826 56 813 40 b 845 0 813 12 821 0 l 1302 0 l 1302 608 l 1023 608 b 1002 589 1010 608 1002 601 b 1024 561 1002 575 1009 568 b 1203 344 1142 509 1203 439 z m 0 0 l 425 0 b 457 26 450 0 457 17 b 410 63 457 45 444 52 b 120 288 283 101 182 186 b 153 394 90 337 104 368 b 304 510 240 441 280 472 b 259 599 335 559 313 589 b 109 608 231 606 184 608 l 0 608 b -38 304 -23 608 -38 542 b 0 0 -38 66 -23 0 z m 363 481 b 363 370 335 427 335 403 b 665 259 415 309 512 259 b 925 370 832 259 925 286 b 550 549 925 483 760 549 b 363 481 457 549 391 533 z "},"4":{"ha":1302,"x_min":0,"x_max":0,"o":"m 1302 694 l 1302 1302 l 1128 1302 b 847 1043 1054 1302 962 1250 l 753 873 b 891 694 694 767 766 694 z m 0 694 l 205 694 b 399 792 290 694 366 729 l 604 1168 b 554 1302 653 1259 642 1302 l 0 1302 b -38 998 -23 1302 -38 1236 b 0 694 -38 760 -23 694 z m 615 623 l 526 462 b 580 349 488 392 503 349 l 658 349 b 747 444 707 349 747 392 l 747 632 b 708 694 747 670 736 694 b 615 623 677 694 642 674 z m 1007 71 b 1094 0 1007 28 1045 0 l 1302 0 l 1302 608 l 1094 608 b 1007 521 1045 608 1007 569 l 1007 441 b 1080 354 1007 385 1040 354 l 1177 354 b 1243 293 1210 354 1243 328 l 1243 201 b 1174 141 1243 172 1210 141 l 1078 141 b 1007 71 1026 141 1007 106 z m 0 0 l 667 0 b 747 69 714 0 747 24 b 665 141 747 113 714 141 l 205 141 b 113 208 151 141 113 163 b 196 422 113 278 153 340 l 259 536 b 222 608 274 564 257 608 l 0 608 b -38 304 -23 608 -38 542 b 0 0 -38 66 -23 0 z "},"5":{"ha":1302,"x_min":0,"x_max":0,"o":"m 460 858 b 498 800 460 816 477 800 b 724 851 526 800 576 851 b 1146 694 965 851 1033 694 l 1302 694 l 1302 1302 l 1181 1302 b 1049 1095 1080 1302 1198 1095 l 538 1095 b 460 984 479 1095 460 1075 z m 0 694 l 104 694 b 191 781 153 694 191 733 l 191 1215 b 104 1302 191 1264 153 1302 l 0 1302 b -38 998 -23 1302 -38 1236 b 0 694 -38 760 -23 694 z m 389 505 b 391 389 361 453 366 418 b 665 259 436 335 519 259 b 870 439 795 259 870 313 b 635 625 870 535 781 625 b 389 505 514 625 431 580 z m 1142 451 b 821 61 1142 224 1014 85 b 769 26 783 56 769 40 b 802 0 769 12 778 0 l 1302 0 l 1302 608 l 1144 608 b 1123 587 1132 608 1123 601 b 1142 451 1123 561 1142 512 z m 0 0 l 474 0 b 505 26 498 0 505 17 b 458 63 505 45 493 52 b 134 323 316 106 205 205 b 167 429 104 372 118 403 b 325 561 281 491 325 531 b 123 608 325 601 281 608 l 0 608 b -38 304 -23 608 -38 542 b 0 0 -38 66 -23 0 z "},"6":{"ha":1302,"x_min":0,"x_max":0,"o":"m 1302 694 l 1302 1302 l 804 1302 b 764 1280 769 1302 764 1292 b 799 1252 764 1267 773 1255 b 1189 941 1085 1205 1189 1090 b 1031 828 1189 887 1123 865 b 1050 731 976 806 981 773 b 1170 694 1095 703 1123 694 z m 0 694 b 118 823 76 694 111 757 b 536 1245 151 1172 382 1233 b 573 1273 561 1247 573 1257 b 535 1302 573 1290 561 1302 l 0 1302 b -38 998 -23 1302 -38 1236 b 0 694 -38 760 -23 694 z m 380 764 b 394 747 380 752 384 747 b 653 851 406 747 493 851 b 840 813 724 851 783 835 b 925 837 896 790 925 793 b 667 1042 925 965 865 1042 b 380 764 493 1042 380 946 z m 651 639 b 384 460 505 639 384 557 b 651 278 384 361 505 278 b 920 460 799 278 920 361 b 651 639 920 557 799 639 z m 0 0 l 509 0 b 561 35 547 0 561 16 b 490 78 561 54 538 68 b 118 507 307 116 148 217 b 0 608 111 575 57 608 b -38 304 -23 608 -38 542 b 0 0 -38 66 -23 0 z m 1184 507 b 813 78 1155 217 995 116 b 741 35 764 68 741 54 b 793 0 741 16 755 0 l 1302 0 l 1302 608 b 1184 507 1245 608 1191 575 z "},"7":{"ha":1302,"x_min":0,"x_max":0,"o":"m 1302 694 l 1302 1302 b 1021 1043 1227 1302 1135 1250 l 875 781 b 927 694 854 743 880 694 z m 0 694 l 378 694 b 571 781 464 694 542 727 l 668 962 b 618 1095 717 1052 707 1095 l 212 1095 b 87 1302 71 1095 182 1302 l 0 1302 b -38 998 -23 1302 -38 1236 b 0 694 -38 760 -23 694 z m 731 521 l 524 134 b 575 0 476 43 486 0 l 1302 0 l 1302 608 l 924 608 b 731 521 839 608 760 576 z m 0 0 b 281 259 75 0 167 52 l 427 521 b 375 608 448 559 422 608 l 0 608 b -38 304 -23 608 -38 542 b 0 0 -38 66 -23 0 z "},"8":{"ha":1302,"x_min":0,"x_max":0,"o":"m 1151 958 b 1042 741 1151 863 1116 786 b 1019 715 1024 731 1019 726 b 1040 694 1019 701 1028 694 l 1302 694 l 1302 1302 l 811 1302 b 778 1276 786 1302 778 1290 b 830 1241 778 1262 792 1247 b 1151 958 1023 1217 1151 1087 z m 0 694 l 262 694 b 283 715 274 694 283 701 b 260 741 283 726 278 731 b 151 958 186 786 151 863 b 472 1241 151 1087 280 1217 b 524 1276 510 1247 524 1262 b 491 1302 524 1290 516 1302 l 0 1302 b -38 998 -23 1302 -38 1236 b 0 694 -38 760 -23 694 z m 651 736 b 873 915 783 736 873 802 b 651 1043 873 1016 785 1043 b 429 915 519 1043 429 1012 b 651 736 429 802 519 736 z m 1186 344 b 830 61 1186 215 1043 87 b 778 26 792 56 778 40 b 811 0 778 12 786 0 l 1302 0 l 1302 608 l 1057 608 b 1036 589 1045 608 1036 601 b 1059 561 1036 575 1043 568 b 1186 344 1148 521 1186 439 z m 0 0 l 491 0 b 524 26 516 0 524 12 b 472 61 524 40 510 56 b 116 344 259 87 116 215 b 243 561 116 439 155 521 b 266 589 259 568 266 575 b 245 608 266 601 257 608 l 0 608 b -38 304 -23 608 -38 542 b 0 0 -38 66 -23 0 z m 651 566 b 394 387 500 566 394 503 b 651 259 394 292 497 259 b 908 387 804 259 908 288 b 651 566 908 500 802 566 z "},"9":{"ha":1302,"x_min":0,"x_max":0,"o":"m 1184 795 b 1302 694 1191 727 1245 694 l 1302 1302 l 793 1302 b 741 1267 755 1302 741 1286 b 813 1224 741 1248 764 1234 b 1184 795 995 1186 1155 1085 z m 0 694 b 118 795 57 694 111 727 b 490 1224 148 1085 307 1186 b 561 1267 538 1234 561 1248 b 509 1302 561 1286 547 1302 l 0 1302 b -38 998 -23 1302 -38 1236 b 0 694 -38 760 -23 694 z m 651 663 b 918 842 797 663 918 745 b 651 1024 918 941 797 1024 b 382 842 503 1024 382 941 b 651 663 382 745 503 663 z m 0 0 l 498 0 b 538 23 533 0 538 10 b 503 50 538 35 530 47 b 113 361 217 97 113 212 b 271 474 113 415 179 438 b 252 571 326 497 321 530 b 132 608 207 599 179 608 l 0 608 b -38 304 -23 608 -38 542 b 0 0 -38 66 -23 0 z m 1184 479 b 766 57 1151 130 920 69 b 729 30 741 56 729 45 b 767 0 729 12 741 0 l 1302 0 l 1302 608 b 1184 479 1226 608 1191 545 z m 922 538 b 908 556 922 550 918 556 b 649 451 896 556 809 451 b 462 490 578 451 519 467 b 377 465 406 512 377 509 b 635 260 377 337 438 260 b 922 538 809 260 922 356 z "},"Ð":{"ha":1302,"x_min":0,"x_max":0,"o":"m 1156 856 b 1302 694 1212 717 1248 694 l 1302 1302 l 616 1302 b 583 1283 592 1302 583 1293 b 618 1253 583 1273 585 1259 b 1156 856 868 1219 1087 1031 z m 0 694 b 146 778 73 694 80 759 b 191 856 177 786 191 813 l 191 1215 b 104 1302 191 1264 153 1302 l 0 1302 b -38 998 -23 1302 -38 1236 b 0 694 -38 760 -23 694 z m 526 778 l 653 778 b 799 694 720 778 708 694 l 872 694 b 913 759 908 694 922 724 b 526 1040 868 934 715 1026 b 460 995 497 1042 460 1042 l 460 849 b 526 778 460 802 490 778 z m 1156 446 b 618 49 1087 271 868 83 b 583 19 585 43 583 30 b 616 0 583 9 592 0 l 1302 0 l 1302 608 b 1156 446 1248 608 1212 585 z m 0 0 l 104 0 b 191 87 153 0 191 38 l 191 446 b 146 524 191 490 177 516 b 0 608 82 543 73 608 b -38 304 -23 608 -38 542 b 0 0 -38 66 -23 0 z m 526 524 b 460 453 490 524 460 500 l 460 307 b 526 262 460 260 497 260 b 913 543 715 276 868 368 b 872 608 922 578 908 608 l 799 608 b 653 524 708 608 720 524 z "},"ð":{"ha":1302,"x_min":0,"x_max":0,"o":"m 1156 856 b 1302 694 1212 717 1248 694 l 1302 1302 l 616 1302 b 583 1283 592 1302 583 1293 b 618 1253 583 1273 585 1259 b 1156 856 868 1219 1087 1031 z m 0 694 b 146 778 73 694 80 759 b 191 856 177 786 191 813 l 191 1215 b 104 1302 191 1264 153 1302 l 0 1302 b -38 998 -23 1302 -38 1236 b 0 694 -38 760 -23 694 z m 526 778 l 653 778 b 799 694 720 778 708 694 l 872 694 b 913 759 908 694 922 724 b 526 1040 868 934 715 1026 b 460 995 497 1042 460 1042 l 460 849 b 526 778 460 802 490 778 z m 1156 446 b 618 49 1087 271 868 83 b 583 19 585 43 583 30 b 616 0 583 9 592 0 l 1302 0 l 1302 608 b 1156 446 1248 608 1212 585 z m 0 0 l 104 0 b 191 87 153 0 191 38 l 191 446 b 146 524 191 490 177 516 b 0 608 82 543 73 608 b -38 304 -23 608 -38 542 b 0 0 -38 66 -23 0 z m 526 524 b 460 453 490 524 460 500 l 460 307 b 526 262 460 260 497 260 b 913 543 715 276 868 368 b 872 608 922 578 908 608 l 799 608 b 653 524 708 608 720 524 z "},"Ł":{"ha":1302,"x_min":0,"x_max":0,"o":"m 0 694 l 104 694 b 191 781 153 694 191 733 l 191 1215 b 104 1302 191 1264 153 1302 l 0 1302 b -38 998 -23 1302 -38 1236 b 0 694 -38 760 -23 694 z m 457 788 b 500 762 457 759 474 748 l 1031 1033 b 1102 997 1068 1052 1102 1031 l 1102 887 b 1042 788 1102 839 1085 811 l 922 727 b 932 694 898 715 903 694 l 1302 694 l 1302 1302 l 543 1302 b 457 1215 495 1302 457 1264 z m 0 0 l 104 0 b 191 87 153 0 191 38 l 191 304 b 148 330 191 333 175 342 l 132 323 b 89 349 104 311 89 319 l 89 526 b 135 595 89 566 135 571 b 116 608 135 602 130 608 l 0 608 b -38 304 -23 608 -38 542 b 0 0 -38 66 -23 0 z m 500 512 b 457 441 457 490 457 490 l 457 295 b 543 208 457 247 495 208 l 1142 208 b 1267 0 1283 208 1172 0 l 1302 0 l 1302 608 l 738 608 b 646 585 705 608 674 599 z "},"ł":{"ha":1302,"x_min":0,"x_max":0,"o":"m 0 694 l 104 694 b 191 781 153 694 191 733 l 191 1215 b 104 1302 191 1264 153 1302 l 0 1302 b -38 998 -23 1302 -38 1236 b 0 694 -38 760 -23 694 z m 457 788 b 500 762 457 759 474 748 l 1031 1033 b 1102 997 1068 1052 1102 1031 l 1102 887 b 1042 788 1102 839 1085 811 l 922 727 b 932 694 898 715 903 694 l 1302 694 l 1302 1302 l 543 1302 b 457 1215 495 1302 457 1264 z m 0 0 l 104 0 b 191 87 153 0 191 38 l 191 304 b 148 330 191 333 175 342 l 132 323 b 89 349 104 311 89 319 l 89 526 b 135 595 89 566 135 571 b 116 608 135 602 130 608 l 0 608 b -38 304 -23 608 -38 542 b 0 0 -38 66 -23 0 z m 500 512 b 457 441 457 490 457 490 l 457 295 b 543 208 457 247 495 208 l 1142 208 b 1267 0 1283 208 1172 0 l 1302 0 l 1302 608 l 738 608 b 646 585 705 608 674 599 z "},"Š":{"ha":1302,"x_min":0,"x_max":0,"o":"m 0 694 l 219 694 b 240 715 231 694 240 701 b 217 741 240 727 238 729 b 142 872 165 774 142 828 b 385 1128 142 988 233 1128 l 377 1128 b 424 1191 432 1128 448 1160 l 373 1257 b 274 1302 349 1288 321 1302 l 0 1302 b -38 998 -23 1302 -38 1236 b 0 694 -38 760 -23 694 z m 1302 694 l 1302 1302 l 1028 1302 b 929 1257 981 1302 953 1288 l 878 1191 b 925 1128 854 1160 870 1128 l 915 1128 b 1168 927 1026 1128 1113 1017 b 1135 821 1198 878 1184 847 b 1021 747 1082 792 1045 771 b 1030 703 1000 726 1009 708 b 1179 694 1056 696 1104 694 z m 674 1302 l 628 1302 b 590 1257 604 1302 583 1292 l 604 1181 b 651 1142 609 1151 630 1142 b 698 1182 672 1142 693 1151 l 712 1257 b 674 1302 719 1292 698 1302 z m 925 734 b 925 845 951 788 953 813 b 637 957 875 905 783 957 b 420 863 498 957 420 929 b 738 693 420 781 563 738 b 925 734 819 672 899 679 z m 1194 344 b 821 61 1194 215 1045 87 b 769 26 783 56 769 40 b 802 0 769 12 778 0 l 1302 0 l 1302 608 l 1049 608 b 1028 587 1036 608 1028 601 b 1050 561 1028 575 1030 569 b 1194 344 1149 517 1194 439 z m 0 0 l 474 0 b 505 26 498 0 505 17 b 458 63 505 45 493 52 b 134 288 318 104 198 182 b 167 394 104 337 118 368 b 318 510 253 441 293 472 b 273 599 349 559 326 589 b 123 608 245 606 198 608 l 0 608 b -38 304 -23 608 -38 542 b 0 0 -38 66 -23 0 z m 377 481 b 377 370 351 427 349 403 b 665 259 427 311 519 259 b 917 352 826 259 917 286 b 564 540 917 443 759 490 b 377 481 481 561 411 554 z "},"š":{"ha":1302,"x_min":0,"x_max":0,"o":"m 0 694 l 219 694 b 240 715 231 694 240 701 b 217 741 240 727 238 729 b 142 872 165 774 142 828 b 385 1128 142 988 233 1128 l 377 1128 b 424 1191 432 1128 448 1160 l 373 1257 b 274 1302 349 1288 321 1302 l 0 1302 b -38 998 -23 1302 -38 1236 b 0 694 -38 760 -23 694 z m 1302 694 l 1302 1302 l 1028 1302 b 929 1257 981 1302 953 1288 l 878 1191 b 925 1128 854 1160 870 1128 l 915 1128 b 1168 927 1026 1128 1113 1017 b 1135 821 1198 878 1184 847 b 1021 747 1082 792 1045 771 b 1030 703 1000 726 1009 708 b 1179 694 1056 696 1104 694 z m 674 1302 l 628 1302 b 590 1257 604 1302 583 1292 l 604 1181 b 651 1142 609 1151 630 1142 b 698 1182 672 1142 693 1151 l 712 1257 b 674 1302 719 1292 698 1302 z m 925 734 b 925 845 951 788 953 813 b 637 957 875 905 783 957 b 420 863 498 957 420 929 b 738 693 420 781 563 738 b 925 734 819 672 899 679 z m 1194 344 b 821 61 1194 215 1045 87 b 769 26 783 56 769 40 b 802 0 769 12 778 0 l 1302 0 l 1302 608 l 1049 608 b 1028 587 1036 608 1028 601 b 1050 561 1028 575 1030 569 b 1194 344 1149 517 1194 439 z m 0 0 l 474 0 b 505 26 498 0 505 17 b 458 63 505 45 493 52 b 134 288 318 104 198 182 b 167 394 104 337 118 368 b 318 510 253 441 293 472 b 273 599 349 559 326 589 b 123 608 245 606 198 608 l 0 608 b -38 304 -23 608 -38 542 b 0 0 -38 66 -23 0 z m 377 481 b 377 370 351 427 349 403 b 665 259 427 311 519 259 b 917 352 826 259 917 286 b 564 540 917 443 759 490 b 377 481 481 561 411 554 z "},"Ý":{"ha":1302,"x_min":0,"x_max":0,"o":"m 1302 694 l 1302 1128 l 1304 1128 l 1304 1302 l 977 1302 b 878 1257 931 1302 903 1288 l 828 1191 b 875 1128 804 1160 819 1128 l 1134 1128 b 1160 1042 1175 1128 1186 1089 l 1012 781 b 1068 694 986 736 997 694 z m 0 694 l 234 694 b 290 781 306 694 316 736 l 142 1042 b 168 1128 116 1089 127 1128 l 427 1128 b 514 1174 474 1128 505 1135 l 530 1240 b 457 1302 538 1278 512 1302 l 2 1302 b 0 1302 2 1302 0 1302 b -38 998 -23 1302 -38 1236 b 0 694 -38 760 -23 694 z m 547 1094 b 460 990 474 1094 436 1047 l 557 762 b 651 663 582 705 602 663 b 745 762 700 663 720 705 l 842 990 b 755 1094 866 1047 828 1094 z m 0 0 l 438 0 b 524 87 486 0 524 38 l 524 274 b 304 608 524 462 392 608 l 0 608 b -38 304 -23 608 -38 542 b 0 0 -38 66 -23 0 z m 1302 0 l 1302 608 l 998 608 b 778 274 910 608 778 462 l 778 87 b 865 0 778 38 816 0 z "},"ý":{"ha":1302,"x_min":0,"x_max":0,"o":"m 1302 694 l 1302 1128 l 1304 1128 l 1304 1302 l 977 1302 b 878 1257 931 1302 903 1288 l 828 1191 b 875 1128 804 1160 819 1128 l 1134 1128 b 1160 1042 1175 1128 1186 1089 l 1012 781 b 1068 694 986 736 997 694 z m 0 694 l 234 694 b 290 781 306 694 316 736 l 142 1042 b 168 1128 116 1089 127 1128 l 427 1128 b 514 1174 474 1128 505 1135 l 530 1240 b 457 1302 538 1278 512 1302 l 2 1302 b 0 1302 2 1302 0 1302 b -38 998 -23 1302 -38 1236 b 0 694 -38 760 -23 694 z m 547 1094 b 460 990 474 1094 436 1047 l 557 762 b 651 663 582 705 602 663 b 745 762 700 663 720 705 l 842 990 b 755 1094 866 1047 828 1094 z m 0 0 l 438 0 b 524 87 486 0 524 38 l 524 274 b 304 608 524 462 392 608 l 0 608 b -38 304 -23 608 -38 542 b 0 0 -38 66 -23 0 z m 1302 0 l 1302 608 l 998 608 b 778 274 910 608 778 462 l 778 87 b 865 0 778 38 816 0 z "},"Þ":{"ha":1302,"x_min":0,"x_max":0,"o":"m 0 694 l 108 694 b 194 781 156 694 194 733 l 194 1215 b 108 1302 194 1264 156 1302 l 0 1302 b -38 998 -23 1302 -38 1236 b 0 694 -38 760 -23 694 z m 655 1108 b 1115 781 981 1108 1085 1040 b 1201 694 1120 733 1153 694 l 1302 694 l 1302 1302 l 547 1302 b 460 1215 498 1302 460 1264 l 460 1194 b 547 1108 460 1146 498 1108 z m 460 776 b 547 620 460 689 488 660 l 708 510 b 842 557 800 448 842 477 l 842 628 b 628 882 842 802 795 882 l 547 882 b 460 795 498 882 460 844 z m 0 0 l 108 0 b 194 87 156 0 194 38 l 194 521 b 108 608 194 569 156 608 l 0 608 b -38 304 -23 608 -38 542 b 0 0 -38 66 -23 0 z m 988 69 b 1075 0 988 28 1026 0 l 1302 0 l 1302 608 l 1201 608 b 1115 521 1153 608 1115 569 l 1115 361 b 988 69 1115 224 988 194 z m 924 69 b 840 188 924 122 892 151 l 595 358 b 460 311 503 422 460 389 l 460 89 b 556 0 460 28 481 0 l 839 0 b 924 69 885 0 924 26 z "},"þ":{"ha":1302,"x_min":0,"x_max":0,"o":"m 0 694 l 108 694 b 194 781 156 694 194 733 l 194 1215 b 108 1302 194 1264 156 1302 l 0 1302 b -38 998 -23 1302 -38 1236 b 0 694 -38 760 -23 694 z m 655 1108 b 1115 781 981 1108 1085 1040 b 1201 694 1120 733 1153 694 l 1302 694 l 1302 1302 l 547 1302 b 460 1215 498 1302 460 1264 l 460 1194 b 547 1108 460 1146 498 1108 z m 460 776 b 547 620 460 689 488 660 l 708 510 b 842 557 800 448 842 477 l 842 628 b 628 882 842 802 795 882 l 547 882 b 460 795 498 882 460 844 z m 0 0 l 108 0 b 194 87 156 0 194 38 l 194 521 b 108 608 194 569 156 608 l 0 608 b -38 304 -23 608 -38 542 b 0 0 -38 66 -23 0 z m 988 69 b 1075 0 988 28 1026 0 l 1302 0 l 1302 608 l 1201 608 b 1115 521 1153 608 1115 569 l 1115 361 b 988 69 1115 224 988 194 z m 924 69 b 840 188 924 122 892 151 l 595 358 b 460 311 503 422 460 389 l 460 89 b 556 0 460 28 481 0 l 839 0 b 924 69 885 0 924 26 z "},"Ž":{"ha":1302,"x_min":0,"x_max":0,"o":"m 0 694 l 443 694 b 635 781 528 694 599 733 l 641 788 b 602 922 693 856 670 922 l 212 922 b 132 1017 144 922 135 969 l 132 1042 b 198 1128 132 1090 149 1128 l 377 1128 b 424 1191 432 1128 448 1160 l 373 1257 b 274 1302 349 1288 321 1302 l 0 1302 b -38 998 -23 1302 -38 1236 b 0 694 -38 760 -23 694 z m 1302 694 l 1302 1302 l 1028 1302 b 929 1257 981 1302 953 1288 l 878 1191 b 925 1128 854 1160 870 1128 l 1064 1128 b 1106 1040 1120 1128 1142 1097 l 941 781 b 993 694 918 745 946 694 z m 674 1302 l 628 1302 b 590 1257 604 1302 583 1292 l 604 1181 b 651 1142 609 1151 630 1142 b 698 1182 672 1142 693 1151 l 712 1257 b 674 1302 719 1292 698 1302 z m 776 521 l 661 340 b 712 207 606 252 623 207 l 1135 207 b 1267 0 1285 207 1167 0 l 1302 0 l 1302 608 l 951 608 b 776 521 873 608 807 571 z m 0 0 b 306 259 82 0 175 54 l 472 521 b 420 608 495 557 467 608 l 0 608 b -38 304 -23 608 -38 542 b 0 0 -38 66 -23 0 z "},"ž":{"ha":1302,"x_min":0,"x_max":0,"o":"m 0 694 l 443 694 b 635 781 528 694 599 733 l 641 788 b 602 922 693 856 670 922 l 212 922 b 132 1017 144 922 135 969 l 132 1042 b 198 1128 132 1090 149 1128 l 377 1128 b 424 1191 432 1128 448 1160 l 373 1257 b 274 1302 349 1288 321 1302 l 0 1302 b -38 998 -23 1302 -38 1236 b 0 694 -38 760 -23 694 z m 1302 694 l 1302 1302 l 1028 1302 b 929 1257 981 1302 953 1288 l 878 1191 b 925 1128 854 1160 870 1128 l 1064 1128 b 1106 1040 1120 1128 1142 1097 l 941 781 b 993 694 918 745 946 694 z m 674 1302 l 628 1302 b 590 1257 604 1302 583 1292 l 604 1181 b 651 1142 609 1151 630 1142 b 698 1182 672 1142 693 1151 l 712 1257 b 674 1302 719 1292 698 1302 z m 776 521 l 661 340 b 712 207 606 252 623 207 l 1135 207 b 1267 0 1285 207 1167 0 l 1302 0 l 1302 608 l 951 608 b 776 521 873 608 807 571 z m 0 0 b 306 259 82 0 175 54 l 472 521 b 420 608 495 557 467 608 l 0 608 b -38 304 -23 608 -38 542 b 0 0 -38 66 -23 0 z "},"¦":{"ha":651,"x_min":0,"x_max":0,"o":"m 0 694 l 651 694 l 651 1302 l 542 1302 b 455 1215 493 1302 455 1264 l 455 915 b 389 828 455 866 438 828 l 262 828 b 196 915 214 828 196 866 l 196 1215 b 109 1302 196 1264 158 1302 l 0 1302 b -38 998 -23 1302 -38 1236 b 0 694 -38 760 -23 694 z m 0 0 l 109 0 b 196 87 158 0 196 38 l 196 387 b 262 474 196 436 214 474 l 389 474 b 455 387 438 474 455 436 l 455 87 b 542 0 455 38 493 0 l 651 0 l 651 608 l 0 608 b -38 304 -23 608 -38 542 b 0 0 -38 66 -23 0 z "},"−":{"ha":1302,"x_min":0,"x_max":0,"o":"m 0 694 l 139 694 b 285 795 229 694 217 795 l 1017 795 b 1163 694 1085 795 1073 694 l 1302 694 l 1302 1302 l 0 1302 b -38 998 -23 1302 -38 1236 b 0 694 -38 760 -23 694 z m 0 0 l 1302 0 l 1302 608 l 1163 608 b 1017 507 1073 608 1085 507 l 285 507 b 139 608 217 507 229 608 l 0 608 b -38 304 -23 608 -38 542 b 0 0 -38 66 -23 0 z "},"×":{"ha":1302,"x_min":0,"x_max":0,"o":"m 0 694 l 345 694 b 372 755 391 694 405 726 l 205 905 b 191 1014 168 938 156 979 l 288 1111 b 398 1097 323 1146 365 1134 l 599 878 b 703 878 630 844 672 844 l 905 1097 b 1014 1111 938 1134 979 1146 l 1111 1014 b 1097 905 1146 979 1134 938 l 931 755 b 957 694 898 726 911 694 l 1302 694 l 1302 1302 l 0 1302 b -38 998 -23 1302 -38 1236 b 0 694 -38 760 -23 694 z m 0 0 l 1302 0 l 1302 608 l 957 608 b 931 547 911 608 898 576 l 1097 398 b 1111 288 1134 365 1146 323 l 1014 191 b 905 205 979 156 938 168 l 703 424 b 599 424 672 458 630 458 l 398 205 b 288 191 365 168 323 156 l 191 288 b 205 398 156 323 168 365 l 372 547 b 345 608 405 576 391 608 l 0 608 b -38 304 -23 608 -38 542 b 0 0 -38 66 -23 0 z "}," ":{"ha":651,"x_min":0,"x_max":0,"o":"m 0 0 l 651 0 l 651 608 l 573 608 b 530 651 547 608 530 625 b 573 694 530 677 547 694 l 651 694 l 651 1302 l 0 1302 b -38 998 -23 1302 -38 1236 b 0 694 -38 760 -23 694 l 78 694 b 122 651 104 694 122 677 b 78 608 122 625 104 608 l 0 608 b -38 304 -23 608 -38 542 b 0 0 -38 66 -23 0 z "},"!":{"ha":651,"x_min":0,"x_max":0,"o":"m 0 694 l 208 694 b 262 783 262 694 283 717 l 125 1196 b 0 1302 104 1260 76 1302 b -38 998 -23 1302 -38 1236 b 0 694 -38 760 -23 694 z m 651 1302 b 526 1196 575 1302 547 1260 l 389 783 b 443 694 368 717 389 694 l 651 694 z m 0 0 l 651 0 l 651 608 l 425 608 b 375 580 389 608 375 601 b 410 545 375 566 380 557 b 557 330 495 510 557 427 b 325 97 557 203 453 97 b 94 330 198 97 94 203 b 241 545 94 427 156 510 b 276 580 271 557 276 566 b 226 608 276 601 262 608 l 0 608 b -38 304 -23 608 -38 542 b 0 0 -38 66 -23 0 z "},"\"":{"ha":1302,"x_min":0,"x_max":0,"o":"m 401 694 l 901 694 b 941 719 929 694 941 707 b 903 767 941 736 927 741 b 745 1047 806 870 745 950 b 892 1240 745 1132 809 1205 b 927 1274 922 1252 927 1260 b 877 1302 927 1295 913 1302 l 425 1302 b 375 1274 389 1302 375 1295 b 410 1240 375 1260 380 1252 b 557 1047 493 1205 557 1132 b 399 767 557 950 497 870 b 361 719 375 741 361 736 b 401 694 361 707 373 694 z m 0 694 l 250 694 b 290 719 278 694 290 707 b 252 767 290 736 276 741 b 94 1047 155 870 94 950 b 241 1240 94 1132 158 1205 b 276 1274 271 1252 276 1260 b 226 1302 276 1295 262 1302 l 0 1302 b -38 998 -23 1302 -38 1236 b 0 694 -38 760 -23 694 z m 1052 694 l 1302 694 l 1302 1302 l 1076 1302 b 1026 1274 1040 1302 1026 1295 b 1061 1240 1026 1260 1031 1252 b 1208 1047 1144 1205 1208 1132 b 1050 767 1208 950 1148 870 b 1012 719 1026 741 1012 736 b 1052 694 1012 707 1024 694 z m 0 0 l 1302 0 l 1302 608 l 0 608 b -38 304 -23 608 -38 542 b 0 0 -38 66 -23 0 z "},"#":{"ha":1302,"x_min":0,"x_max":0,"o":"m 0 694 l 118 694 b 214 776 170 694 205 724 l 281 1215 b 194 1302 288 1266 260 1302 l 0 1302 b -38 998 -23 1302 -38 1236 b 0 694 -38 760 -23 694 z m 1207 694 l 1302 694 l 1302 1302 l 1281 1302 b 1194 1215 1233 1302 1201 1266 l 1128 785 b 1207 694 1122 736 1156 694 z m 590 924 l 816 960 b 905 1040 868 969 896 988 l 932 1215 b 845 1302 941 1266 911 1302 l 630 1302 b 543 1215 582 1302 552 1266 l 509 991 b 590 924 500 938 528 913 z m 858 727 b 776 795 866 781 839 806 l 550 759 b 462 679 498 750 470 731 l 444 575 b 526 507 436 521 464 497 l 752 543 b 840 623 804 552 832 571 z m 0 0 l 21 0 b 108 87 69 0 101 36 l 174 517 b 95 608 181 566 146 608 l 0 608 b -38 304 -23 608 -38 542 b 0 0 -38 66 -23 0 z m 1302 0 l 1302 608 l 1184 608 b 1089 526 1132 608 1097 578 l 1021 87 b 1108 0 1014 36 1042 0 z m 712 378 l 486 342 b 398 262 434 333 406 314 l 370 87 b 457 0 361 36 391 0 l 672 0 b 759 87 720 0 750 36 l 793 311 b 712 378 802 365 774 389 z "},"$":{"ha":1302,"x_min":0,"x_max":0,"o":"m 0 694 l 253 694 b 274 715 266 694 274 701 b 252 741 274 727 273 729 b 142 906 184 783 142 833 b 481 1189 142 1035 278 1168 b 523 1219 502 1191 523 1203 l 523 1276 b 490 1302 523 1290 514 1302 l 0 1302 b -38 998 -23 1302 -38 1236 b 0 694 -38 760 -23 694 z m 1302 694 l 1302 1302 l 847 1302 b 811 1281 819 1302 811 1293 l 811 1243 b 878 1186 811 1219 837 1198 b 1168 962 1005 1151 1106 1064 b 1135 856 1198 913 1184 882 b 984 792 1056 813 1026 804 b 960 760 967 786 960 776 b 1179 694 960 722 1007 694 z m 684 1189 b 717 1219 701 1189 717 1203 l 717 1276 b 684 1302 717 1290 708 1302 l 649 1302 b 616 1276 625 1302 616 1290 l 616 1219 b 649 1189 616 1203 632 1189 z m 717 951 b 682 990 717 974 705 988 l 651 991 b 616 957 630 993 616 977 l 616 811 b 649 767 616 788 627 773 l 684 759 b 717 785 701 753 717 767 z m 523 948 b 488 976 523 967 507 979 b 403 898 446 967 403 943 b 490 818 403 858 451 832 b 523 840 505 813 523 825 z m 811 769 b 845 736 811 748 825 736 b 925 821 859 736 896 759 b 918 889 938 847 938 866 b 842 948 896 915 859 941 b 811 927 828 955 811 943 z m 1194 396 b 858 120 1194 267 1045 156 b 811 82 821 113 811 102 l 811 26 b 844 0 811 12 819 0 l 1302 0 l 1302 608 l 1049 608 b 1028 587 1036 608 1028 601 b 1050 561 1028 575 1030 569 b 1194 396 1146 519 1194 469 z m 0 0 l 491 0 b 523 26 512 0 523 10 l 523 71 b 470 116 523 94 497 108 b 134 340 318 165 196 236 b 167 446 104 389 118 420 b 318 510 247 490 292 500 b 342 540 335 517 342 528 b 123 608 342 583 295 608 l 0 608 b -38 304 -23 608 -38 542 b 0 0 -38 66 -23 0 z m 523 531 b 488 569 523 552 509 568 b 377 481 460 573 411 557 b 389 408 366 457 368 432 b 490 340 413 380 457 351 b 523 365 505 335 523 347 z m 616 347 b 665 311 616 325 628 311 b 717 347 705 311 717 325 l 717 484 b 682 526 717 507 705 521 l 649 535 b 616 509 632 540 616 526 z m 811 358 b 845 328 811 339 826 325 b 934 405 891 335 934 363 b 844 481 934 443 887 465 b 811 457 828 486 811 474 z m 684 109 l 649 109 b 616 80 632 109 616 95 l 616 26 b 649 0 616 12 625 0 l 684 0 b 717 26 708 0 717 12 l 717 80 b 684 109 717 95 701 109 z "},"%":{"ha":1302,"x_min":0,"x_max":0,"o":"m 1302 694 l 1302 1302 b 1021 1043 1227 1302 1135 1250 l 875 781 b 927 694 854 743 880 694 z m 0 694 l 378 694 b 575 786 464 694 543 731 b 575 844 592 818 592 833 b 528 830 563 851 552 851 b 267 802 457 771 352 755 b 172 1115 156 861 111 1003 b 486 1210 233 1229 375 1271 b 606 977 573 1163 616 1069 b 622 931 604 946 609 938 b 668 962 639 922 651 931 l 780 1168 b 729 1302 828 1259 818 1302 l 0 1302 b -38 998 -23 1302 -38 1236 b 0 694 -38 760 -23 694 z m 377 925 b 458 1007 420 925 458 962 b 377 1089 458 1050 420 1089 b 295 1007 332 1089 295 1050 b 377 925 295 962 332 925 z m 0 0 b 281 259 75 0 167 52 l 427 521 b 375 608 448 559 422 608 l 0 608 b -38 304 -23 608 -38 542 b 0 0 -38 66 -23 0 z m 523 134 b 573 0 474 43 484 0 l 1302 0 l 1302 608 l 924 608 b 727 516 839 608 759 571 b 727 458 710 484 710 469 b 774 472 740 451 750 451 b 1035 500 845 531 950 547 b 1130 188 1146 441 1191 299 b 816 92 1069 73 927 31 b 696 325 729 139 686 233 b 681 372 698 356 693 365 b 634 340 663 380 651 372 z m 925 215 b 1007 297 969 215 1007 252 b 925 378 1007 340 969 378 b 844 297 880 378 844 340 b 925 215 844 252 880 215 z "},"&":{"ha":1302,"x_min":0,"x_max":0,"o":"m 0 694 l 262 694 b 283 715 274 694 283 701 b 260 741 283 726 278 731 b 151 958 186 786 151 863 b 472 1241 151 1087 280 1217 b 524 1276 510 1247 524 1262 b 491 1302 524 1290 516 1302 l 0 1302 b -38 998 -23 1302 -38 1236 b 0 694 -38 760 -23 694 z m 1302 694 l 1302 1302 l 804 1302 b 764 1280 769 1302 764 1292 b 799 1252 764 1267 773 1255 b 1189 976 1085 1205 1189 1108 b 1057 873 1189 922 1123 899 b 1026 845 1031 863 1026 854 b 1092 825 1026 832 1042 825 l 1175 825 b 1273 694 1236 825 1243 694 z m 790 825 l 840 825 b 925 872 901 825 925 833 b 651 1043 925 979 865 1043 b 429 915 519 1043 429 1012 b 686 684 429 809 583 684 b 790 825 755 684 720 825 z m 1203 97 b 1302 0 1245 19 1273 0 l 1302 608 l 1160 608 b 1123 563 1132 608 1123 601 l 1123 356 b 1149 198 1123 288 1123 248 z m 0 0 l 491 0 b 524 26 516 0 524 12 b 472 61 524 40 510 56 b 116 344 259 87 116 215 b 243 561 116 439 155 521 b 266 589 259 568 266 575 b 245 608 266 601 257 608 l 0 608 b -38 304 -23 608 -38 542 b 0 0 -38 66 -23 0 z m 724 582 b 870 470 724 547 849 470 b 894 516 894 470 894 490 l 894 566 b 858 608 894 590 885 608 l 759 608 b 724 582 734 608 724 599 z m 490 523 b 394 387 450 523 394 474 b 651 259 394 292 497 259 b 726 300 696 259 726 273 b 632 441 726 333 714 370 b 490 523 552 510 528 523 z m 1003 43 b 932 89 1003 68 979 104 b 830 61 901 76 866 66 b 778 26 792 56 778 40 b 811 0 778 12 786 0 l 957 0 b 1003 43 990 0 1003 17 z "},"'":{"ha":651,"x_min":0,"x_max":0,"o":"m 401 694 l 651 694 l 651 1302 l 425 1302 b 375 1274 389 1302 375 1295 b 410 1240 375 1260 380 1252 b 557 1047 493 1205 557 1132 b 399 767 557 950 497 870 b 361 719 375 741 361 736 b 401 694 361 707 373 694 z m 0 694 l 250 694 b 290 719 278 694 290 707 b 252 767 290 736 276 741 b 94 1047 155 870 94 950 b 241 1240 94 1132 158 1205 b 276 1274 271 1252 276 1260 b 226 1302 276 1295 262 1302 l 0 1302 b -38 998 -23 1302 -38 1236 b 0 694 -38 760 -23 694 z m 0 0 l 651 0 l 651 608 l 0 608 b -38 304 -23 608 -38 542 b 0 0 -38 66 -23 0 z "},"(":{"ha":651,"x_min":0,"x_max":0,"o":"m 0 694 b 101 832 40 694 68 720 b 385 1224 153 1005 262 1167 b 474 1280 446 1252 474 1257 b 405 1302 474 1297 443 1302 l 0 1302 b -38 998 -23 1302 -38 1236 b 0 694 -38 760 -23 694 z m 340 651 b 450 243 340 505 389 373 b 651 0 530 69 573 0 l 651 608 l 543 608 b 465 651 486 608 465 628 b 543 694 465 674 486 694 l 651 694 l 651 1302 b 450 1059 573 1302 530 1233 b 340 651 389 929 340 797 z m 0 0 l 405 0 b 474 23 443 0 474 5 b 385 78 474 45 446 50 b 101 470 262 135 153 297 b 0 608 68 582 40 608 b -38 304 -23 608 -38 542 b 0 0 -38 66 -23 0 z "},")":{"ha":651,"x_min":0,"x_max":0,"o":"m 550 832 b 651 694 583 720 611 694 l 651 1302 l 247 1302 b 177 1280 208 1302 177 1297 b 266 1224 177 1257 205 1252 b 550 832 389 1167 498 1005 z m 0 0 b 201 243 78 0 122 69 b 311 651 262 373 311 505 b 201 1059 311 797 262 929 b 0 1302 122 1233 78 1302 b -38 998 -23 1302 -38 1236 b 0 694 -38 760 -23 694 l 108 694 b 186 651 165 694 186 674 b 108 608 186 628 165 608 l 0 608 b -38 304 -23 608 -38 542 b 0 0 -38 66 -23 0 z m 550 470 b 266 78 498 297 389 135 b 177 23 205 50 177 45 b 247 0 177 5 208 0 l 651 0 l 651 608 b 550 470 611 608 583 582 z "},"*":{"ha":651,"x_min":0,"x_max":0,"o":"m 0 694 l 123 694 b 207 752 172 694 189 707 l 264 896 b 231 927 271 915 252 936 l 95 873 b 40 910 66 861 40 877 l 40 1085 b 95 1122 40 1118 66 1134 l 233 1068 b 266 1099 253 1059 274 1078 l 207 1247 b 123 1302 189 1290 172 1302 l 0 1302 b -38 998 -23 1302 -38 1236 b 0 694 -38 760 -23 694 z m 444 752 b 528 694 462 707 479 694 l 651 694 l 651 1302 l 528 1302 b 444 1247 479 1302 462 1290 l 385 1099 b 418 1068 377 1078 398 1059 l 557 1123 b 613 1085 587 1135 613 1118 l 613 910 b 557 873 613 877 587 861 l 420 927 b 387 896 399 936 378 917 z m 0 0 l 651 0 l 651 608 l 0 608 b -38 304 -23 608 -38 542 b 0 0 -38 66 -23 0 z "},"+":{"ha":1302,"x_min":0,"x_max":0,"o":"m 0 694 l 104 694 b 250 795 194 694 182 795 l 446 795 b 516 865 488 795 516 823 l 516 1042 b 582 1128 516 1090 533 1128 l 720 1128 b 786 1042 769 1128 786 1090 l 786 865 b 851 795 786 823 809 795 l 1052 795 b 1198 694 1120 795 1108 694 l 1302 694 l 1302 1302 l 0 1302 b -38 998 -23 1302 -38 1236 b 0 694 -38 760 -23 694 z m 0 0 l 1302 0 l 1302 608 l 1198 608 b 1052 507 1108 608 1120 507 l 851 507 b 786 438 809 507 786 479 l 786 260 b 720 174 786 212 769 174 l 582 174 b 516 260 533 174 516 212 l 516 438 b 446 507 516 479 488 507 l 250 507 b 104 608 182 507 194 608 l 0 608 b -38 304 -23 608 -38 542 b 0 0 -38 66 -23 0 z "},",":{"ha":1302,"x_min":0,"x_max":0,"o":"m 0 694 l 370 694 b 453 748 415 694 438 710 b 651 887 484 830 563 887 b 851 748 741 887 819 830 b 934 694 865 710 887 694 l 1302 694 l 1302 1302 l 0 1302 b -38 998 -23 1302 -38 1236 b 0 694 -38 760 -23 694 z m 0 0 l 1302 0 l 1302 608 l 934 608 b 851 552 887 608 865 592 b 521 203 773 354 627 203 b 453 297 476 203 453 229 l 453 533 b 370 608 453 592 415 608 l 0 608 b -38 304 -23 608 -38 542 b 0 0 -38 66 -23 0 z "},"-":{"ha":651,"x_min":0,"x_max":0,"o":"m 0 694 l 651 694 l 651 1302 l 0 1302 b -38 998 -23 1302 -38 1236 b 0 694 -38 760 -23 694 z m 0 0 l 651 0 l 651 608 l 0 608 b -38 304 -23 608 -38 542 b 0 0 -38 66 -23 0 z "},".":{"ha":1302,"x_min":0,"x_max":0,"o":"m 0 694 l 370 694 b 453 748 415 694 438 710 b 651 887 484 830 563 887 b 851 748 741 887 819 830 b 934 694 865 710 887 694 l 1302 694 l 1302 1302 l 0 1302 b -38 998 -23 1302 -38 1236 b 0 694 -38 760 -23 694 z m 0 0 l 1302 0 l 1302 608 l 934 608 b 851 552 887 608 865 592 b 651 415 819 472 741 415 b 453 552 563 415 484 472 b 370 608 438 592 415 608 l 0 608 b -38 304 -23 608 -38 542 b 0 0 -38 66 -23 0 z "},"/":{"ha":651,"x_min":0,"x_max":0,"o":"m 556 694 l 651 694 l 651 1302 l 630 1302 b 543 1215 582 1302 550 1266 l 477 785 b 556 694 470 736 505 694 z m 0 694 l 118 694 b 214 776 170 694 205 724 l 281 1215 b 194 1302 288 1266 260 1302 l 0 1302 b -38 998 -23 1302 -38 1236 b 0 694 -38 760 -23 694 z m 651 0 l 651 608 l 533 608 b 438 526 481 608 446 578 l 370 87 b 457 0 363 36 391 0 z m 0 0 l 21 0 b 108 87 69 0 101 36 l 174 517 b 95 608 181 566 146 608 l 0 608 b -38 304 -23 608 -38 542 b 0 0 -38 66 -23 0 z "},":":{"ha":651,"x_min":0,"x_max":0,"o":"m 0 694 l 226 694 b 276 722 262 694 276 701 b 241 757 276 736 271 745 b 94 972 156 792 94 875 b 325 1205 94 1099 198 1205 b 557 972 453 1205 557 1099 b 410 757 557 875 495 792 b 375 722 380 745 375 736 b 425 694 375 701 389 694 l 651 694 l 651 1302 l 0 1302 b -38 998 -23 1302 -38 1236 b 0 694 -38 760 -23 694 z m 0 0 l 651 0 l 651 608 l 425 608 b 375 580 389 608 375 601 b 410 545 375 566 380 557 b 557 330 495 510 557 427 b 325 97 557 203 453 97 b 94 330 198 97 94 203 b 241 545 94 427 156 510 b 276 580 271 557 276 566 b 226 608 276 601 262 608 l 0 608 b -38 304 -23 608 -38 542 b 0 0 -38 66 -23 0 z "},";":{"ha":651,"x_min":0,"x_max":0,"o":"m 0 694 l 226 694 b 276 722 262 694 276 701 b 241 757 276 736 271 745 b 94 972 156 792 94 875 b 325 1205 94 1099 198 1205 b 557 972 453 1205 557 1099 b 410 757 557 875 495 792 b 375 722 380 745 375 736 b 425 694 375 701 389 694 l 651 694 l 651 1302 l 0 1302 b -38 998 -23 1302 -38 1236 b 0 694 -38 760 -23 694 z m 262 0 l 651 0 l 651 608 l 425 608 b 375 580 389 608 375 601 b 410 545 375 566 380 557 b 557 354 495 510 557 427 b 260 57 557 238 425 130 b 222 24 233 45 222 36 b 262 0 222 12 234 0 z m 0 0 l 89 0 b 125 36 113 0 125 16 b 94 330 125 97 94 215 b 241 545 94 427 156 510 b 276 580 271 557 276 566 b 226 608 276 601 262 608 l 0 608 b -38 304 -23 608 -38 542 b 0 0 -38 66 -23 0 z "},"<":{"ha":1302,"x_min":0,"x_max":0,"o":"m 1302 694 l 1302 1302 l 1267 1302 b 847 1043 1156 1302 1078 1259 l 575 790 b 618 694 531 750 540 694 z m 0 694 l 31 694 b 226 792 116 694 177 740 l 587 1168 b 536 1302 658 1243 625 1302 l 0 1302 b -38 998 -23 1302 -38 1236 b 0 694 -38 760 -23 694 z m 1302 608 l 618 608 b 575 512 540 608 531 552 l 847 259 b 1267 0 1078 43 1156 0 l 1302 0 z m 0 0 l 536 0 b 587 134 625 0 658 59 l 226 510 b 31 608 177 563 116 608 l 0 608 b -38 304 -23 608 -38 542 b 0 0 -38 66 -23 0 z "},"=":{"ha":1302,"x_min":0,"x_max":0,"o":"m 0 694 l 109 694 b 220 866 167 694 200 750 b 342 1038 241 984 257 1038 l 960 1038 b 1082 866 1045 1038 1061 984 b 1193 694 1102 750 1135 694 l 1302 694 l 1302 1302 l 0 1302 b -38 998 -23 1302 -38 1236 b 0 694 -38 760 -23 694 z m 1056 653 b 957 769 1056 707 1021 769 l 345 769 b 247 653 281 769 247 707 b 345 533 247 597 281 533 l 957 533 b 1056 653 1021 533 1056 597 z m 0 0 l 1302 0 l 1302 608 l 1193 608 b 1082 436 1135 608 1102 552 b 960 264 1061 318 1045 264 l 342 264 b 220 436 257 264 241 318 b 109 608 200 552 167 608 l 0 608 b -38 304 -23 608 -38 542 b 0 0 -38 66 -23 0 z "},">":{"ha":1302,"x_min":0,"x_max":0,"o":"m 0 694 l 684 694 b 727 790 762 694 771 750 l 455 1043 b 35 1302 224 1259 146 1302 l 0 1302 b -38 998 -23 1302 -38 1236 b 0 694 -38 760 -23 694 z m 1076 792 b 1271 694 1125 740 1186 694 l 1302 694 l 1302 1302 l 766 1302 b 715 1168 677 1302 644 1243 z m 0 0 l 35 0 b 455 259 146 0 224 43 l 727 512 b 684 608 771 552 762 608 l 0 608 b -38 304 -23 608 -38 542 b 0 0 -38 66 -23 0 z m 1076 510 l 715 134 b 766 0 644 59 677 0 l 1302 0 l 1302 608 l 1271 608 b 1076 510 1186 608 1125 563 z "},"?":{"ha":1302,"x_min":0,"x_max":0,"o":"m 1125 1003 b 833 738 1125 859 932 837 b 823 714 825 729 823 722 b 847 694 823 701 832 694 l 1302 694 l 1302 1302 l 814 1302 b 769 1276 778 1302 769 1290 b 821 1241 769 1262 783 1247 b 1125 1003 1003 1219 1125 1087 z m 0 694 l 158 694 b 307 703 233 694 280 696 b 352 792 361 714 384 743 b 201 908 328 830 288 861 b 168 1014 153 934 139 965 b 458 1240 231 1116 332 1201 b 505 1276 493 1250 505 1257 b 462 1302 505 1285 498 1302 l 0 1302 b -38 998 -23 1302 -38 1236 b 0 694 -38 760 -23 694 z m 411 821 b 500 722 432 774 462 722 b 582 804 521 722 542 734 b 847 997 663 943 847 953 b 665 1043 847 1026 781 1043 b 411 932 536 1043 458 988 b 411 821 384 899 385 875 z m 0 0 l 1302 0 l 1302 608 l 752 608 b 701 580 715 608 701 601 b 736 545 701 566 707 557 b 884 330 821 510 884 427 b 651 97 884 203 780 97 b 420 330 524 97 420 203 b 568 545 420 427 483 510 b 602 580 597 557 602 566 b 552 608 602 601 589 608 l 0 608 b -38 304 -23 608 -38 542 b 0 0 -38 66 -23 0 z "},"@":{"ha":1302,"x_min":0,"x_max":0,"o":"m 0 694 b 101 832 40 694 68 720 b 490 1207 151 1002 302 1149 b 561 1267 540 1222 561 1241 b 509 1302 561 1286 547 1302 l 0 1302 b -38 998 -23 1302 -38 1236 b 0 694 -38 760 -23 694 z m 1201 832 b 1302 694 1234 720 1262 694 l 1302 1302 l 793 1302 b 741 1267 755 1302 741 1286 b 813 1207 741 1241 762 1222 b 1201 832 1000 1149 1151 1002 z m 943 155 b 813 95 911 130 861 111 b 741 35 762 80 741 61 b 793 0 741 16 755 0 l 1302 0 l 1302 608 b 1200 516 1255 608 1226 583 b 995 384 1168 439 1104 384 b 786 477 878 384 840 477 b 623 427 733 477 688 427 b 420 651 536 427 420 517 b 651 878 420 790 538 878 b 856 663 766 878 856 816 b 951 556 856 599 878 556 b 1043 656 1019 556 1043 599 b 651 1057 1043 927 873 1057 b 250 651 457 1057 250 896 b 651 248 250 408 457 248 b 837 309 720 248 788 273 b 891 297 854 323 878 314 l 950 214 b 943 155 962 198 964 170 z m 0 0 l 509 0 b 561 35 547 0 561 16 b 490 95 561 61 540 80 b 101 470 302 153 151 300 b 0 608 68 582 40 608 b -38 304 -23 608 -38 542 b 0 0 -38 66 -23 0 z "},"A":{"ha":1302,"x_min":0,"x_max":0,"o":"m 0 694 l 153 694 b 248 776 205 694 240 724 l 316 1215 b 229 1302 323 1266 295 1302 l 0 1302 b -38 998 -23 1302 -38 1236 b 0 694 -38 760 -23 694 z m 1156 694 l 1302 694 l 1302 1302 l 1080 1302 b 993 1215 1014 1302 986 1266 l 1061 776 b 1156 694 1069 724 1104 694 z m 745 488 b 816 569 790 488 821 524 l 741 1165 b 655 1269 734 1224 703 1269 l 649 1269 b 563 1165 601 1269 569 1224 l 488 569 b 559 488 483 524 514 488 z m 1253 0 l 1302 0 l 1302 608 l 1179 608 b 1101 517 1128 608 1094 566 l 1167 87 b 1253 0 1174 36 1205 0 z m 0 0 l 56 0 b 142 87 104 0 135 36 l 208 517 b 130 608 215 566 181 608 l 0 608 b -38 304 -23 608 -38 542 b 0 0 -38 66 -23 0 z m 533 307 b 441 226 483 307 448 278 l 425 104 b 512 0 418 45 464 0 l 790 0 b 877 104 839 0 884 45 l 861 226 b 769 307 854 278 819 307 z "},"B":{"ha":1302,"x_min":0,"x_max":0,"o":"m 0 694 l 108 694 b 194 781 156 694 194 733 l 194 1215 b 108 1302 194 1264 156 1302 l 0 1302 b -38 998 -23 1302 -38 1236 b 0 694 -38 760 -23 694 z m 1031 1035 b 880 786 1031 955 1005 875 b 906 726 861 773 863 738 b 1201 694 962 710 1090 694 l 1302 694 l 1302 1302 l 924 1302 b 842 1269 887 1302 842 1293 b 936 1205 842 1247 892 1231 b 1031 1035 1003 1165 1031 1123 z m 743 995 b 609 1111 743 1064 688 1111 l 559 1111 b 464 1023 484 1111 464 1083 l 464 814 b 616 788 464 736 498 714 l 641 804 b 743 995 710 849 743 932 z m 1043 134 b 929 54 1010 87 962 63 b 925 0 873 38 873 0 l 1302 0 l 1302 608 l 1234 608 b 1035 623 1141 608 1066 623 b 1009 599 1019 623 1009 615 b 1111 363 1009 554 1111 524 b 1043 134 1111 245 1068 167 z m 0 0 l 108 0 b 194 87 156 0 194 38 l 194 521 b 108 608 194 569 156 608 l 0 608 b -38 304 -23 608 -38 542 b 0 0 -38 66 -23 0 z m 464 314 l 464 295 b 550 208 464 247 502 208 l 628 208 b 833 431 788 208 833 288 b 594 571 833 583 710 644 l 575 559 b 464 314 483 503 464 443 z "},"C":{"ha":1302,"x_min":0,"x_max":0,"o":"m 0 694 b 101 832 40 694 68 720 b 490 1207 151 1002 302 1149 b 561 1267 540 1222 561 1241 b 509 1302 561 1286 547 1302 l 0 1302 b -38 998 -23 1302 -38 1236 b 0 694 -38 760 -23 694 z m 1078 694 l 1302 694 l 1302 1302 l 793 1302 b 741 1267 755 1302 741 1286 b 813 1207 741 1241 762 1222 b 1153 946 958 1161 1085 1064 b 1128 833 1186 891 1167 852 l 1064 802 b 1010 747 1021 781 1009 764 b 1078 694 1010 720 1033 694 z m 938 651 b 651 976 938 885 814 976 b 328 651 495 976 328 847 b 651 326 328 455 495 326 b 938 651 814 326 938 417 z m 0 0 l 509 0 b 561 35 547 0 561 16 b 490 95 561 61 540 80 b 101 470 302 153 151 300 b 0 608 68 582 40 608 b -38 304 -23 608 -38 542 b 0 0 -38 66 -23 0 z m 1078 608 b 1010 556 1033 608 1010 582 b 1064 500 1009 538 1021 521 l 1128 469 b 1153 356 1167 450 1186 411 b 813 95 1085 238 958 141 b 741 35 762 80 741 61 b 793 0 741 16 755 0 l 1302 0 l 1302 608 z "},"D":{"ha":1302,"x_min":0,"x_max":0,"o":"m 0 694 l 104 694 b 191 781 153 694 191 733 l 191 1215 b 104 1302 191 1264 153 1302 l 0 1302 b -38 998 -23 1302 -38 1236 b 0 694 -38 760 -23 694 z m 1156 856 b 1302 694 1212 717 1248 694 l 1302 1302 l 616 1302 b 583 1283 592 1302 583 1293 b 618 1253 583 1273 585 1259 b 1156 856 868 1219 1087 1031 z m 460 307 b 526 262 460 260 497 260 b 925 651 750 280 925 406 b 526 1040 925 896 753 1023 b 460 995 498 1042 460 1038 z m 1156 446 b 618 49 1087 271 868 83 b 583 19 585 43 583 30 b 616 0 583 9 592 0 l 1302 0 l 1302 608 b 1156 446 1248 608 1212 585 z m 0 0 l 104 0 b 191 87 153 0 191 38 l 191 521 b 104 608 191 569 153 608 l 0 608 b -38 304 -23 608 -38 542 b 0 0 -38 66 -23 0 z "},"E":{"ha":1302,"x_min":0,"x_max":0,"o":"m 457 849 b 543 762 457 800 495 762 l 948 762 b 1094 694 1016 762 1003 694 l 1302 694 l 1302 1302 l 1267 1302 b 1142 1095 1172 1302 1283 1095 l 543 1095 b 457 1009 495 1095 457 1057 z m 0 694 l 104 694 b 191 785 153 694 191 734 l 191 1215 b 104 1302 191 1264 153 1302 l 0 1302 b -38 998 -23 1302 -38 1236 b 0 694 -38 760 -23 694 z m 0 0 l 104 0 b 191 87 153 0 191 38 l 191 521 b 104 608 191 569 153 608 l 0 608 b -38 304 -23 608 -38 542 b 0 0 -38 66 -23 0 z m 457 453 l 457 295 b 543 208 457 247 495 208 l 1142 208 b 1267 0 1283 208 1172 0 l 1302 0 l 1302 608 l 1094 608 b 948 543 1003 608 1016 543 l 543 543 b 457 453 495 543 457 503 z "},"F":{"ha":1302,"x_min":0,"x_max":0,"o":"m 457 781 b 543 694 457 733 495 694 l 1302 694 l 1302 1302 l 1267 1302 b 1142 1095 1172 1302 1283 1095 l 543 1095 b 457 1009 495 1095 457 1057 z m 0 694 l 104 694 b 191 785 153 694 191 734 l 191 1215 b 104 1302 191 1264 153 1302 l 0 1302 b -38 998 -23 1302 -38 1236 b 0 694 -38 760 -23 694 z m 0 0 l 104 0 b 191 87 153 0 191 38 l 191 521 b 104 608 191 569 153 608 l 0 608 b -38 304 -23 608 -38 542 b 0 0 -38 66 -23 0 z m 457 385 l 457 87 b 543 0 457 38 495 0 l 1302 0 l 1302 608 l 1128 608 b 983 476 1038 608 1050 476 l 543 476 b 457 385 495 476 457 436 z "},"G":{"ha":1302,"x_min":0,"x_max":0,"o":"m 0 694 b 101 832 40 694 68 720 b 490 1207 151 1002 302 1149 b 561 1267 540 1222 561 1241 b 509 1302 561 1286 547 1302 l 0 1302 b -38 998 -23 1302 -38 1236 b 0 694 -38 760 -23 694 z m 1026 755 l 1090 755 b 1302 694 1191 755 1217 694 l 1302 1302 l 793 1302 b 741 1267 755 1302 741 1286 b 813 1207 741 1241 762 1222 b 1106 1003 938 1168 1042 1099 b 1082 891 1142 950 1120 910 l 1012 856 b 958 800 969 833 957 818 b 1026 755 958 778 981 755 z m 547 602 l 547 681 b 628 755 547 727 580 755 l 807 755 b 873 884 873 755 920 821 b 651 979 819 946 733 979 b 325 651 472 979 325 830 b 651 325 325 472 472 325 b 941 491 809 325 905 392 b 911 536 951 517 941 536 l 628 536 b 547 602 576 536 547 573 z m 0 0 l 509 0 b 561 35 547 0 561 16 b 490 95 561 61 540 80 b 101 470 302 153 151 300 b 0 608 68 582 40 608 b -38 304 -23 608 -38 542 b 0 0 -38 66 -23 0 z m 1214 448 l 1214 87 b 1302 0 1214 43 1229 0 l 1302 608 b 1214 448 1248 608 1214 564 z m 1009 243 b 974 219 997 243 984 234 b 793 85 934 163 859 109 b 741 35 760 73 741 59 b 793 0 741 16 755 0 l 1101 0 b 1139 59 1141 0 1153 7 b 1009 243 1097 215 1042 243 z "},"H":{"ha":1302,"x_min":0,"x_max":0,"o":"m 460 849 b 547 762 460 800 498 762 l 755 762 b 842 849 804 762 842 800 l 842 1215 b 755 1302 842 1264 804 1302 l 547 1302 b 460 1215 498 1302 460 1264 z m 0 694 l 104 694 b 191 781 153 694 191 733 l 191 1215 b 104 1302 191 1264 153 1302 l 0 1302 b -38 998 -23 1302 -38 1236 b 0 694 -38 760 -23 694 z m 1111 781 b 1198 694 1111 733 1149 694 l 1302 694 l 1302 1302 l 1198 1302 b 1111 1215 1149 1302 1111 1264 z m 0 0 l 104 0 b 191 87 153 0 191 38 l 191 521 b 104 608 191 569 153 608 l 0 608 b -38 304 -23 608 -38 542 b 0 0 -38 66 -23 0 z m 1111 87 b 1198 0 1111 38 1149 0 l 1302 0 l 1302 608 l 1198 608 b 1111 521 1149 608 1111 569 z m 460 87 b 547 0 460 38 498 0 l 755 0 b 842 87 804 0 842 38 l 842 469 b 755 556 842 517 804 556 l 547 556 b 460 469 498 556 460 517 z "},"I":{"ha":651,"x_min":0,"x_max":0,"o":"m 0 694 l 104 694 b 191 785 153 694 191 734 l 191 1215 b 104 1302 191 1264 153 1302 l 0 1302 b -38 998 -23 1302 -38 1236 b 0 694 -38 760 -23 694 z m 651 694 l 651 1302 l 547 1302 b 460 1215 498 1302 460 1264 l 460 785 b 547 694 460 734 498 694 z m 0 0 l 104 0 b 191 87 153 0 191 38 l 191 521 b 104 608 191 569 153 608 l 0 608 b -38 304 -23 608 -38 542 b 0 0 -38 66 -23 0 z m 651 0 l 651 608 l 547 608 b 460 521 498 608 460 569 l 460 87 b 547 0 460 38 498 0 z "},"J":{"ha":1302,"x_min":0,"x_max":0,"o":"m 1302 694 l 1302 1302 l 1194 1302 b 1108 1215 1146 1302 1108 1264 l 1108 785 b 1194 694 1108 734 1146 694 z m 0 694 l 764 694 b 839 766 819 694 839 722 l 839 1215 b 752 1302 839 1264 800 1302 l 0 1302 b -38 998 -23 1302 -38 1236 b 0 694 -38 760 -23 694 z m 1089 458 b 731 95 1040 293 905 148 b 660 35 681 80 660 61 b 712 0 660 16 674 0 l 1302 0 l 1302 608 l 1250 608 b 1089 458 1186 608 1128 589 z m 0 0 l 491 0 b 543 35 530 0 543 16 b 472 95 543 61 523 80 b 135 417 335 137 200 267 b 222 521 115 465 156 491 b 309 583 293 552 313 561 b 222 608 306 601 281 608 l 0 608 b -38 304 -23 608 -38 542 b 0 0 -38 66 -23 0 z m 398 533 b 622 335 413 431 503 335 b 821 517 740 335 806 438 b 766 608 832 569 807 608 l 457 608 b 398 533 405 608 389 583 z "},"K":{"ha":1302,"x_min":0,"x_max":0,"o":"m 460 849 b 547 762 460 800 498 762 l 618 762 b 793 1021 686 762 707 804 l 872 1215 b 819 1302 889 1257 866 1302 l 547 1302 b 460 1215 498 1302 460 1264 z m 0 694 l 104 694 b 191 781 153 694 191 733 l 191 1215 b 104 1302 191 1264 153 1302 l 0 1302 b -38 998 -23 1302 -38 1236 b 0 694 -38 760 -23 694 z m 1302 694 l 1302 1302 b 1090 1043 1219 1302 1200 1259 l 957 781 b 1003 694 936 740 957 694 z m 0 0 l 104 0 b 191 87 153 0 191 38 l 191 521 b 104 608 191 569 153 608 l 0 608 b -38 304 -23 608 -38 542 b 0 0 -38 66 -23 0 z m 1302 608 l 1003 608 b 957 521 957 608 936 563 l 1090 259 b 1302 0 1200 43 1219 0 z m 460 87 b 547 0 460 38 498 0 l 819 0 b 872 87 866 0 889 45 l 786 297 b 611 556 698 512 679 556 l 547 556 b 460 469 498 556 460 517 z "},"L":{"ha":1302,"x_min":0,"x_max":0,"o":"m 0 694 l 104 694 b 191 781 153 694 191 733 l 191 1215 b 104 1302 191 1264 153 1302 l 0 1302 b -38 998 -23 1302 -38 1236 b 0 694 -38 760 -23 694 z m 457 785 b 543 694 457 734 495 694 l 1302 694 l 1302 1302 l 543 1302 b 457 1215 495 1302 457 1264 z m 457 521 l 457 295 b 543 208 457 247 495 208 l 1142 208 b 1267 0 1283 208 1172 0 l 1302 0 l 1302 608 l 543 608 b 457 521 495 608 457 569 z m 0 0 l 104 0 b 191 87 153 0 191 38 l 191 517 b 104 608 191 568 153 608 l 0 608 b -38 304 -23 608 -38 542 b 0 0 -38 66 -23 0 z "},"M":{"ha":2604,"x_min":0,"x_max":0,"o":"m 0 694 l 104 694 b 191 781 153 694 191 733 l 191 1215 b 104 1302 191 1264 153 1302 l 0 1302 b -38 998 -23 1302 -38 1236 b 0 694 -38 760 -23 694 z m 2413 781 b 2500 694 2413 733 2451 694 l 2604 694 l 2604 1302 l 2500 1302 b 2413 1215 2451 1302 2413 1264 z m 1372 660 l 1814 1215 b 1766 1302 1842 1252 1816 1302 l 839 1302 b 790 1215 788 1302 762 1252 l 1233 660 b 1302 615 1255 632 1273 615 b 1372 660 1332 615 1349 632 z m 460 87 b 559 0 460 26 502 0 l 1076 0 b 1252 115 1201 0 1252 52 b 1146 344 1252 189 1215 257 l 568 1064 b 503 1108 547 1090 531 1108 b 460 1045 470 1108 460 1083 z m 2144 87 l 2144 1045 b 2101 1108 2144 1083 2134 1108 b 2036 1064 2073 1108 2057 1090 l 1458 344 b 1352 115 1389 257 1352 189 b 1528 0 1352 52 1403 0 l 2045 0 b 2144 87 2102 0 2144 26 z m 0 0 l 104 0 b 191 87 153 0 191 38 l 191 521 b 104 608 191 569 153 608 l 0 608 b -38 304 -23 608 -38 542 b 0 0 -38 66 -23 0 z m 2413 87 b 2500 0 2413 38 2451 0 l 2604 0 l 2604 608 l 2500 608 b 2413 521 2451 608 2413 569 z "},"N":{"ha":1953,"x_min":0,"x_max":0,"o":"m 0 694 l 104 694 b 191 781 153 694 191 733 l 191 1215 b 104 1302 191 1264 153 1302 l 0 1302 b -38 998 -23 1302 -38 1236 b 0 694 -38 760 -23 694 z m 1762 781 b 1852 694 1762 733 1802 694 l 1953 694 l 1953 1302 l 1852 1302 b 1762 1215 1802 1302 1762 1264 z m 1493 1229 b 1420 1302 1493 1273 1464 1302 l 908 1302 b 839 1215 842 1302 814 1262 l 1368 191 b 1450 122 1392 144 1413 122 b 1493 214 1483 122 1493 158 z m 460 73 b 533 0 460 30 490 0 l 1045 0 b 1115 87 1111 0 1139 40 l 585 1111 b 503 1181 561 1158 540 1181 b 460 1089 470 1181 460 1144 z m 0 0 l 104 0 b 191 87 153 0 191 38 l 191 521 b 104 608 191 569 153 608 l 0 608 b -38 304 -23 608 -38 542 b 0 0 -38 66 -23 0 z m 1762 87 b 1852 0 1762 38 1802 0 l 1953 0 l 1953 608 l 1852 608 b 1762 521 1802 608 1762 569 z "},"O":{"ha":1302,"x_min":0,"x_max":0,"o":"m 0 694 b 101 832 40 694 68 720 b 490 1207 151 1002 302 1149 b 561 1267 540 1222 561 1241 b 509 1302 561 1286 547 1302 l 0 1302 b -38 998 -23 1302 -38 1236 b 0 694 -38 760 -23 694 z m 1201 832 b 1302 694 1234 720 1262 694 l 1302 1302 l 793 1302 b 741 1267 755 1302 741 1286 b 813 1207 741 1241 762 1222 b 1201 832 1000 1149 1151 1002 z m 773 649 b 733 569 773 616 757 589 b 696 512 722 563 696 545 l 696 384 b 752 342 696 339 726 332 b 977 651 882 387 977 507 b 752 962 977 792 884 915 b 696 918 727 970 696 958 l 696 792 b 733 733 696 753 724 740 b 773 649 759 714 773 682 z m 530 649 b 569 733 530 682 543 714 b 606 792 578 740 606 753 l 606 918 b 550 962 606 958 575 970 b 325 651 418 915 325 792 b 550 342 325 507 420 387 b 606 384 576 332 606 339 l 606 512 b 569 569 606 545 580 563 b 530 649 545 589 530 616 z m 0 0 l 509 0 b 561 35 547 0 561 16 b 490 95 561 61 540 80 b 101 470 302 153 151 300 b 0 608 68 582 40 608 b -38 304 -23 608 -38 542 b 0 0 -38 66 -23 0 z m 1201 470 b 813 95 1151 300 1000 153 b 741 35 762 80 741 61 b 793 0 741 16 755 0 l 1302 0 l 1302 608 b 1201 470 1262 608 1234 582 z "},"P":{"ha":1302,"x_min":0,"x_max":0,"o":"m 0 694 l 108 694 b 194 781 156 694 194 733 l 194 1215 b 108 1302 194 1264 156 1302 l 0 1302 b -38 998 -23 1302 -38 1236 b 0 694 -38 760 -23 694 z m 1043 1168 b 1115 939 1068 1135 1115 1057 l 1115 781 b 1201 694 1115 733 1153 694 l 1302 694 l 1302 1302 l 925 1302 b 929 1248 873 1302 873 1264 b 1043 1168 962 1240 1010 1215 z m 460 866 b 547 693 460 769 491 740 l 708 559 b 842 606 793 488 842 526 l 842 840 b 628 1094 842 1014 795 1094 l 547 1094 b 460 1007 498 1094 460 1056 z m 0 0 l 108 0 b 194 87 156 0 194 38 l 194 521 b 108 608 194 569 156 608 l 0 608 b -38 304 -23 608 -38 542 b 0 0 -38 66 -23 0 z m 988 87 b 1075 0 988 38 1026 0 l 1302 0 l 1302 608 l 1201 608 b 1115 521 1153 608 1115 569 l 1115 399 b 988 108 1115 252 988 259 z m 924 69 b 840 226 924 139 892 182 l 595 431 b 460 384 510 502 460 462 l 460 89 b 556 0 460 28 481 0 l 839 0 b 924 69 885 0 924 26 z "},"Q":{"ha":1302,"x_min":0,"x_max":0,"o":"m 0 694 b 82 795 40 694 75 727 b 490 1224 111 1085 290 1182 b 561 1267 538 1234 561 1248 b 509 1302 561 1286 547 1302 l 0 1302 b -38 998 -23 1302 -38 1236 b 0 694 -38 760 -23 694 z m 1220 795 b 1302 694 1227 727 1262 694 l 1302 1302 l 793 1302 b 741 1267 755 1302 741 1286 b 813 1224 741 1248 764 1234 b 1220 795 1012 1182 1191 1085 z m 651 627 b 955 825 818 627 955 717 b 651 1024 955 932 818 1024 b 349 825 486 1024 349 932 b 651 627 349 717 486 627 z m 0 0 l 14 0 b 83 75 54 0 83 21 b 80 172 83 94 80 123 b 304 446 80 415 304 391 b 219 533 304 479 273 497 b 0 608 148 582 111 608 b -38 304 -23 608 -38 542 b 0 0 -38 66 -23 0 z m 1302 608 l 1226 608 b 1113 554 1182 608 1156 597 b 1160 488 1076 519 1101 488 b 1243 413 1220 488 1243 469 b 1059 47 1243 188 1203 109 b 1024 19 1035 36 1024 24 b 1064 0 1024 9 1030 0 l 1302 0 z m 563 385 b 866 260 559 333 781 260 b 977 415 951 260 977 318 b 892 439 977 458 948 462 b 618 398 814 408 722 398 b 563 385 578 398 564 405 z m 420 0 l 691 0 b 707 56 738 0 743 43 b 415 179 655 75 462 179 b 349 123 370 179 349 165 b 356 36 349 101 352 61 b 420 0 359 7 373 0 z "},"R":{"ha":1302,"x_min":0,"x_max":0,"o":"m 0 694 l 108 694 b 194 781 156 694 194 733 l 194 1215 b 108 1302 194 1264 156 1302 l 0 1302 b -38 998 -23 1302 -38 1236 b 0 694 -38 760 -23 694 z m 1043 1168 b 1111 939 1068 1135 1111 1057 l 1111 781 b 1201 694 1111 733 1151 694 l 1302 694 l 1302 1302 l 925 1302 b 929 1248 873 1302 873 1264 b 1043 1168 962 1240 1010 1215 z m 464 866 b 550 693 464 769 495 740 l 708 559 b 842 606 793 488 842 526 l 842 840 b 628 1094 842 1014 795 1094 l 550 1094 b 464 1007 502 1094 464 1056 z m 0 0 l 108 0 b 194 87 156 0 194 38 l 194 521 b 108 608 194 569 156 608 l 0 608 b -38 304 -23 608 -38 542 b 0 0 -38 66 -23 0 z m 1111 139 b 1302 0 1214 30 1236 0 l 1302 608 l 1201 608 b 905 450 1090 608 1170 495 b 878 389 863 443 861 406 z m 837 69 b 771 174 837 116 809 132 l 595 361 b 464 314 521 441 464 392 l 464 89 b 559 0 464 28 484 0 l 769 0 b 837 69 806 0 837 26 z "},"S":{"ha":1302,"x_min":0,"x_max":0,"o":"m 0 694 l 253 694 b 274 715 266 694 274 701 b 252 741 274 727 273 729 b 142 958 179 786 142 863 b 481 1241 142 1087 278 1217 b 533 1276 519 1247 533 1262 b 500 1302 533 1290 524 1302 l 0 1302 b -38 998 -23 1302 -38 1236 b 0 694 -38 760 -23 694 z m 1302 694 l 1302 1302 l 835 1302 b 799 1281 807 1302 799 1293 b 878 1240 799 1266 811 1257 b 1168 1014 1005 1207 1106 1116 b 1135 908 1198 965 1184 934 b 984 792 1049 861 1009 830 b 1030 703 953 743 976 714 b 1179 694 1057 696 1104 694 z m 925 821 b 925 932 951 875 953 899 b 637 1043 875 991 783 1043 b 420 950 498 1043 420 1016 b 738 762 420 859 561 807 b 925 821 821 741 891 748 z m 1194 344 b 821 61 1194 215 1045 87 b 769 26 783 56 769 40 b 802 0 769 12 778 0 l 1302 0 l 1302 608 l 1049 608 b 1028 587 1036 608 1028 601 b 1050 561 1028 575 1030 569 b 1194 344 1149 517 1194 439 z m 0 0 l 474 0 b 505 26 498 0 505 17 b 458 63 505 45 493 52 b 134 288 318 104 198 182 b 167 394 104 337 118 368 b 318 510 253 441 293 472 b 273 599 349 559 326 589 b 123 608 245 606 198 608 l 0 608 b -38 304 -23 608 -38 542 b 0 0 -38 66 -23 0 z m 377 481 b 377 370 351 427 349 403 b 665 259 427 311 519 259 b 917 352 826 259 917 286 b 564 540 917 443 759 490 b 377 481 481 561 411 554 z "},"T":{"ha":1302,"x_min":0,"x_max":0,"o":"m 781 781 b 868 694 781 733 819 694 l 1302 694 l 1302 1302 b 1057 1061 1137 1302 1257 1061 l 868 1061 b 781 974 819 1061 781 1023 z m 0 694 l 434 694 b 521 781 483 694 521 733 l 521 974 b 434 1061 521 1023 483 1061 l 245 1061 b 0 1302 45 1061 163 1302 b -38 998 -23 1302 -38 1236 b 0 694 -38 760 -23 694 z m 1302 0 l 1302 608 l 868 608 b 781 521 819 608 781 569 l 781 87 b 868 0 781 38 819 0 z m 0 0 l 434 0 b 521 87 483 0 521 38 l 521 521 b 434 608 521 569 483 608 l 0 608 b -38 304 -23 608 -38 542 b 0 0 -38 66 -23 0 z "},"U":{"ha":1302,"x_min":0,"x_max":0,"o":"m 0 694 l 104 694 b 191 781 153 694 191 733 l 191 1215 b 104 1302 191 1264 153 1302 l 0 1302 b -38 998 -23 1302 -38 1236 b 0 694 -38 760 -23 694 z m 1111 781 b 1198 694 1111 733 1149 694 l 1302 694 l 1302 1302 l 1198 1302 b 1111 1215 1149 1302 1111 1264 z m 842 599 l 842 1215 b 755 1302 842 1264 804 1302 l 547 1302 b 460 1215 498 1302 460 1264 l 460 599 b 651 300 460 408 535 300 b 842 599 767 300 842 408 z m 0 0 l 509 0 b 549 28 538 0 549 12 b 490 78 549 49 531 64 b 214 470 352 120 247 297 b 0 608 189 597 85 608 b -38 304 -23 608 -38 542 b 0 0 -38 66 -23 0 z m 1089 470 b 813 78 1056 297 950 120 b 753 28 771 64 753 49 b 793 0 753 12 764 0 l 1302 0 l 1302 608 b 1089 470 1217 608 1113 597 z "},"V":{"ha":1302,"x_min":0,"x_max":0,"o":"m 563 137 b 649 33 569 78 601 33 l 655 33 b 741 137 703 33 734 78 l 877 1198 b 790 1302 884 1257 839 1302 l 512 1302 b 425 1198 464 1302 418 1257 z m 1253 1302 b 1167 1215 1205 1302 1174 1266 l 1101 785 b 1179 694 1094 736 1128 694 l 1302 694 l 1302 1302 z m 0 694 l 130 694 b 208 785 181 694 215 736 l 142 1215 b 56 1302 135 1266 104 1302 l 0 1302 b -38 998 -23 1302 -38 1236 b 0 694 -38 760 -23 694 z m 0 0 l 229 0 b 316 87 295 0 323 36 l 248 526 b 153 608 240 578 205 608 l 0 608 b -38 304 -23 608 -38 542 b 0 0 -38 66 -23 0 z m 1156 608 b 1061 526 1104 608 1069 578 l 993 87 b 1080 0 986 36 1014 0 l 1302 0 l 1302 608 z "},"W":{"ha":2604,"x_min":0,"x_max":0,"o":"m 597 137 b 684 33 606 78 635 33 l 689 33 b 776 137 738 33 766 78 l 955 1198 b 868 1302 965 1257 917 1302 l 512 1302 b 425 1198 464 1302 417 1257 z m 0 694 l 139 694 b 217 785 189 694 226 736 l 141 1215 b 54 1302 132 1266 102 1302 l 0 1302 b -38 998 -23 1302 -38 1236 b 0 694 -38 760 -23 694 z m 1830 137 b 1917 33 1840 78 1868 33 l 1922 33 b 2009 137 1970 33 2000 78 l 2179 1198 b 2092 1302 2188 1257 2141 1302 l 1736 1302 b 1649 1198 1688 1302 1639 1257 z m 2465 694 l 2604 694 l 2604 1302 l 2550 1302 b 2464 1215 2502 1302 2472 1266 l 2387 785 b 2465 694 2378 736 2415 694 z m 1392 1165 b 1306 1269 1382 1224 1354 1269 l 1300 1269 b 1214 1165 1252 1269 1224 1224 l 1035 104 b 1122 0 1024 45 1073 0 l 1486 0 b 1573 104 1535 0 1583 45 z m 0 0 l 259 0 b 345 87 325 0 354 36 l 264 526 b 165 608 253 578 219 608 l 0 608 b -38 304 -23 608 -38 542 b 0 0 -38 66 -23 0 z m 2604 0 l 2604 608 l 2439 608 b 2340 526 2385 608 2351 578 l 2259 87 b 2345 0 2250 36 2280 0 z "},"X":{"ha":1302,"x_min":0,"x_max":0,"o":"m 1302 694 l 1302 1302 b 1090 1043 1219 1302 1193 1264 l 969 781 b 1021 694 950 740 974 694 z m 436 1215 l 497 1021 b 651 762 566 800 604 762 b 806 1021 698 762 736 800 l 866 1215 b 814 1302 880 1259 861 1302 l 488 1302 b 436 1215 441 1302 422 1259 z m 0 694 l 281 694 b 333 781 328 694 352 740 l 212 1043 b 0 1302 109 1264 83 1302 b -38 998 -23 1302 -38 1236 b 0 694 -38 760 -23 694 z m 1302 608 l 1021 608 b 969 521 974 608 950 563 l 1090 259 b 1302 0 1193 38 1219 0 z m 0 0 b 212 259 83 0 109 38 l 333 521 b 281 608 352 563 328 608 l 0 608 b -38 304 -23 608 -38 542 b 0 0 -38 66 -23 0 z m 503 297 l 436 87 b 488 0 422 43 441 0 l 814 0 b 866 87 861 0 880 43 l 799 297 b 651 556 727 517 698 556 b 503 297 604 556 575 517 z "},"Y":{"ha":1302,"x_min":0,"x_max":0,"o":"m 563 762 b 649 658 580 705 601 658 l 655 658 b 741 762 703 658 724 705 l 877 1198 b 790 1302 894 1255 839 1302 l 512 1302 b 425 1198 464 1302 408 1255 z m 0 694 l 229 694 b 316 781 295 694 335 733 l 142 1215 b 56 1302 123 1264 104 1302 l 0 1302 b -38 998 -23 1302 -38 1236 b 0 694 -38 760 -23 694 z m 993 781 b 1080 694 974 733 1014 694 l 1302 694 l 1302 1302 l 1253 1302 b 1167 1215 1205 1302 1186 1264 z m 0 0 l 438 0 b 524 87 486 0 524 38 l 524 274 b 304 608 524 462 392 608 l 0 608 b -38 304 -23 608 -38 542 b 0 0 -38 66 -23 0 z m 1302 0 l 1302 608 l 998 608 b 778 274 910 608 778 462 l 778 87 b 865 0 778 38 816 0 z "},"Z":{"ha":1302,"x_min":0,"x_max":0,"o":"m 1302 694 l 1302 1302 b 1021 1043 1227 1302 1135 1250 l 875 781 b 927 694 854 743 880 694 z m 0 694 l 378 694 b 571 781 464 694 542 727 l 668 962 b 618 1095 717 1052 707 1095 l 212 1095 b 87 1302 71 1095 182 1302 l 0 1302 b -38 998 -23 1302 -38 1236 b 0 694 -38 760 -23 694 z m 731 521 l 634 340 b 684 207 585 250 595 207 l 1135 207 b 1267 0 1285 207 1167 0 l 1302 0 l 1302 608 l 924 608 b 731 521 839 608 760 575 z m 0 0 b 281 259 75 0 167 52 l 427 521 b 375 608 448 559 422 608 l 0 608 b -38 304 -23 608 -38 542 b 0 0 -38 66 -23 0 z "},"[":{"ha":651,"x_min":0,"x_max":0,"o":"m 398 781 b 484 694 398 733 436 694 l 651 694 l 651 1302 l 620 1302 b 495 1130 524 1302 635 1130 l 484 1130 b 398 1043 436 1130 398 1092 z m 0 694 l 82 694 b 168 785 130 694 168 734 l 168 1215 b 82 1302 168 1264 130 1302 l 0 1302 b -38 998 -23 1302 -38 1236 b 0 694 -38 760 -23 694 z m 0 0 l 82 0 b 168 87 130 0 168 38 l 168 521 b 82 608 168 569 130 608 l 0 608 b -38 304 -23 608 -38 542 b 0 0 -38 66 -23 0 z m 398 517 l 398 260 b 484 174 398 212 436 174 l 495 174 b 620 0 635 174 524 0 l 651 0 l 651 608 l 484 608 b 398 517 436 608 398 568 z "},"\\":{"ha":651,"x_min":0,"x_max":0,"o":"m 0 694 l 95 694 b 174 785 146 694 181 736 l 108 1215 b 21 1302 101 1266 69 1302 l 0 1302 b -38 998 -23 1302 -38 1236 b 0 694 -38 760 -23 694 z m 651 1302 l 457 1302 b 370 1215 391 1302 363 1266 l 438 776 b 533 694 446 724 481 694 l 651 694 z m 0 0 l 194 0 b 281 87 260 0 288 36 l 214 526 b 118 608 205 578 170 608 l 0 608 b -38 304 -23 608 -38 542 b 0 0 -38 66 -23 0 z m 556 608 b 477 517 505 608 470 566 l 543 87 b 630 0 550 36 582 0 l 651 0 l 651 608 z "},"]":{"ha":651,"x_min":0,"x_max":0,"o":"m 0 694 l 167 694 b 253 781 215 694 253 733 l 253 1043 b 167 1130 253 1092 215 1130 l 156 1130 b 31 1302 16 1130 127 1302 l 0 1302 b -38 998 -23 1302 -38 1236 b 0 694 -38 760 -23 694 z m 651 694 l 651 1302 l 569 1302 b 483 1215 521 1302 483 1264 l 483 785 b 569 694 483 734 521 694 z m 651 0 l 651 608 l 569 608 b 483 521 521 608 483 569 l 483 87 b 569 0 483 38 521 0 z m 0 0 l 31 0 b 156 174 127 0 16 174 l 167 174 b 253 260 215 174 253 212 l 253 517 b 167 608 253 568 215 608 l 0 608 b -38 304 -23 608 -38 542 b 0 0 -38 66 -23 0 z "},"^":{"ha":1302,"x_min":0,"x_max":0,"o":"m 0 694 l 153 694 b 248 776 205 694 240 724 l 316 1215 b 229 1302 323 1266 295 1302 l 0 1302 b -38 998 -23 1302 -38 1236 b 0 694 -38 760 -23 694 z m 1156 694 l 1302 694 l 1302 1302 l 1080 1302 b 993 1215 1014 1302 986 1266 l 1061 776 b 1156 694 1069 724 1104 694 z m 563 1165 l 425 104 b 512 0 418 45 464 0 l 790 0 b 877 104 839 0 884 45 l 741 1165 b 655 1269 734 1224 703 1269 l 649 1269 b 563 1165 601 1269 569 1224 z m 1253 0 l 1302 0 l 1302 608 l 1179 608 b 1101 517 1128 608 1094 566 l 1167 87 b 1253 0 1174 36 1205 0 z m 0 0 l 56 0 b 142 87 104 0 135 36 l 208 517 b 130 608 215 566 181 608 l 0 608 b -38 304 -23 608 -38 542 b 0 0 -38 66 -23 0 z "},"_":{"ha":1302,"x_min":0,"x_max":0,"o":"m 0 0 b 243 87 113 0 118 87 l 1059 87 b 1302 0 1184 87 1189 0 l 1302 608 l 1224 608 b 1181 651 1198 608 1181 625 b 1224 694 1181 677 1198 694 l 1302 694 l 1302 1302 l 0 1302 b -38 998 -23 1302 -38 1236 b 0 694 -38 760 -23 694 l 78 694 b 122 651 104 694 122 677 b 78 608 122 625 104 608 l 0 608 b -38 304 -23 608 -38 542 b 0 0 -38 66 -23 0 z "},"`":{"ha":1302,"x_min":0,"x_max":0,"o":"m 0 1128 l 429 1128 b 476 1191 484 1128 500 1160 l 425 1257 b 326 1302 401 1288 373 1302 l 0 1302 z m 1302 1302 l 847 1302 b 774 1240 792 1302 766 1278 l 790 1174 b 877 1128 799 1135 830 1128 l 1302 1128 z "},"a":{"ha":1302,"x_min":0,"x_max":0,"o":"m 0 694 l 153 694 b 248 776 205 694 240 724 l 316 1215 b 229 1302 323 1266 295 1302 l 0 1302 b -38 998 -23 1302 -38 1236 b 0 694 -38 760 -23 694 z m 1156 694 l 1302 694 l 1302 1302 l 1080 1302 b 993 1215 1014 1302 986 1266 l 1061 776 b 1156 694 1069 724 1104 694 z m 745 488 b 816 569 790 488 821 524 l 741 1165 b 655 1269 734 1224 703 1269 l 649 1269 b 563 1165 601 1269 569 1224 l 488 569 b 559 488 483 524 514 488 z m 1253 0 l 1302 0 l 1302 608 l 1179 608 b 1101 517 1128 608 1094 566 l 1167 87 b 1253 0 1174 36 1205 0 z m 0 0 l 56 0 b 142 87 104 0 135 36 l 208 517 b 130 608 215 566 181 608 l 0 608 b -38 304 -23 608 -38 542 b 0 0 -38 66 -23 0 z m 533 307 b 441 226 483 307 448 278 l 425 104 b 512 0 418 45 464 0 l 790 0 b 877 104 839 0 884 45 l 861 226 b 769 307 854 278 819 307 z "},"b":{"ha":1302,"x_min":0,"x_max":0,"o":"m 0 694 l 108 694 b 194 781 156 694 194 733 l 194 1215 b 108 1302 194 1264 156 1302 l 0 1302 b -38 998 -23 1302 -38 1236 b 0 694 -38 760 -23 694 z m 1031 1035 b 880 786 1031 955 1005 875 b 906 726 861 773 863 738 b 1201 694 962 710 1090 694 l 1302 694 l 1302 1302 l 924 1302 b 842 1269 887 1302 842 1293 b 936 1205 842 1247 892 1231 b 1031 1035 1003 1165 1031 1123 z m 743 995 b 609 1111 743 1064 688 1111 l 559 1111 b 464 1023 484 1111 464 1083 l 464 814 b 616 788 464 736 498 714 l 641 804 b 743 995 710 849 743 932 z m 1043 134 b 929 54 1010 87 962 63 b 925 0 873 38 873 0 l 1302 0 l 1302 608 l 1234 608 b 1035 623 1141 608 1066 623 b 1009 599 1019 623 1009 615 b 1111 363 1009 554 1111 524 b 1043 134 1111 245 1068 167 z m 0 0 l 108 0 b 194 87 156 0 194 38 l 194 521 b 108 608 194 569 156 608 l 0 608 b -38 304 -23 608 -38 542 b 0 0 -38 66 -23 0 z m 464 314 l 464 295 b 550 208 464 247 502 208 l 628 208 b 833 431 788 208 833 288 b 594 571 833 583 710 644 l 575 559 b 464 314 483 503 464 443 z "},"c":{"ha":1302,"x_min":0,"x_max":0,"o":"m 0 694 b 101 832 40 694 68 720 b 490 1207 151 1002 302 1149 b 561 1267 540 1222 561 1241 b 509 1302 561 1286 547 1302 l 0 1302 b -38 998 -23 1302 -38 1236 b 0 694 -38 760 -23 694 z m 1078 694 l 1302 694 l 1302 1302 l 793 1302 b 741 1267 755 1302 741 1286 b 813 1207 741 1241 762 1222 b 1153 946 958 1161 1085 1064 b 1128 833 1186 891 1167 852 l 1064 802 b 1010 747 1021 781 1009 764 b 1078 694 1010 720 1033 694 z m 938 651 b 651 976 938 885 814 976 b 328 651 495 976 328 847 b 651 326 328 455 495 326 b 938 651 814 326 938 417 z m 0 0 l 509 0 b 561 35 547 0 561 16 b 490 95 561 61 540 80 b 101 470 302 153 151 300 b 0 608 68 582 40 608 b -38 304 -23 608 -38 542 b 0 0 -38 66 -23 0 z m 1078 608 b 1010 556 1033 608 1010 582 b 1064 500 1009 538 1021 521 l 1128 469 b 1153 356 1167 450 1186 411 b 813 95 1085 238 958 141 b 741 35 762 80 741 61 b 793 0 741 16 755 0 l 1302 0 l 1302 608 z "},"d":{"ha":1302,"x_min":0,"x_max":0,"o":"m 0 694 l 104 694 b 191 781 153 694 191 733 l 191 1215 b 104 1302 191 1264 153 1302 l 0 1302 b -38 998 -23 1302 -38 1236 b 0 694 -38 760 -23 694 z m 1156 856 b 1302 694 1212 717 1248 694 l 1302 1302 l 616 1302 b 583 1283 592 1302 583 1293 b 618 1253 583 1273 585 1259 b 1156 856 868 1219 1087 1031 z m 460 307 b 526 262 460 260 497 260 b 925 651 750 280 925 406 b 526 1040 925 896 753 1023 b 460 995 498 1042 460 1038 z m 1156 446 b 618 49 1087 271 868 83 b 583 19 585 43 583 30 b 616 0 583 9 592 0 l 1302 0 l 1302 608 b 1156 446 1248 608 1212 585 z m 0 0 l 104 0 b 191 87 153 0 191 38 l 191 521 b 104 608 191 569 153 608 l 0 608 b -38 304 -23 608 -38 542 b 0 0 -38 66 -23 0 z "},"e":{"ha":1302,"x_min":0,"x_max":0,"o":"m 0 694 b 101 832 40 694 68 720 b 490 1207 151 1002 302 1149 b 561 1267 540 1222 561 1241 b 509 1302 561 1286 547 1302 l 0 1302 b -38 998 -23 1302 -38 1236 b 0 694 -38 760 -23 694 z m 1078 694 l 1302 694 l 1302 1302 l 793 1302 b 741 1267 755 1302 741 1286 b 813 1207 741 1241 762 1222 b 1153 946 958 1161 1085 1064 b 1128 833 1186 891 1167 852 l 1064 802 b 1010 747 1021 781 1009 764 b 1078 694 1010 720 1033 694 z m 877 884 b 651 976 816 941 738 976 b 375 816 530 976 422 906 b 417 760 361 790 372 760 l 655 760 b 901 828 778 760 901 781 b 877 884 901 849 892 868 z m 0 0 l 509 0 b 561 35 547 0 561 16 b 490 95 561 61 540 80 b 101 470 302 153 151 300 b 0 608 68 582 40 608 b -38 304 -23 608 -38 542 b 0 0 -38 66 -23 0 z m 1078 608 b 1010 556 1033 608 1010 582 b 1064 500 1009 538 1021 521 l 1128 469 b 1153 356 1167 450 1186 411 b 813 95 1085 238 958 141 b 741 35 762 80 741 61 b 793 0 741 16 755 0 l 1302 0 l 1302 608 z m 877 418 b 901 474 892 434 901 453 b 655 542 901 521 778 542 l 417 542 b 375 486 372 542 361 512 b 651 326 422 396 530 326 b 877 418 738 326 816 361 z "},"f":{"ha":1302,"x_min":0,"x_max":0,"o":"m 457 781 b 543 694 457 733 495 694 l 1302 694 l 1302 1302 l 1267 1302 b 1142 1095 1172 1302 1283 1095 l 543 1095 b 457 1009 495 1095 457 1057 z m 0 694 l 104 694 b 191 785 153 694 191 734 l 191 1215 b 104 1302 191 1264 153 1302 l 0 1302 b -38 998 -23 1302 -38 1236 b 0 694 -38 760 -23 694 z m 0 0 l 104 0 b 191 87 153 0 191 38 l 191 521 b 104 608 191 569 153 608 l 0 608 b -38 304 -23 608 -38 542 b 0 0 -38 66 -23 0 z m 457 385 l 457 87 b 543 0 457 38 495 0 l 1302 0 l 1302 608 l 1128 608 b 983 476 1038 608 1050 476 l 543 476 b 457 385 495 476 457 436 z "},"g":{"ha":1302,"x_min":0,"x_max":0,"o":"m 0 694 b 101 832 40 694 68 720 b 490 1207 151 1002 302 1149 b 561 1267 540 1222 561 1241 b 509 1302 561 1286 547 1302 l 0 1302 b -38 998 -23 1302 -38 1236 b 0 694 -38 760 -23 694 z m 1026 755 l 1090 755 b 1302 694 1191 755 1217 694 l 1302 1302 l 793 1302 b 741 1267 755 1302 741 1286 b 813 1207 741 1241 762 1222 b 1106 1003 938 1168 1042 1099 b 1082 891 1142 950 1120 910 l 1012 856 b 958 800 969 833 957 818 b 1026 755 958 778 981 755 z m 547 602 l 547 681 b 628 755 547 727 580 755 l 807 755 b 873 884 873 755 920 821 b 651 979 819 946 733 979 b 325 651 472 979 325 830 b 651 325 325 472 472 325 b 941 491 809 325 905 392 b 911 536 951 517 941 536 l 628 536 b 547 602 576 536 547 573 z m 0 0 l 509 0 b 561 35 547 0 561 16 b 490 95 561 61 540 80 b 101 470 302 153 151 300 b 0 608 68 582 40 608 b -38 304 -23 608 -38 542 b 0 0 -38 66 -23 0 z m 1214 448 l 1214 87 b 1302 0 1214 43 1229 0 l 1302 608 b 1214 448 1248 608 1214 564 z m 1009 243 b 974 219 997 243 984 234 b 793 85 934 163 859 109 b 741 35 760 73 741 59 b 793 0 741 16 755 0 l 1101 0 b 1139 59 1141 0 1153 7 b 1009 243 1097 215 1042 243 z "},"h":{"ha":1302,"x_min":0,"x_max":0,"o":"m 460 849 b 547 762 460 800 498 762 l 755 762 b 842 849 804 762 842 800 l 842 1215 b 755 1302 842 1264 804 1302 l 547 1302 b 460 1215 498 1302 460 1264 z m 0 694 l 104 694 b 191 781 153 694 191 733 l 191 1215 b 104 1302 191 1264 153 1302 l 0 1302 b -38 998 -23 1302 -38 1236 b 0 694 -38 760 -23 694 z m 1111 781 b 1198 694 1111 733 1149 694 l 1302 694 l 1302 1302 l 1198 1302 b 1111 1215 1149 1302 1111 1264 z m 0 0 l 104 0 b 191 87 153 0 191 38 l 191 521 b 104 608 191 569 153 608 l 0 608 b -38 304 -23 608 -38 542 b 0 0 -38 66 -23 0 z m 1111 87 b 1198 0 1111 38 1149 0 l 1302 0 l 1302 608 l 1198 608 b 1111 521 1149 608 1111 569 z m 460 87 b 547 0 460 38 498 0 l 755 0 b 842 87 804 0 842 38 l 842 469 b 755 556 842 517 804 556 l 547 556 b 460 469 498 556 460 517 z "},"i":{"ha":651,"x_min":0,"x_max":0,"o":"m 0 694 l 104 694 b 191 785 153 694 191 734 l 191 1215 b 104 1302 191 1264 153 1302 l 0 1302 b -38 998 -23 1302 -38 1236 b 0 694 -38 760 -23 694 z m 651 694 l 651 1302 l 547 1302 b 460 1215 498 1302 460 1264 l 460 785 b 547 694 460 734 498 694 z m 0 0 l 104 0 b 191 87 153 0 191 38 l 191 521 b 104 608 191 569 153 608 l 0 608 b -38 304 -23 608 -38 542 b 0 0 -38 66 -23 0 z m 651 0 l 651 608 l 547 608 b 460 521 498 608 460 569 l 460 87 b 547 0 460 38 498 0 z "},"j":{"ha":651,"x_min":0,"x_max":0,"o":"m 651 694 l 651 1302 l 543 1302 b 457 1215 495 1302 457 1264 l 457 785 b 543 694 457 734 495 694 z m 0 0 b 135 35 99 0 135 16 b 52 141 135 73 52 45 l 52 184 b 125 316 52 245 73 283 b 194 470 184 354 194 394 l 194 1215 b 108 1302 194 1264 156 1302 l 0 1302 b -38 998 -23 1302 -38 1236 b 0 694 -38 760 -23 694 l 36 694 b 115 651 94 694 115 674 b 36 608 115 628 94 608 l 0 608 b -38 304 -23 608 -38 542 b 0 0 -38 66 -23 0 z m 458 500 b 248 75 458 229 385 130 b 201 28 212 59 201 47 b 247 0 201 12 214 0 l 651 0 l 651 608 l 549 608 b 458 500 493 608 458 564 z "},"k":{"ha":1302,"x_min":0,"x_max":0,"o":"m 460 849 b 547 762 460 800 498 762 l 618 762 b 793 1021 686 762 707 804 l 872 1215 b 819 1302 889 1257 866 1302 l 547 1302 b 460 1215 498 1302 460 1264 z m 0 694 l 104 694 b 191 781 153 694 191 733 l 191 1215 b 104 1302 191 1264 153 1302 l 0 1302 b -38 998 -23 1302 -38 1236 b 0 694 -38 760 -23 694 z m 1302 694 l 1302 1302 b 1090 1043 1219 1302 1200 1259 l 957 781 b 1003 694 936 740 957 694 z m 0 0 l 104 0 b 191 87 153 0 191 38 l 191 521 b 104 608 191 569 153 608 l 0 608 b -38 304 -23 608 -38 542 b 0 0 -38 66 -23 0 z m 1302 608 l 1003 608 b 957 521 957 608 936 563 l 1090 259 b 1302 0 1200 43 1219 0 z m 460 87 b 547 0 460 38 498 0 l 819 0 b 872 87 866 0 889 45 l 786 297 b 611 556 698 512 679 556 l 547 556 b 460 469 498 556 460 517 z "},"l":{"ha":651,"x_min":0,"x_max":0,"o":"m 0 694 l 38 694 b 125 781 87 694 125 733 l 125 1215 b 38 1302 125 1264 87 1302 l 0 1302 b -38 998 -23 1302 -38 1236 b 0 694 -38 760 -23 694 z m 651 1302 l 477 1302 b 391 1215 429 1302 391 1264 l 391 781 b 477 694 391 733 429 694 l 651 694 z m 391 521 l 391 328 b 477 241 391 280 429 241 l 526 241 b 651 0 630 241 519 0 l 651 608 l 477 608 b 391 521 429 608 391 569 z m 0 0 l 38 0 b 125 87 87 0 125 38 l 125 517 b 38 608 125 568 87 608 l 0 608 b -38 304 -23 608 -38 542 b 0 0 -38 66 -23 0 z "},"m":{"ha":1953,"x_min":0,"x_max":0,"o":"m 0 694 l 90 694 b 177 781 139 694 177 733 l 177 1215 b 90 1302 177 1264 139 1302 l 0 1302 b -38 998 -23 1302 -38 1236 b 0 694 -38 760 -23 694 z m 1776 781 b 1863 694 1776 733 1814 694 l 1953 694 l 1953 1302 l 1863 1302 b 1776 1215 1814 1302 1776 1264 z m 1045 260 l 1236 1215 b 1149 1302 1245 1262 1215 1302 l 804 1302 b 717 1215 738 1302 708 1262 l 908 260 b 976 174 917 214 936 174 l 977 174 b 1045 260 1016 174 1036 214 z m 380 73 b 453 0 380 30 410 0 l 592 0 b 679 87 658 0 688 40 l 488 1042 b 424 1128 479 1089 460 1128 b 380 1036 391 1128 380 1092 z m 1573 73 l 1573 1036 b 1530 1128 1573 1092 1563 1128 b 1465 1042 1493 1128 1474 1089 l 1274 87 b 1361 0 1266 40 1295 0 l 1500 0 b 1573 73 1543 0 1573 30 z m 0 0 l 90 0 b 177 87 139 0 177 38 l 177 521 b 90 608 177 569 139 608 l 0 608 b -38 304 -23 608 -38 542 b 0 0 -38 66 -23 0 z m 1776 87 b 1863 0 1776 38 1814 0 l 1953 0 l 1953 608 l 1863 608 b 1776 521 1814 608 1776 569 z "},"n":{"ha":1302,"x_min":0,"x_max":0,"o":"m 0 694 l 52 694 b 139 781 101 694 139 733 l 139 1215 b 52 1302 139 1264 101 1302 l 0 1302 b -38 998 -23 1302 -38 1236 b 0 694 -38 760 -23 694 z m 1163 781 b 1250 694 1163 733 1201 694 l 1302 694 l 1302 1302 l 1250 1302 b 1163 1215 1201 1302 1163 1264 z m 960 1229 b 887 1302 960 1273 931 1302 l 748 1302 b 661 1215 682 1302 651 1266 l 852 347 b 917 260 863 297 880 260 b 960 352 950 260 960 297 z m 342 73 b 415 0 342 30 372 0 l 554 0 b 641 87 620 0 651 36 l 450 955 b 385 1042 439 1005 422 1042 b 342 950 352 1042 342 1005 z m 0 0 l 52 0 b 139 87 101 0 139 38 l 139 521 b 52 608 139 569 101 608 l 0 608 b -38 304 -23 608 -38 542 b 0 0 -38 66 -23 0 z m 1163 87 b 1250 0 1163 38 1201 0 l 1302 0 l 1302 608 l 1250 608 b 1163 521 1201 608 1163 569 z "},"o":{"ha":1302,"x_min":0,"x_max":0,"o":"m 0 694 b 101 832 40 694 68 720 b 490 1207 151 1002 302 1149 b 561 1267 540 1222 561 1241 b 509 1302 561 1286 547 1302 l 0 1302 b -38 998 -23 1302 -38 1236 b 0 694 -38 760 -23 694 z m 1201 832 b 1302 694 1234 720 1262 694 l 1302 1302 l 793 1302 b 741 1267 755 1302 741 1286 b 813 1207 741 1241 762 1222 b 1201 832 1000 1149 1151 1002 z m 773 649 b 733 569 773 616 757 589 b 696 512 722 563 696 545 l 696 384 b 752 342 696 339 726 332 b 977 651 882 387 977 507 b 752 962 977 792 884 915 b 696 918 727 970 696 958 l 696 792 b 733 733 696 753 724 740 b 773 649 759 714 773 682 z m 530 649 b 569 733 530 682 543 714 b 606 792 578 740 606 753 l 606 918 b 550 962 606 958 575 970 b 325 651 418 915 325 792 b 550 342 325 507 420 387 b 606 384 576 332 606 339 l 606 512 b 569 569 606 545 580 563 b 530 649 545 589 530 616 z m 0 0 l 509 0 b 561 35 547 0 561 16 b 490 95 561 61 540 80 b 101 470 302 153 151 300 b 0 608 68 582 40 608 b -38 304 -23 608 -38 542 b 0 0 -38 66 -23 0 z m 1201 470 b 813 95 1151 300 1000 153 b 741 35 762 80 741 61 b 793 0 741 16 755 0 l 1302 0 l 1302 608 b 1201 470 1262 608 1234 582 z "},"p":{"ha":1302,"x_min":0,"x_max":0,"o":"m 0 694 l 108 694 b 194 781 156 694 194 733 l 194 1215 b 108 1302 194 1264 156 1302 l 0 1302 b -38 998 -23 1302 -38 1236 b 0 694 -38 760 -23 694 z m 1043 1168 b 1115 939 1068 1135 1115 1057 l 1115 781 b 1201 694 1115 733 1153 694 l 1302 694 l 1302 1302 l 925 1302 b 929 1248 873 1302 873 1264 b 1043 1168 962 1240 1010 1215 z m 460 866 b 547 693 460 769 491 740 l 708 559 b 842 606 793 488 842 526 l 842 840 b 628 1094 842 1014 795 1094 l 547 1094 b 460 1007 498 1094 460 1056 z m 0 0 l 108 0 b 194 87 156 0 194 38 l 194 521 b 108 608 194 569 156 608 l 0 608 b -38 304 -23 608 -38 542 b 0 0 -38 66 -23 0 z m 988 87 b 1075 0 988 38 1026 0 l 1302 0 l 1302 608 l 1201 608 b 1115 521 1153 608 1115 569 l 1115 399 b 988 108 1115 252 988 259 z m 924 69 b 840 226 924 139 892 182 l 595 431 b 460 384 510 502 460 462 l 460 89 b 556 0 460 28 481 0 l 839 0 b 924 69 885 0 924 26 z "},"q":{"ha":1302,"x_min":0,"x_max":0,"o":"m 0 694 b 82 795 40 694 75 727 b 490 1224 111 1085 290 1182 b 561 1267 538 1234 561 1248 b 509 1302 561 1286 547 1302 l 0 1302 b -38 998 -23 1302 -38 1236 b 0 694 -38 760 -23 694 z m 1220 795 b 1302 694 1227 727 1262 694 l 1302 1302 l 793 1302 b 741 1267 755 1302 741 1286 b 813 1224 741 1248 764 1234 b 1220 795 1012 1182 1191 1085 z m 651 627 b 955 825 818 627 955 717 b 651 1024 955 932 818 1024 b 349 825 486 1024 349 932 b 651 627 349 717 486 627 z m 0 0 l 14 0 b 83 75 54 0 83 21 b 80 172 83 94 80 123 b 304 446 80 415 304 391 b 219 533 304 479 273 497 b 0 608 148 582 111 608 b -38 304 -23 608 -38 542 b 0 0 -38 66 -23 0 z m 1302 608 l 1226 608 b 1113 554 1182 608 1156 597 b 1160 488 1076 519 1101 488 b 1243 413 1220 488 1243 469 b 1059 47 1243 188 1203 109 b 1024 19 1035 36 1024 24 b 1064 0 1024 9 1030 0 l 1302 0 z m 563 385 b 866 260 559 333 781 260 b 977 415 951 260 977 318 b 892 439 977 458 948 462 b 618 398 814 408 722 398 b 563 385 578 398 564 405 z m 420 0 l 691 0 b 707 56 738 0 743 43 b 415 179 655 75 462 179 b 349 123 370 179 349 165 b 356 36 349 101 352 61 b 420 0 359 7 373 0 z "},"r":{"ha":1302,"x_min":0,"x_max":0,"o":"m 0 694 l 108 694 b 194 781 156 694 194 733 l 194 1215 b 108 1302 194 1264 156 1302 l 0 1302 b -38 998 -23 1302 -38 1236 b 0 694 -38 760 -23 694 z m 1043 1168 b 1111 939 1068 1135 1111 1057 l 1111 781 b 1201 694 1111 733 1151 694 l 1302 694 l 1302 1302 l 925 1302 b 929 1248 873 1302 873 1264 b 1043 1168 962 1240 1010 1215 z m 464 866 b 550 693 464 769 495 740 l 708 559 b 842 606 793 488 842 526 l 842 840 b 628 1094 842 1014 795 1094 l 550 1094 b 464 1007 502 1094 464 1056 z m 0 0 l 108 0 b 194 87 156 0 194 38 l 194 521 b 108 608 194 569 156 608 l 0 608 b -38 304 -23 608 -38 542 b 0 0 -38 66 -23 0 z m 1111 139 b 1302 0 1214 30 1236 0 l 1302 608 l 1201 608 b 905 450 1090 608 1170 495 b 878 389 863 443 861 406 z m 837 69 b 771 174 837 116 809 132 l 595 361 b 464 314 521 441 464 392 l 464 89 b 559 0 464 28 484 0 l 769 0 b 837 69 806 0 837 26 z "},"s":{"ha":651,"x_min":0,"x_max":0,"o":"m 0 694 l 116 694 b 141 733 142 694 151 714 b 69 934 95 790 69 858 b 313 1264 69 1109 194 1231 b 335 1286 332 1269 335 1278 b 318 1302 335 1295 328 1302 l 0 1302 b -38 998 -23 1302 -38 1236 b 0 694 -38 760 -23 694 z m 564 1151 l 564 1137 b 526 1063 564 1089 550 1063 b 410 1071 498 1063 446 1071 b 309 958 352 1071 309 1021 b 380 799 309 903 342 849 b 549 694 431 733 491 694 l 651 694 l 651 1302 l 578 1302 b 519 1281 536 1302 519 1295 b 564 1151 519 1257 564 1264 z m 0 0 l 85 0 b 111 21 102 0 111 10 b 52 156 111 64 52 52 l 52 208 b 78 252 52 233 57 252 b 292 219 115 252 200 219 b 378 318 342 219 378 260 b 250 524 378 392 293 484 b 0 608 188 582 104 608 b -38 304 -23 608 -38 542 b 0 0 -38 66 -23 0 z m 651 0 l 651 608 l 552 608 b 531 576 526 608 521 590 b 613 356 582 516 613 444 b 455 38 613 231 556 92 b 465 0 434 28 444 0 z "},"t":{"ha":1302,"x_min":0,"x_max":0,"o":"m 781 781 b 868 694 781 733 819 694 l 1302 694 l 1302 1302 b 1057 1061 1137 1302 1257 1061 l 868 1061 b 781 974 819 1061 781 1023 z m 0 694 l 434 694 b 521 781 483 694 521 733 l 521 974 b 434 1061 521 1023 483 1061 l 245 1061 b 0 1302 45 1061 163 1302 b -38 998 -23 1302 -38 1236 b 0 694 -38 760 -23 694 z m 1302 0 l 1302 608 l 868 608 b 781 521 819 608 781 569 l 781 87 b 868 0 781 38 819 0 z m 0 0 l 434 0 b 521 87 483 0 521 38 l 521 521 b 434 608 521 569 483 608 l 0 608 b -38 304 -23 608 -38 542 b 0 0 -38 66 -23 0 z "},"u":{"ha":1302,"x_min":0,"x_max":0,"o":"m 0 694 l 104 694 b 191 781 153 694 191 733 l 191 1215 b 104 1302 191 1264 153 1302 l 0 1302 b -38 998 -23 1302 -38 1236 b 0 694 -38 760 -23 694 z m 1111 781 b 1198 694 1111 733 1149 694 l 1302 694 l 1302 1302 l 1198 1302 b 1111 1215 1149 1302 1111 1264 z m 842 599 l 842 1215 b 755 1302 842 1264 804 1302 l 547 1302 b 460 1215 498 1302 460 1264 l 460 599 b 651 300 460 408 535 300 b 842 599 767 300 842 408 z m 0 0 l 509 0 b 549 28 538 0 549 12 b 490 78 549 49 531 64 b 214 470 352 120 247 297 b 0 608 189 597 85 608 b -38 304 -23 608 -38 542 b 0 0 -38 66 -23 0 z m 1089 470 b 813 78 1056 297 950 120 b 753 28 771 64 753 49 b 793 0 753 12 764 0 l 1302 0 l 1302 608 b 1089 470 1217 608 1113 597 z "},"v":{"ha":1302,"x_min":0,"x_max":0,"o":"m 563 137 b 649 33 569 78 601 33 l 655 33 b 741 137 703 33 734 78 l 877 1198 b 790 1302 884 1257 839 1302 l 512 1302 b 425 1198 464 1302 418 1257 z m 1253 1302 b 1167 1215 1205 1302 1174 1266 l 1101 785 b 1179 694 1094 736 1128 694 l 1302 694 l 1302 1302 z m 0 694 l 130 694 b 208 785 181 694 215 736 l 142 1215 b 56 1302 135 1266 104 1302 l 0 1302 b -38 998 -23 1302 -38 1236 b 0 694 -38 760 -23 694 z m 0 0 l 229 0 b 316 87 295 0 323 36 l 248 526 b 153 608 240 578 205 608 l 0 608 b -38 304 -23 608 -38 542 b 0 0 -38 66 -23 0 z m 1156 608 b 1061 526 1104 608 1069 578 l 993 87 b 1080 0 986 36 1014 0 l 1302 0 l 1302 608 z "},"w":{"ha":2604,"x_min":0,"x_max":0,"o":"m 597 137 b 684 33 606 78 635 33 l 689 33 b 776 137 738 33 766 78 l 955 1198 b 868 1302 965 1257 917 1302 l 512 1302 b 425 1198 464 1302 417 1257 z m 0 694 l 139 694 b 217 785 189 694 226 736 l 141 1215 b 54 1302 132 1266 102 1302 l 0 1302 b -38 998 -23 1302 -38 1236 b 0 694 -38 760 -23 694 z m 1830 137 b 1917 33 1840 78 1868 33 l 1922 33 b 2009 137 1970 33 2000 78 l 2179 1198 b 2092 1302 2188 1257 2141 1302 l 1736 1302 b 1649 1198 1688 1302 1639 1257 z m 2465 694 l 2604 694 l 2604 1302 l 2550 1302 b 2464 1215 2502 1302 2472 1266 l 2387 785 b 2465 694 2378 736 2415 694 z m 1392 1165 b 1306 1269 1382 1224 1354 1269 l 1300 1269 b 1214 1165 1252 1269 1224 1224 l 1035 104 b 1122 0 1024 45 1073 0 l 1486 0 b 1573 104 1535 0 1583 45 z m 0 0 l 259 0 b 345 87 325 0 354 36 l 264 526 b 165 608 253 578 219 608 l 0 608 b -38 304 -23 608 -38 542 b 0 0 -38 66 -23 0 z m 2604 0 l 2604 608 l 2439 608 b 2340 526 2385 608 2351 578 l 2259 87 b 2345 0 2250 36 2280 0 z "},"x":{"ha":1302,"x_min":0,"x_max":0,"o":"m 1302 694 l 1302 1302 b 1090 1043 1219 1302 1193 1264 l 969 781 b 1021 694 950 740 974 694 z m 436 1215 l 497 1021 b 651 762 566 800 604 762 b 806 1021 698 762 736 800 l 866 1215 b 814 1302 880 1259 861 1302 l 488 1302 b 436 1215 441 1302 422 1259 z m 0 694 l 281 694 b 333 781 328 694 352 740 l 212 1043 b 0 1302 109 1264 83 1302 b -38 998 -23 1302 -38 1236 b 0 694 -38 760 -23 694 z m 1302 608 l 1021 608 b 969 521 974 608 950 563 l 1090 259 b 1302 0 1193 38 1219 0 z m 0 0 b 212 259 83 0 109 38 l 333 521 b 281 608 352 563 328 608 l 0 608 b -38 304 -23 608 -38 542 b 0 0 -38 66 -23 0 z m 503 297 l 436 87 b 488 0 422 43 441 0 l 814 0 b 866 87 861 0 880 43 l 799 297 b 651 556 727 517 698 556 b 503 297 604 556 575 517 z "},"y":{"ha":1302,"x_min":0,"x_max":0,"o":"m 563 762 b 649 658 580 705 601 658 l 655 658 b 741 762 703 658 724 705 l 877 1198 b 790 1302 894 1255 839 1302 l 512 1302 b 425 1198 464 1302 408 1255 z m 0 694 l 229 694 b 316 781 295 694 335 733 l 142 1215 b 56 1302 123 1264 104 1302 l 0 1302 b -38 998 -23 1302 -38 1236 b 0 694 -38 760 -23 694 z m 993 781 b 1080 694 974 733 1014 694 l 1302 694 l 1302 1302 l 1253 1302 b 1167 1215 1205 1302 1186 1264 z m 0 0 l 438 0 b 524 87 486 0 524 38 l 524 274 b 304 608 524 462 392 608 l 0 608 b -38 304 -23 608 -38 542 b 0 0 -38 66 -23 0 z m 1302 0 l 1302 608 l 998 608 b 778 274 910 608 778 462 l 778 87 b 865 0 778 38 816 0 z "},"z":{"ha":1302,"x_min":0,"x_max":0,"o":"m 1302 694 l 1302 1302 b 1021 1043 1227 1302 1135 1250 l 875 781 b 927 694 854 743 880 694 z m 0 694 l 378 694 b 571 781 464 694 542 727 l 668 962 b 618 1095 717 1052 707 1095 l 212 1095 b 87 1302 71 1095 182 1302 l 0 1302 b -38 998 -23 1302 -38 1236 b 0 694 -38 760 -23 694 z m 731 521 l 634 340 b 684 207 585 250 595 207 l 1135 207 b 1267 0 1285 207 1167 0 l 1302 0 l 1302 608 l 924 608 b 731 521 839 608 760 575 z m 0 0 b 281 259 75 0 167 52 l 427 521 b 375 608 448 559 422 608 l 0 608 b -38 304 -23 608 -38 542 b 0 0 -38 66 -23 0 z "},"|":{"ha":651,"x_min":0,"x_max":0,"o":"m 0 694 l 109 694 b 196 785 158 694 196 734 l 196 1215 b 109 1302 196 1264 158 1302 l 0 1302 b -38 998 -23 1302 -38 1236 b 0 694 -38 760 -23 694 z m 651 694 l 651 1302 l 542 1302 b 455 1215 493 1302 455 1264 l 455 785 b 542 694 455 734 493 694 z m 0 0 l 109 0 b 196 87 158 0 196 38 l 196 521 b 109 608 196 569 158 608 l 0 608 b -38 304 -23 608 -38 542 b 0 0 -38 66 -23 0 z m 651 0 l 651 608 l 542 608 b 455 521 493 608 455 569 l 455 87 b 542 0 455 38 493 0 z "},"~":{"ha":1302,"x_min":0,"x_max":0,"o":"m 0 694 l 52 694 b 139 781 101 694 139 733 l 139 1050 b 208 1253 139 1160 208 1214 b 139 1302 208 1280 177 1302 l 0 1302 b -38 998 -23 1302 -38 1236 b 0 694 -38 760 -23 694 z m 1163 781 b 1250 694 1163 733 1201 694 l 1302 694 l 1302 1302 l 1250 1302 b 1163 1215 1201 1302 1163 1264 z m 960 1229 b 887 1302 960 1273 931 1302 l 609 1302 b 556 1257 575 1302 556 1283 b 707 1010 556 1212 670 1172 l 852 347 b 917 260 863 297 880 260 b 960 352 950 260 960 297 z m 342 73 b 415 0 342 30 372 0 l 693 0 b 747 45 727 0 747 19 b 595 292 747 90 632 130 l 450 955 b 385 1042 439 1005 422 1042 b 342 950 352 1042 342 1005 z m 0 0 l 52 0 b 139 87 101 0 139 38 l 139 521 b 52 608 139 569 101 608 l 0 608 b -38 304 -23 608 -38 542 b 0 0 -38 66 -23 0 z m 1302 608 l 1250 608 b 1163 521 1201 608 1163 569 l 1163 252 b 1094 49 1163 142 1094 89 b 1163 0 1094 23 1125 0 l 1302 0 z "},"Ä":{"ha":1302,"x_min":0,"x_max":0,"o":"m 0 694 l 168 694 b 264 776 220 694 253 726 l 316 1042 b 394 1128 325 1089 345 1128 l 384 1128 b 408 1141 401 1128 408 1134 b 372 1215 408 1158 372 1160 b 408 1290 372 1271 408 1273 b 384 1302 408 1297 401 1302 l 0 1302 b -38 998 -23 1302 -38 1236 b 0 694 -38 760 -23 694 z m 918 1128 l 908 1128 b 986 1042 957 1128 977 1089 l 1038 776 b 1134 694 1049 726 1082 694 l 1302 694 l 1302 1302 l 918 1302 b 894 1290 901 1302 894 1297 b 931 1215 894 1273 931 1271 b 894 1141 931 1160 894 1158 b 918 1128 894 1134 901 1128 z m 589 1128 l 714 1128 b 738 1141 731 1128 738 1134 b 701 1215 738 1158 701 1160 b 738 1290 701 1271 738 1273 b 714 1302 738 1297 731 1302 l 589 1302 b 564 1290 571 1302 564 1297 b 601 1215 564 1273 601 1271 b 564 1141 601 1160 564 1158 b 589 1128 564 1134 571 1128 z m 731 488 b 802 569 776 488 809 524 l 733 991 b 651 1095 722 1050 701 1095 b 569 991 602 1095 580 1050 l 500 569 b 571 488 493 524 526 488 z m 0 0 l 54 0 b 141 87 102 0 132 36 l 217 517 b 139 608 226 566 189 608 l 0 608 b -38 304 -23 608 -38 542 b 0 0 -38 66 -23 0 z m 1163 608 b 1085 517 1113 608 1076 566 l 1161 87 b 1248 0 1170 36 1200 0 l 1302 0 l 1302 608 z m 790 0 b 877 104 839 0 885 45 l 858 226 b 766 307 849 278 816 307 l 536 307 b 444 226 486 307 453 278 l 425 104 b 512 0 417 45 464 0 z "},"Å":{"ha":1302,"x_min":0,"x_max":0,"o":"m 0 694 l 168 694 b 264 776 220 694 253 726 l 316 1042 b 394 1128 325 1089 345 1128 l 444 1128 b 469 1141 462 1128 469 1134 b 432 1215 469 1158 432 1160 b 469 1290 432 1271 469 1273 b 444 1302 469 1297 462 1302 l 0 1302 b -38 998 -23 1302 -38 1236 b 0 694 -38 760 -23 694 z m 858 1128 l 908 1128 b 986 1042 957 1128 977 1089 l 1038 776 b 1134 694 1049 726 1082 694 l 1302 694 l 1302 1302 l 858 1302 b 833 1290 840 1302 833 1297 b 870 1215 833 1273 870 1271 b 833 1141 870 1160 833 1158 b 858 1128 833 1134 840 1128 z m 651 1170 b 762 1215 722 1170 762 1188 b 651 1260 762 1243 722 1260 b 540 1215 582 1260 540 1243 b 651 1170 540 1188 582 1170 z m 731 488 b 802 569 776 488 809 524 l 733 991 b 651 1095 722 1050 701 1095 b 569 991 602 1095 580 1050 l 500 569 b 571 488 493 524 526 488 z m 0 0 l 54 0 b 141 87 102 0 132 36 l 217 517 b 139 608 226 566 189 608 l 0 608 b -38 304 -23 608 -38 542 b 0 0 -38 66 -23 0 z m 1163 608 b 1085 517 1113 608 1076 566 l 1161 87 b 1248 0 1170 36 1200 0 l 1302 0 l 1302 608 z m 790 0 b 877 104 839 0 885 45 l 858 226 b 766 307 849 278 816 307 l 536 307 b 444 226 486 307 453 278 l 425 104 b 512 0 417 45 464 0 z "},"Ç":{"ha":1302,"x_min":0,"x_max":0,"o":"m 101 832 b 490 1207 151 1002 302 1149 b 561 1267 540 1222 561 1241 b 509 1302 561 1286 547 1302 l 0 1302 l 0 694 b 101 832 40 694 68 720 z m 1078 694 l 1302 694 l 1302 1302 l 793 1302 b 741 1267 755 1302 741 1286 b 813 1207 741 1241 762 1222 b 1153 946 958 1161 1085 1064 b 1128 833 1186 891 1167 852 l 1064 802 b 1010 747 1021 781 1009 764 b 1078 694 1010 720 1033 694 z m 938 651 b 651 976 938 885 814 976 b 328 651 495 976 328 847 b 651 396 328 497 495 396 b 938 651 814 396 938 467 z m 472 172 b 101 470 297 220 142 328 b 0 608 68 582 40 608 l 0 0 l 326 0 b 425 45 373 0 401 14 l 476 111 b 472 172 493 134 509 161 z m 826 170 b 790 128 800 161 793 144 l 774 63 b 847 0 766 24 792 0 l 1302 0 l 1302 608 l 1078 608 b 1010 556 1033 608 1010 582 b 1064 500 1009 538 1021 521 l 1128 469 b 1153 356 1167 450 1186 411 b 826 170 1099 262 953 214 z "},"É":{"ha":1302,"x_min":0,"x_max":0,"o":"m 1222 1017 b 1142 922 1219 969 1210 922 l 543 922 b 457 835 495 922 457 884 l 457 781 b 543 694 457 733 495 694 l 1302 694 l 1302 1302 l 976 1302 b 877 1257 929 1302 901 1288 l 826 1191 b 873 1128 802 1160 818 1128 l 1156 1128 b 1222 1042 1205 1128 1222 1090 z m 0 694 l 104 694 b 191 781 153 694 191 733 l 191 1042 b 257 1128 191 1090 208 1128 l 425 1128 b 512 1174 472 1128 503 1135 l 528 1240 b 455 1302 536 1278 510 1302 l 0 1302 b -38 998 -23 1302 -38 1236 b 0 694 -38 760 -23 694 z m 0 0 l 104 0 b 191 87 153 0 191 38 l 191 521 b 104 608 191 569 153 608 l 0 608 b -38 304 -23 608 -38 542 b 0 0 -38 66 -23 0 z m 457 385 l 457 295 b 543 208 457 247 495 208 l 1142 208 b 1267 0 1283 208 1172 0 l 1302 0 l 1302 608 l 1094 608 b 948 476 1003 608 1016 476 l 543 476 b 457 385 495 476 457 436 z "},"Ñ":{"ha":1302,"x_min":0,"x_max":0,"o":"m 0 694 l 56 694 b 142 781 104 694 142 733 l 142 1042 b 208 1128 142 1090 160 1128 l 316 1128 b 403 1174 363 1128 401 1135 b 484 1276 406 1247 484 1245 b 424 1302 484 1293 470 1302 l 0 1302 b -38 998 -23 1302 -38 1236 b 0 694 -38 760 -23 694 z m 1101 1128 b 1167 1042 1149 1128 1167 1090 l 1167 781 b 1253 694 1167 733 1205 694 l 1302 694 l 1302 1302 l 986 1302 b 899 1257 939 1302 901 1295 b 753 1128 894 1165 839 1128 z m 797 1276 b 769 1302 797 1292 786 1302 l 703 1302 b 674 1285 682 1302 674 1295 b 767 1248 674 1267 726 1248 b 797 1276 783 1248 797 1260 z m 505 1155 b 533 1128 505 1139 516 1128 l 599 1128 b 628 1146 620 1128 628 1135 b 535 1182 628 1163 576 1182 b 505 1155 519 1182 505 1170 z m 752 1128 b 665 1042 686 1128 651 1092 l 856 347 b 920 260 870 297 884 260 b 964 352 953 260 964 297 l 964 1042 b 1030 1128 964 1090 981 1128 z m 345 73 b 418 0 345 30 375 0 l 557 0 b 644 87 623 0 658 36 l 453 781 b 389 868 439 832 425 868 b 345 776 356 868 345 832 z m 0 0 l 56 0 b 142 87 104 0 142 38 l 142 521 b 56 608 142 569 104 608 l 0 608 b -38 304 -23 608 -38 542 b 0 0 -38 66 -23 0 z m 1167 87 b 1253 0 1167 38 1205 0 l 1302 0 l 1302 608 l 1253 608 b 1167 521 1205 608 1167 569 z "},"Ö":{"ha":1302,"x_min":0,"x_max":0,"o":"m 0 694 b 92 795 45 694 82 724 b 300 1128 127 1031 217 1128 l 384 1128 b 408 1141 401 1128 408 1134 b 372 1215 408 1158 372 1160 b 408 1290 372 1271 408 1273 b 384 1302 408 1297 401 1302 l 0 1302 b -38 998 -23 1302 -38 1236 b 0 694 -38 760 -23 694 z m 1210 795 b 1302 694 1220 724 1257 694 l 1302 1302 l 918 1302 b 894 1290 901 1302 894 1297 b 931 1215 894 1273 931 1271 b 894 1141 931 1160 894 1158 b 918 1128 894 1134 901 1128 l 1002 1128 b 1210 795 1087 1128 1175 1031 z m 589 1128 l 714 1128 b 738 1141 731 1128 738 1134 b 701 1215 738 1158 701 1160 b 738 1290 701 1271 738 1273 b 714 1302 738 1297 731 1302 l 589 1302 b 564 1290 571 1302 564 1297 b 601 1215 564 1273 601 1271 b 564 1141 601 1160 564 1158 b 589 1128 564 1134 571 1128 z m 616 988 b 330 649 427 988 330 868 b 651 292 330 457 476 292 b 974 649 828 292 974 457 b 688 988 974 868 878 988 z m 0 0 l 509 0 b 561 35 547 0 561 16 b 490 78 561 54 538 68 b 82 507 290 120 130 252 b 0 608 69 575 40 608 b -38 304 -23 608 -38 542 b 0 0 -38 66 -23 0 z m 1220 507 b 813 78 1174 252 1012 120 b 741 35 764 68 741 54 b 793 0 741 16 755 0 l 1302 0 l 1302 608 b 1220 507 1262 608 1233 575 z "},"Ü":{"ha":1302,"x_min":0,"x_max":0,"o":"m 0 694 l 104 694 b 191 781 153 694 191 733 l 191 1042 b 257 1128 191 1090 208 1128 l 384 1128 b 408 1141 401 1128 408 1134 b 372 1215 408 1158 372 1160 b 408 1290 372 1271 408 1273 b 384 1302 408 1297 401 1302 l 0 1302 b -38 998 -23 1302 -38 1236 b 0 694 -38 760 -23 694 z m 918 1128 l 1045 1128 b 1111 1042 1094 1128 1111 1090 l 1111 781 b 1198 694 1111 733 1149 694 l 1302 694 l 1302 1302 l 918 1302 b 894 1290 901 1302 894 1297 b 931 1215 894 1273 931 1271 b 894 1141 931 1160 894 1158 b 918 1128 894 1134 901 1128 z m 589 1128 l 714 1128 b 738 1141 731 1128 738 1134 b 701 1215 738 1158 701 1160 b 738 1290 701 1271 738 1273 b 714 1302 738 1297 731 1302 l 589 1302 b 564 1290 571 1302 564 1297 b 601 1215 564 1273 601 1271 b 564 1141 601 1160 564 1158 b 589 1128 564 1134 571 1128 z m 842 599 l 842 990 b 755 1076 842 1038 804 1076 l 547 1076 b 460 990 498 1076 460 1038 l 460 599 b 651 300 460 408 535 300 b 842 599 767 300 842 408 z m 0 0 l 509 0 b 549 28 538 0 549 12 b 490 78 549 49 531 64 b 214 470 352 120 247 297 b 0 608 189 597 85 608 b -38 304 -23 608 -38 542 b 0 0 -38 66 -23 0 z m 1089 470 b 813 78 1056 297 950 120 b 753 28 771 64 753 49 b 793 0 753 12 764 0 l 1302 0 l 1302 608 b 1089 470 1217 608 1113 597 z "},"á":{"ha":1302,"x_min":0,"x_max":0,"o":"m 986 1042 l 1038 776 b 1134 694 1049 726 1082 694 l 1302 694 l 1302 1302 l 976 1302 b 877 1257 929 1302 901 1288 l 826 1191 b 873 1128 802 1160 818 1128 l 908 1128 b 986 1042 957 1128 977 1089 z m 0 694 l 168 694 b 264 776 220 694 253 726 l 316 1042 b 394 1128 325 1089 345 1128 l 425 1128 b 512 1174 472 1128 503 1135 l 528 1240 b 455 1302 536 1278 510 1302 l 0 1302 b -38 998 -23 1302 -38 1236 b 0 694 -38 760 -23 694 z m 731 488 b 802 569 776 488 809 524 l 733 991 b 651 1095 722 1050 701 1095 b 569 991 602 1095 580 1050 l 500 569 b 571 488 493 524 526 488 z m 0 0 l 54 0 b 141 87 102 0 132 36 l 217 517 b 139 608 226 566 189 608 l 0 608 b -38 304 -23 608 -38 542 b 0 0 -38 66 -23 0 z m 1163 608 b 1085 517 1113 608 1076 566 l 1161 87 b 1248 0 1170 36 1200 0 l 1302 0 l 1302 608 z m 790 0 b 877 104 839 0 885 45 l 858 226 b 766 307 849 278 816 307 l 536 307 b 444 226 486 307 453 278 l 425 104 b 512 0 417 45 464 0 z "},"à":{"ha":1302,"x_min":0,"x_max":0,"o":"m 0 694 l 168 694 b 264 776 220 694 253 726 l 316 1042 b 394 1128 325 1089 345 1128 l 429 1128 b 476 1191 484 1128 500 1160 l 425 1257 b 326 1302 401 1288 373 1302 l 0 1302 b -38 998 -23 1302 -38 1236 b 0 694 -38 760 -23 694 z m 1302 1302 l 847 1302 b 774 1240 792 1302 766 1278 l 790 1174 b 877 1128 799 1135 830 1128 l 908 1128 b 986 1042 957 1128 977 1089 l 1038 776 b 1134 694 1049 726 1082 694 l 1302 694 z m 731 488 b 802 569 776 488 809 524 l 733 991 b 651 1095 722 1050 701 1095 b 569 991 602 1095 580 1050 l 500 569 b 571 488 493 524 526 488 z m 0 0 l 54 0 b 141 87 102 0 132 36 l 217 517 b 139 608 226 566 189 608 l 0 608 b -38 304 -23 608 -38 542 b 0 0 -38 66 -23 0 z m 1163 608 b 1085 517 1113 608 1076 566 l 1161 87 b 1248 0 1170 36 1200 0 l 1302 0 l 1302 608 z m 790 0 b 877 104 839 0 885 45 l 858 226 b 766 307 849 278 816 307 l 536 307 b 444 226 486 307 453 278 l 425 104 b 512 0 417 45 464 0 z "},"â":{"ha":1302,"x_min":0,"x_max":0,"o":"m 0 694 l 168 694 b 264 776 220 694 253 726 l 316 1042 b 373 1174 328 1102 352 1146 l 424 1240 b 377 1302 448 1271 432 1302 l 0 1302 b -47 1163 -19 1302 -38 1267 l -52 1125 b -56 998 -54 1087 -56 1033 b -52 870 -56 965 -54 908 l -47 832 b 0 694 -38 729 -19 694 z m 1302 694 l 1302 1302 l 925 1302 b 878 1240 870 1302 854 1271 l 929 1174 b 986 1042 950 1146 974 1102 l 1038 776 b 1134 694 1049 726 1082 694 z m 674 1128 b 712 1174 698 1128 719 1139 l 698 1248 b 651 1288 693 1280 672 1288 b 604 1250 630 1288 609 1280 l 590 1174 b 628 1128 583 1139 604 1128 z m 731 488 b 802 569 776 488 809 524 l 733 991 b 651 1095 722 1050 701 1095 b 569 991 602 1095 580 1050 l 500 569 b 571 488 493 524 526 488 z m 0 0 l 54 0 b 141 87 102 0 132 36 l 217 517 b 139 608 226 566 189 608 l 0 608 b -47 469 -19 608 -38 573 l -52 431 b -56 304 -54 392 -56 339 b -52 175 -56 271 -54 214 l -47 137 b 0 0 -38 35 -19 0 z m 1163 608 b 1085 517 1113 608 1076 566 l 1161 87 b 1248 0 1170 36 1200 0 l 1302 0 l 1302 608 z m 790 0 b 877 104 839 0 885 45 l 858 226 b 766 307 849 278 816 307 l 536 307 b 444 226 486 307 453 278 l 425 104 b 512 0 417 45 464 0 z "},"ä":{"ha":1302,"x_min":0,"x_max":0,"o":"m 0 694 l 168 694 b 264 776 220 694 253 726 l 316 1042 b 394 1128 325 1089 345 1128 l 384 1128 b 408 1141 401 1128 408 1134 b 372 1215 408 1158 372 1160 b 408 1290 372 1271 408 1273 b 384 1302 408 1297 401 1302 l 0 1302 b -38 998 -23 1302 -38 1236 b 0 694 -38 760 -23 694 z m 918 1128 l 908 1128 b 986 1042 957 1128 977 1089 l 1038 776 b 1134 694 1049 726 1082 694 l 1302 694 l 1302 1302 l 918 1302 b 894 1290 901 1302 894 1297 b 931 1215 894 1273 931 1271 b 894 1141 931 1160 894 1158 b 918 1128 894 1134 901 1128 z m 589 1128 l 714 1128 b 738 1141 731 1128 738 1134 b 701 1215 738 1158 701 1160 b 738 1290 701 1271 738 1273 b 714 1302 738 1297 731 1302 l 589 1302 b 564 1290 571 1302 564 1297 b 601 1215 564 1273 601 1271 b 564 1141 601 1160 564 1158 b 589 1128 564 1134 571 1128 z m 731 488 b 802 569 776 488 809 524 l 733 991 b 651 1095 722 1050 701 1095 b 569 991 602 1095 580 1050 l 500 569 b 571 488 493 524 526 488 z m 0 0 l 54 0 b 141 87 102 0 132 36 l 217 517 b 139 608 226 566 189 608 l 0 608 b -38 304 -23 608 -38 542 b 0 0 -38 66 -23 0 z m 1163 608 b 1085 517 1113 608 1076 566 l 1161 87 b 1248 0 1170 36 1200 0 l 1302 0 l 1302 608 z m 790 0 b 877 104 839 0 885 45 l 858 226 b 766 307 849 278 816 307 l 536 307 b 444 226 486 307 453 278 l 425 104 b 512 0 417 45 464 0 z "},"ã":{"ha":1302,"x_min":0,"x_max":0,"o":"m 986 1042 l 1038 776 b 1134 694 1049 726 1082 694 l 1302 694 l 1302 1302 l 986 1302 b 899 1257 939 1302 901 1295 b 818 1155 896 1184 818 1186 b 878 1128 818 1137 832 1128 l 908 1128 b 986 1042 957 1128 977 1089 z m 797 1276 b 769 1302 797 1292 786 1302 l 703 1302 b 674 1285 682 1302 674 1295 b 767 1248 674 1267 726 1248 b 797 1276 783 1248 797 1260 z m 0 694 l 168 694 b 264 776 220 694 253 726 l 316 1042 b 403 1174 330 1109 398 1127 b 484 1276 410 1245 484 1245 b 424 1302 484 1293 470 1302 l 0 1302 b -38 998 -23 1302 -38 1236 b 0 694 -38 760 -23 694 z m 505 1155 b 533 1128 505 1139 516 1128 l 599 1128 b 628 1146 620 1128 628 1135 b 535 1182 628 1163 576 1182 b 505 1155 519 1182 505 1170 z m 731 488 b 802 569 776 488 809 524 l 733 991 b 651 1095 722 1050 701 1095 b 569 991 602 1095 580 1050 l 500 569 b 571 488 493 524 526 488 z m 0 0 l 54 0 b 141 87 102 0 132 36 l 217 517 b 139 608 226 566 189 608 l 0 608 b -38 304 -23 608 -38 542 b 0 0 -38 66 -23 0 z m 1163 608 b 1085 517 1113 608 1076 566 l 1161 87 b 1248 0 1170 36 1200 0 l 1302 0 l 1302 608 z m 790 0 b 877 104 839 0 885 45 l 858 226 b 766 307 849 278 816 307 l 536 307 b 444 226 486 307 453 278 l 425 104 b 512 0 417 45 464 0 z "},"å":{"ha":1302,"x_min":0,"x_max":0,"o":"m 0 694 l 168 694 b 264 776 220 694 253 726 l 316 1042 b 394 1128 325 1089 345 1128 l 444 1128 b 469 1141 462 1128 469 1134 b 432 1215 469 1158 432 1160 b 469 1290 432 1271 469 1273 b 444 1302 469 1297 462 1302 l 0 1302 b -38 998 -23 1302 -38 1236 b 0 694 -38 760 -23 694 z m 858 1128 l 908 1128 b 986 1042 957 1128 977 1089 l 1038 776 b 1134 694 1049 726 1082 694 l 1302 694 l 1302 1302 l 858 1302 b 833 1290 840 1302 833 1297 b 870 1215 833 1273 870 1271 b 833 1141 870 1160 833 1158 b 858 1128 833 1134 840 1128 z m 651 1170 b 762 1215 722 1170 762 1188 b 651 1260 762 1243 722 1260 b 540 1215 582 1260 540 1243 b 651 1170 540 1188 582 1170 z m 731 488 b 802 569 776 488 809 524 l 733 991 b 651 1095 722 1050 701 1095 b 569 991 602 1095 580 1050 l 500 569 b 571 488 493 524 526 488 z m 0 0 l 54 0 b 141 87 102 0 132 36 l 217 517 b 139 608 226 566 189 608 l 0 608 b -38 304 -23 608 -38 542 b 0 0 -38 66 -23 0 z m 1163 608 b 1085 517 1113 608 1076 566 l 1161 87 b 1248 0 1170 36 1200 0 l 1302 0 l 1302 608 z m 790 0 b 877 104 839 0 885 45 l 858 226 b 766 307 849 278 816 307 l 536 307 b 444 226 486 307 453 278 l 425 104 b 512 0 417 45 464 0 z "},"ç":{"ha":1302,"x_min":0,"x_max":0,"o":"m 101 832 b 490 1207 151 1002 302 1149 b 561 1267 540 1222 561 1241 b 509 1302 561 1286 547 1302 l 0 1302 l 0 694 b 101 832 40 694 68 720 z m 1078 694 l 1302 694 l 1302 1302 l 793 1302 b 741 1267 755 1302 741 1286 b 813 1207 741 1241 762 1222 b 1153 946 958 1161 1085 1064 b 1128 833 1186 891 1167 852 l 1064 802 b 1010 747 1021 781 1009 764 b 1078 694 1010 720 1033 694 z m 938 651 b 651 976 938 885 814 976 b 328 651 495 976 328 847 b 651 396 328 497 495 396 b 938 651 814 396 938 467 z m 472 172 b 101 470 297 220 142 328 b 0 608 68 582 40 608 l 0 0 l 326 0 b 425 45 373 0 401 14 l 476 111 b 472 172 493 134 509 161 z m 826 170 b 790 128 800 161 793 144 l 774 63 b 847 0 766 24 792 0 l 1302 0 l 1302 608 l 1078 608 b 1010 556 1033 608 1010 582 b 1064 500 1009 538 1021 521 l 1128 469 b 1153 356 1167 450 1186 411 b 826 170 1099 262 953 214 z "},"é":{"ha":1302,"x_min":0,"x_max":0,"o":"m 1222 1017 b 1142 922 1219 969 1210 922 l 543 922 b 457 835 495 922 457 884 l 457 781 b 543 694 457 733 495 694 l 1302 694 l 1302 1302 l 976 1302 b 877 1257 929 1302 901 1288 l 826 1191 b 873 1128 802 1160 818 1128 l 1156 1128 b 1222 1042 1205 1128 1222 1090 z m 0 694 l 104 694 b 191 781 153 694 191 733 l 191 1042 b 257 1128 191 1090 208 1128 l 425 1128 b 512 1174 472 1128 503 1135 l 528 1240 b 455 1302 536 1278 510 1302 l 0 1302 b -38 998 -23 1302 -38 1236 b 0 694 -38 760 -23 694 z m 0 0 l 104 0 b 191 87 153 0 191 38 l 191 521 b 104 608 191 569 153 608 l 0 608 b -38 304 -23 608 -38 542 b 0 0 -38 66 -23 0 z m 457 385 l 457 295 b 543 208 457 247 495 208 l 1142 208 b 1267 0 1283 208 1172 0 l 1302 0 l 1302 608 l 1094 608 b 948 476 1003 608 1016 476 l 543 476 b 457 385 495 476 457 436 z "},"è":{"ha":1302,"x_min":0,"x_max":0,"o":"m 0 694 l 104 694 b 191 781 153 694 191 733 l 191 1042 b 257 1128 191 1090 208 1128 l 429 1128 b 476 1191 484 1128 500 1160 l 425 1257 b 326 1302 401 1288 373 1302 l 0 1302 b -38 998 -23 1302 -38 1236 b 0 694 -38 760 -23 694 z m 1222 1017 b 1142 922 1219 969 1210 922 l 543 922 b 457 835 495 922 457 884 l 457 781 b 543 694 457 733 495 694 l 1302 694 l 1302 1302 l 847 1302 b 774 1240 792 1302 766 1278 l 790 1174 b 877 1128 799 1135 830 1128 l 1156 1128 b 1222 1042 1205 1128 1222 1090 z m 0 0 l 104 0 b 191 87 153 0 191 38 l 191 521 b 104 608 191 569 153 608 l 0 608 b -38 304 -23 608 -38 542 b 0 0 -38 66 -23 0 z m 457 385 l 457 295 b 543 208 457 247 495 208 l 1142 208 b 1267 0 1283 208 1172 0 l 1302 0 l 1302 608 l 1094 608 b 948 476 1003 608 1016 476 l 543 476 b 457 385 495 476 457 436 z "},"ê":{"ha":1302,"x_min":0,"x_max":0,"o":"m 0 694 l 104 694 b 191 781 153 694 191 733 l 191 1042 b 257 1128 191 1090 208 1128 l 292 1128 b 373 1174 330 1128 351 1144 l 424 1240 b 377 1302 448 1271 432 1302 l 0 1302 b -38 998 -23 1302 -38 1236 b 0 694 -38 760 -23 694 z m 1222 1017 b 1142 922 1219 969 1210 922 l 543 922 b 457 835 495 922 457 884 l 457 781 b 543 694 457 733 495 694 l 1302 694 l 1302 1302 l 925 1302 b 878 1240 870 1302 854 1271 l 929 1174 b 1010 1128 951 1144 972 1128 l 1156 1128 b 1222 1042 1205 1128 1222 1090 z m 674 1128 b 712 1174 698 1128 719 1139 l 698 1248 b 651 1288 693 1280 672 1288 b 604 1250 630 1288 609 1280 l 590 1174 b 628 1128 583 1139 604 1128 z m 0 0 l 104 0 b 191 87 153 0 191 38 l 191 521 b 104 608 191 569 153 608 l 0 608 b -38 304 -23 608 -38 542 b 0 0 -38 66 -23 0 z m 457 385 l 457 295 b 543 208 457 247 495 208 l 1142 208 b 1267 0 1283 208 1172 0 l 1302 0 l 1302 608 l 1094 608 b 948 476 1003 608 1016 476 l 543 476 b 457 385 495 476 457 436 z "},"ë":{"ha":1302,"x_min":0,"x_max":0,"o":"m 0 694 l 104 694 b 191 781 153 694 191 733 l 191 1042 b 257 1128 191 1090 208 1128 l 384 1128 b 408 1141 401 1128 408 1134 b 372 1215 408 1158 372 1160 b 408 1290 372 1271 408 1273 b 384 1302 408 1297 401 1302 l 0 1302 b -38 998 -23 1302 -38 1236 b 0 694 -38 760 -23 694 z m 918 1128 l 1156 1128 b 1222 1042 1205 1128 1222 1090 l 1222 1017 b 1142 922 1219 969 1210 922 l 543 922 b 457 835 495 922 457 884 l 457 781 b 543 694 457 733 495 694 l 1302 694 l 1302 1302 l 918 1302 b 894 1290 901 1302 894 1297 b 931 1215 894 1273 931 1271 b 894 1141 931 1160 894 1158 b 918 1128 894 1134 901 1128 z m 589 1128 l 714 1128 b 738 1141 731 1128 738 1134 b 701 1215 738 1158 701 1160 b 738 1290 701 1271 738 1273 b 714 1302 738 1297 731 1302 l 589 1302 b 564 1290 571 1302 564 1297 b 601 1215 564 1273 601 1271 b 564 1141 601 1160 564 1158 b 589 1128 564 1134 571 1128 z m 0 0 l 104 0 b 191 87 153 0 191 38 l 191 521 b 104 608 191 569 153 608 l 0 608 b -38 304 -23 608 -38 542 b 0 0 -38 66 -23 0 z m 457 385 l 457 295 b 543 208 457 247 495 208 l 1142 208 b 1267 0 1283 208 1172 0 l 1302 0 l 1302 608 l 1094 608 b 948 476 1003 608 1016 476 l 543 476 b 457 385 495 476 457 436 z "},"í":{"ha":1302,"x_min":0,"x_max":0,"o":"m 0 694 l 434 694 b 521 781 483 694 521 733 l 521 800 b 434 887 521 849 483 887 l 160 887 b 80 983 92 887 80 934 l 80 1042 b 146 1128 80 1090 97 1128 l 425 1128 b 512 1174 472 1128 503 1135 l 528 1240 b 455 1302 536 1278 510 1302 l 0 1302 b -38 998 -23 1302 -38 1236 b 0 694 -38 760 -23 694 z m 1142 887 l 868 887 b 781 800 819 887 781 849 l 781 781 b 868 694 781 733 819 694 l 1302 694 l 1302 1302 l 976 1302 b 877 1257 929 1302 901 1288 l 826 1191 b 873 1128 802 1160 818 1128 l 1156 1128 b 1222 1042 1205 1128 1222 1090 l 1222 983 b 1142 887 1222 934 1210 887 z m 781 521 l 781 328 b 868 241 781 280 819 241 l 1057 241 b 1302 0 1257 241 1137 0 l 1302 608 l 868 608 b 781 521 819 608 781 569 z m 0 0 b 245 241 163 0 45 241 l 434 241 b 521 328 483 241 521 280 l 521 521 b 434 608 521 569 483 608 l 0 608 b -38 304 -23 608 -38 542 b 0 0 -38 66 -23 0 z "},"ì":{"ha":1302,"x_min":0,"x_max":0,"o":"m 0 694 l 434 694 b 521 781 483 694 521 733 l 521 800 b 434 887 521 849 483 887 l 160 887 b 80 983 92 887 80 934 l 80 1042 b 146 1128 80 1090 97 1128 l 429 1128 b 476 1191 484 1128 500 1160 l 425 1257 b 326 1302 401 1288 373 1302 l 0 1302 b -38 998 -23 1302 -38 1236 b 0 694 -38 760 -23 694 z m 1142 887 l 868 887 b 781 800 819 887 781 849 l 781 781 b 868 694 781 733 819 694 l 1302 694 l 1302 1302 l 847 1302 b 774 1240 792 1302 766 1278 l 790 1174 b 877 1128 799 1135 830 1128 l 1156 1128 b 1222 1042 1205 1128 1222 1090 l 1222 983 b 1142 887 1222 934 1210 887 z m 781 521 l 781 328 b 868 241 781 280 819 241 l 1057 241 b 1302 0 1257 241 1137 0 l 1302 608 l 868 608 b 781 521 819 608 781 569 z m 0 0 b 245 241 163 0 45 241 l 434 241 b 521 328 483 241 521 280 l 521 521 b 434 608 521 569 483 608 l 0 608 b -38 304 -23 608 -38 542 b 0 0 -38 66 -23 0 z "},"î":{"ha":1302,"x_min":0,"x_max":0,"o":"m 0 694 l 434 694 b 521 781 483 694 521 733 l 521 800 b 434 887 521 849 483 887 l 160 887 b 80 983 92 887 80 934 l 80 1042 b 146 1128 80 1090 97 1128 l 292 1128 b 373 1174 330 1128 351 1144 l 424 1240 b 377 1302 448 1271 432 1302 l 0 1302 b -38 998 -23 1302 -38 1236 b 0 694 -38 760 -23 694 z m 1142 887 l 868 887 b 781 800 819 887 781 849 l 781 781 b 868 694 781 733 819 694 l 1302 694 l 1302 1302 l 925 1302 b 878 1240 870 1302 854 1271 l 929 1174 b 1010 1128 951 1144 972 1128 l 1156 1128 b 1222 1042 1205 1128 1222 1090 l 1222 983 b 1142 887 1222 934 1210 887 z m 674 1128 b 712 1174 698 1128 719 1139 l 698 1248 b 651 1288 693 1280 672 1288 b 604 1250 630 1288 609 1280 l 590 1174 b 628 1128 583 1139 604 1128 z m 781 521 l 781 328 b 868 241 781 280 819 241 l 1057 241 b 1302 0 1257 241 1137 0 l 1302 608 l 868 608 b 781 521 819 608 781 569 z m 0 0 b 245 241 163 0 45 241 l 434 241 b 521 328 483 241 521 280 l 521 521 b 434 608 521 569 483 608 l 0 608 b -38 304 -23 608 -38 542 b 0 0 -38 66 -23 0 z "},"ï":{"ha":1302,"x_min":0,"x_max":0,"o":"m 0 694 l 434 694 b 521 781 483 694 521 733 l 521 800 b 434 887 521 849 483 887 l 160 887 b 80 983 92 887 80 934 l 80 1042 b 146 1128 80 1090 97 1128 l 384 1128 b 408 1141 401 1128 408 1134 b 372 1215 408 1158 372 1160 b 408 1290 372 1271 408 1273 b 384 1302 408 1297 401 1302 l 0 1302 b -38 998 -23 1302 -38 1236 b 0 694 -38 760 -23 694 z m 1142 887 l 868 887 b 781 800 819 887 781 849 l 781 781 b 868 694 781 733 819 694 l 1302 694 l 1302 1302 l 918 1302 b 894 1290 901 1302 894 1297 b 931 1215 894 1273 931 1271 b 894 1141 931 1160 894 1158 b 918 1128 894 1134 901 1128 l 1156 1128 b 1222 1042 1205 1128 1222 1090 l 1222 983 b 1142 887 1222 934 1210 887 z m 589 1128 l 714 1128 b 738 1141 731 1128 738 1134 b 701 1215 738 1158 701 1160 b 738 1290 701 1271 738 1273 b 714 1302 738 1297 731 1302 l 589 1302 b 564 1290 571 1302 564 1297 b 601 1215 564 1273 601 1271 b 564 1141 601 1160 564 1158 b 589 1128 564 1134 571 1128 z m 781 521 l 781 328 b 868 241 781 280 819 241 l 1057 241 b 1302 0 1257 241 1137 0 l 1302 608 l 868 608 b 781 521 819 608 781 569 z m 0 0 b 245 241 163 0 45 241 l 434 241 b 521 328 483 241 521 280 l 521 521 b 434 608 521 569 483 608 l 0 608 b -38 304 -23 608 -38 542 b 0 0 -38 66 -23 0 z "},"ñ":{"ha":1302,"x_min":0,"x_max":0,"o":"m 0 694 l 56 694 b 142 781 104 694 142 733 l 142 1042 b 208 1128 142 1090 160 1128 l 316 1128 b 403 1174 363 1128 401 1135 b 484 1276 406 1247 484 1245 b 424 1302 484 1293 470 1302 l 0 1302 b -38 998 -23 1302 -38 1236 b 0 694 -38 760 -23 694 z m 1101 1128 b 1167 1042 1149 1128 1167 1090 l 1167 781 b 1253 694 1167 733 1205 694 l 1302 694 l 1302 1302 l 986 1302 b 899 1257 939 1302 901 1295 b 753 1128 894 1165 839 1128 z m 797 1276 b 769 1302 797 1292 786 1302 l 703 1302 b 674 1285 682 1302 674 1295 b 767 1248 674 1267 726 1248 b 797 1276 783 1248 797 1260 z m 505 1155 b 533 1128 505 1139 516 1128 l 599 1128 b 628 1146 620 1128 628 1135 b 535 1182 628 1163 576 1182 b 505 1155 519 1182 505 1170 z m 752 1128 b 665 1042 686 1128 651 1092 l 856 347 b 920 260 870 297 884 260 b 964 352 953 260 964 297 l 964 1042 b 1030 1128 964 1090 981 1128 z m 345 73 b 418 0 345 30 375 0 l 557 0 b 644 87 623 0 658 36 l 453 781 b 389 868 439 832 425 868 b 345 776 356 868 345 832 z m 0 0 l 56 0 b 142 87 104 0 142 38 l 142 521 b 56 608 142 569 104 608 l 0 608 b -38 304 -23 608 -38 542 b 0 0 -38 66 -23 0 z m 1167 87 b 1253 0 1167 38 1205 0 l 1302 0 l 1302 608 l 1253 608 b 1167 521 1205 608 1167 569 z "},"ó":{"ha":1302,"x_min":0,"x_max":0,"o":"m 1210 795 b 1302 694 1220 724 1257 694 l 1302 1302 l 976 1302 b 877 1257 929 1302 901 1288 l 826 1191 b 873 1128 802 1160 818 1128 l 1002 1128 b 1210 795 1087 1128 1175 1031 z m 0 694 b 92 795 45 694 82 724 b 300 1128 127 1031 217 1128 l 425 1128 b 512 1174 472 1128 503 1135 l 528 1240 b 455 1302 536 1278 510 1302 l 0 1302 b -38 998 -23 1302 -38 1236 b 0 694 -38 760 -23 694 z m 616 988 b 330 649 427 988 330 868 b 651 292 330 457 476 292 b 974 649 828 292 974 457 b 688 988 974 868 878 988 z m 0 0 l 509 0 b 561 35 547 0 561 16 b 490 78 561 54 538 68 b 82 507 290 120 130 252 b 0 608 69 575 40 608 b -38 304 -23 608 -38 542 b 0 0 -38 66 -23 0 z m 1220 507 b 813 78 1174 252 1012 120 b 741 35 764 68 741 54 b 793 0 741 16 755 0 l 1302 0 l 1302 608 b 1220 507 1262 608 1233 575 z "},"ò":{"ha":1302,"x_min":0,"x_max":0,"o":"m 0 694 b 92 795 45 694 82 724 b 300 1128 127 1031 217 1128 l 429 1128 b 476 1191 484 1128 500 1160 l 425 1257 b 326 1302 401 1288 373 1302 l 0 1302 b -38 998 -23 1302 -38 1236 b 0 694 -38 760 -23 694 z m 1210 795 b 1302 694 1220 724 1257 694 l 1302 1302 l 847 1302 b 774 1240 792 1302 766 1278 l 790 1174 b 877 1128 799 1135 830 1128 l 1002 1128 b 1210 795 1087 1128 1175 1031 z m 616 988 b 330 649 427 988 330 868 b 651 292 330 457 476 292 b 974 649 828 292 974 457 b 688 988 974 868 878 988 z m 0 0 l 509 0 b 561 35 547 0 561 16 b 490 78 561 54 538 68 b 82 507 290 120 130 252 b 0 608 69 575 40 608 b -38 304 -23 608 -38 542 b 0 0 -38 66 -23 0 z m 1220 507 b 813 78 1174 252 1012 120 b 741 35 764 68 741 54 b 793 0 741 16 755 0 l 1302 0 l 1302 608 b 1220 507 1262 608 1233 575 z "},"ô":{"ha":1302,"x_min":0,"x_max":0,"o":"m 0 694 b 92 795 45 694 82 724 b 300 1128 127 1031 217 1128 l 292 1128 b 373 1174 330 1128 351 1144 l 424 1240 b 377 1302 448 1271 432 1302 l 0 1302 b -38 998 -23 1302 -38 1236 b 0 694 -38 760 -23 694 z m 1210 795 b 1302 694 1220 724 1257 694 l 1302 1302 l 925 1302 b 878 1240 870 1302 854 1271 l 929 1174 b 1010 1128 951 1144 972 1128 l 1002 1128 b 1210 795 1087 1128 1175 1031 z m 674 1128 b 712 1174 698 1128 719 1139 l 698 1248 b 651 1288 693 1280 672 1288 b 604 1250 630 1288 609 1280 l 590 1174 b 628 1128 583 1139 604 1128 z m 616 988 b 330 649 427 988 330 868 b 651 292 330 457 476 292 b 974 649 828 292 974 457 b 688 988 974 868 878 988 z m 0 0 l 509 0 b 561 35 547 0 561 16 b 490 78 561 54 538 68 b 82 507 290 120 130 252 b 0 608 69 575 40 608 b -38 304 -23 608 -38 542 b 0 0 -38 66 -23 0 z m 1220 507 b 813 78 1174 252 1012 120 b 741 35 764 68 741 54 b 793 0 741 16 755 0 l 1302 0 l 1302 608 b 1220 507 1262 608 1233 575 z "},"ö":{"ha":1302,"x_min":0,"x_max":0,"o":"m 0 694 b 92 795 45 694 82 724 b 300 1128 127 1031 217 1128 l 384 1128 b 408 1141 401 1128 408 1134 b 372 1215 408 1158 372 1160 b 408 1290 372 1271 408 1273 b 384 1302 408 1297 401 1302 l 0 1302 b -38 998 -23 1302 -38 1236 b 0 694 -38 760 -23 694 z m 1210 795 b 1302 694 1220 724 1257 694 l 1302 1302 l 918 1302 b 894 1290 901 1302 894 1297 b 931 1215 894 1273 931 1271 b 894 1141 931 1160 894 1158 b 918 1128 894 1134 901 1128 l 1002 1128 b 1210 795 1087 1128 1175 1031 z m 589 1128 l 714 1128 b 738 1141 731 1128 738 1134 b 701 1215 738 1158 701 1160 b 738 1290 701 1271 738 1273 b 714 1302 738 1297 731 1302 l 589 1302 b 564 1290 571 1302 564 1297 b 601 1215 564 1273 601 1271 b 564 1141 601 1160 564 1158 b 589 1128 564 1134 571 1128 z m 616 988 b 330 649 427 988 330 868 b 651 292 330 457 476 292 b 974 649 828 292 974 457 b 688 988 974 868 878 988 z m 0 0 l 509 0 b 561 35 547 0 561 16 b 490 78 561 54 538 68 b 82 507 290 120 130 252 b 0 608 69 575 40 608 b -38 304 -23 608 -38 542 b 0 0 -38 66 -23 0 z m 1220 507 b 813 78 1174 252 1012 120 b 741 35 764 68 741 54 b 793 0 741 16 755 0 l 1302 0 l 1302 608 b 1220 507 1262 608 1233 575 z "},"õ":{"ha":1302,"x_min":0,"x_max":0,"o":"m 0 694 b 92 795 45 694 82 724 b 300 1128 127 1031 217 1128 l 316 1128 b 403 1174 363 1128 401 1135 b 484 1276 406 1247 484 1245 b 424 1302 484 1293 470 1302 l 0 1302 b -38 998 -23 1302 -38 1236 b 0 694 -38 760 -23 694 z m 1210 795 b 1302 694 1220 724 1257 694 l 1302 1302 l 986 1302 b 899 1257 939 1302 901 1295 b 818 1155 896 1184 818 1186 b 878 1128 818 1137 832 1128 l 1002 1128 b 1210 795 1087 1128 1175 1031 z m 797 1276 b 769 1302 797 1292 786 1302 l 703 1302 b 674 1285 682 1302 674 1295 b 767 1248 674 1267 726 1248 b 797 1276 783 1248 797 1260 z m 505 1155 b 533 1128 505 1139 516 1128 l 599 1128 b 628 1146 620 1128 628 1135 b 535 1182 628 1163 576 1182 b 505 1155 519 1182 505 1170 z m 616 988 b 330 649 427 988 330 868 b 651 292 330 457 476 292 b 974 649 828 292 974 457 b 688 988 974 868 878 988 z m 0 0 l 509 0 b 561 35 547 0 561 16 b 490 78 561 54 538 68 b 82 507 290 120 130 252 b 0 608 69 575 40 608 b -38 304 -23 608 -38 542 b 0 0 -38 66 -23 0 z m 1220 507 b 813 78 1174 252 1012 120 b 741 35 764 68 741 54 b 793 0 741 16 755 0 l 1302 0 l 1302 608 b 1220 507 1262 608 1233 575 z "},"ú":{"ha":1302,"x_min":0,"x_max":0,"o":"m 1302 694 l 1302 1302 l 976 1302 b 877 1257 929 1302 901 1288 l 826 1191 b 873 1128 802 1160 818 1128 l 1045 1128 b 1111 1042 1094 1128 1111 1090 l 1111 781 b 1198 694 1111 733 1149 694 z m 0 694 l 104 694 b 191 781 153 694 191 733 l 191 1042 b 257 1128 191 1090 208 1128 l 425 1128 b 512 1174 472 1128 503 1135 l 528 1240 b 455 1302 536 1278 510 1302 l 0 1302 b -38 998 -23 1302 -38 1236 b 0 694 -38 760 -23 694 z m 842 599 l 842 990 b 755 1076 842 1038 804 1076 l 547 1076 b 460 990 498 1076 460 1038 l 460 599 b 651 300 460 408 535 300 b 842 599 767 300 842 408 z m 0 0 l 509 0 b 549 28 538 0 549 12 b 490 78 549 49 531 64 b 214 470 352 120 247 297 b 0 608 189 597 85 608 b -38 304 -23 608 -38 542 b 0 0 -38 66 -23 0 z m 1089 470 b 813 78 1056 297 950 120 b 753 28 771 64 753 49 b 793 0 753 12 764 0 l 1302 0 l 1302 608 b 1089 470 1217 608 1113 597 z "},"ù":{"ha":1302,"x_min":0,"x_max":0,"o":"m 0 694 l 104 694 b 191 781 153 694 191 733 l 191 1042 b 257 1128 191 1090 208 1128 l 429 1128 b 476 1191 484 1128 500 1160 l 425 1257 b 326 1302 401 1288 373 1302 l 0 1302 b -38 998 -23 1302 -38 1236 b 0 694 -38 760 -23 694 z m 1302 694 l 1302 1302 l 847 1302 b 774 1240 792 1302 766 1278 l 790 1174 b 877 1128 799 1135 830 1128 l 1045 1128 b 1111 1042 1094 1128 1111 1090 l 1111 781 b 1198 694 1111 733 1149 694 z m 842 599 l 842 990 b 755 1076 842 1038 804 1076 l 547 1076 b 460 990 498 1076 460 1038 l 460 599 b 651 300 460 408 535 300 b 842 599 767 300 842 408 z m 0 0 l 509 0 b 549 28 538 0 549 12 b 490 78 549 49 531 64 b 214 470 352 120 247 297 b 0 608 189 597 85 608 b -38 304 -23 608 -38 542 b 0 0 -38 66 -23 0 z m 1089 470 b 813 78 1056 297 950 120 b 753 28 771 64 753 49 b 793 0 753 12 764 0 l 1302 0 l 1302 608 b 1089 470 1217 608 1113 597 z "},"û":{"ha":1302,"x_min":0,"x_max":0,"o":"m 0 694 l 104 694 b 191 781 153 694 191 733 l 191 1042 b 257 1128 191 1090 208 1128 l 292 1128 b 373 1174 330 1128 351 1144 l 424 1240 b 377 1302 448 1271 432 1302 l 0 1302 b -38 998 -23 1302 -38 1236 b 0 694 -38 760 -23 694 z m 1302 694 l 1302 1302 l 925 1302 b 878 1240 870 1302 854 1271 l 929 1174 b 1010 1128 951 1144 972 1128 l 1045 1128 b 1111 1042 1094 1128 1111 1090 l 1111 781 b 1198 694 1111 733 1149 694 z m 674 1128 b 712 1174 698 1128 719 1139 l 698 1248 b 651 1288 693 1280 672 1288 b 604 1250 630 1288 609 1280 l 590 1174 b 628 1128 583 1139 604 1128 z m 842 599 l 842 990 b 755 1076 842 1038 804 1076 l 547 1076 b 460 990 498 1076 460 1038 l 460 599 b 651 300 460 408 535 300 b 842 599 767 300 842 408 z m 0 0 l 509 0 b 549 28 538 0 549 12 b 490 78 549 49 531 64 b 214 470 352 120 247 297 b 0 608 189 597 85 608 b -38 304 -23 608 -38 542 b 0 0 -38 66 -23 0 z m 1089 470 b 813 78 1056 297 950 120 b 753 28 771 64 753 49 b 793 0 753 12 764 0 l 1302 0 l 1302 608 b 1089 470 1217 608 1113 597 z "},"ü":{"ha":1302,"x_min":0,"x_max":0,"o":"m 0 694 l 104 694 b 191 781 153 694 191 733 l 191 1042 b 257 1128 191 1090 208 1128 l 384 1128 b 408 1141 401 1128 408 1134 b 372 1215 408 1158 372 1160 b 408 1290 372 1271 408 1273 b 384 1302 408 1297 401 1302 l 0 1302 b -38 998 -23 1302 -38 1236 b 0 694 -38 760 -23 694 z m 918 1128 l 1045 1128 b 1111 1042 1094 1128 1111 1090 l 1111 781 b 1198 694 1111 733 1149 694 l 1302 694 l 1302 1302 l 918 1302 b 894 1290 901 1302 894 1297 b 931 1215 894 1273 931 1271 b 894 1141 931 1160 894 1158 b 918 1128 894 1134 901 1128 z m 589 1128 l 714 1128 b 738 1141 731 1128 738 1134 b 701 1215 738 1158 701 1160 b 738 1290 701 1271 738 1273 b 714 1302 738 1297 731 1302 l 589 1302 b 564 1290 571 1302 564 1297 b 601 1215 564 1273 601 1271 b 564 1141 601 1160 564 1158 b 589 1128 564 1134 571 1128 z m 842 599 l 842 990 b 755 1076 842 1038 804 1076 l 547 1076 b 460 990 498 1076 460 1038 l 460 599 b 651 300 460 408 535 300 b 842 599 767 300 842 408 z m 0 0 l 509 0 b 549 28 538 0 549 12 b 490 78 549 49 531 64 b 214 470 352 120 247 297 b 0 608 189 597 85 608 b -38 304 -23 608 -38 542 b 0 0 -38 66 -23 0 z m 1089 470 b 813 78 1056 297 950 120 b 753 28 771 64 753 49 b 793 0 753 12 764 0 l 1302 0 l 1302 608 b 1089 470 1217 608 1113 597 z "},"°":{"ha":651,"x_min":0,"x_max":0,"o":"m 0 694 l 226 694 b 276 722 262 694 276 701 b 241 757 276 736 271 745 b 94 972 156 792 94 875 b 325 1205 94 1099 198 1205 b 557 972 453 1205 557 1099 b 410 757 557 875 495 792 b 375 722 380 745 375 736 b 425 694 375 701 389 694 l 651 694 l 651 1302 l 0 1302 b -38 998 -23 1302 -38 1236 b 0 694 -38 760 -23 694 z m 326 892 b 408 974 370 892 408 929 b 326 1056 408 1017 370 1056 b 245 974 281 1056 245 1017 b 326 892 245 929 281 892 z m 0 0 l 651 0 l 651 608 l 0 608 b -38 304 -23 608 -38 542 b 0 0 -38 66 -23 0 z "},"•":{"ha":1302,"x_min":0,"x_max":0,"o":"m 0 694 l 87 694 b 253 804 179 694 224 726 b 651 1080 316 965 472 1080 b 1049 804 830 1080 986 965 b 1215 694 1078 726 1123 694 l 1302 694 l 1302 1302 l 0 1302 b -38 998 -23 1302 -38 1236 b 0 694 -38 760 -23 694 z m 0 0 l 1302 0 l 1302 608 l 1215 608 b 1049 498 1123 608 1078 576 b 651 222 986 337 830 222 b 253 498 472 222 316 337 b 87 608 224 576 179 608 l 0 608 b -38 304 -23 608 -38 542 b 0 0 -38 66 -23 0 z "},"ß":{"ha":1302,"x_min":0,"x_max":0,"o":"m 564 1151 l 564 1137 b 526 1063 564 1089 550 1063 b 410 1071 498 1063 446 1071 b 309 958 352 1071 309 1021 b 380 799 309 903 342 849 b 549 694 431 733 491 694 l 767 694 b 792 733 793 694 802 714 b 720 934 747 790 720 858 b 964 1264 720 1109 845 1231 b 986 1286 983 1269 986 1278 b 969 1302 986 1295 979 1302 l 578 1302 b 519 1281 536 1302 519 1295 b 564 1151 519 1257 564 1264 z m 1215 1151 l 1215 1137 b 1177 1063 1215 1089 1201 1063 b 1061 1071 1149 1063 1097 1071 b 960 958 1003 1071 960 1021 b 1031 799 960 903 993 849 b 1200 694 1082 733 1142 694 l 1302 694 l 1302 1302 l 1229 1302 b 1170 1281 1188 1302 1170 1295 b 1215 1151 1170 1257 1215 1264 z m 0 694 l 116 694 b 141 733 142 694 151 714 b 69 934 95 790 69 858 b 313 1264 69 1109 194 1231 b 335 1286 332 1269 335 1278 b 318 1302 335 1295 328 1302 l 0 1302 b -38 998 -23 1302 -38 1236 b 0 694 -38 760 -23 694 z m 703 156 l 703 208 b 729 252 703 233 708 252 b 943 219 766 252 851 219 b 1030 318 993 219 1030 260 b 901 524 1030 392 944 484 b 651 608 839 582 755 608 l 552 608 b 531 576 526 608 521 590 b 613 356 582 516 613 444 b 455 38 613 231 556 92 b 465 0 434 28 444 0 l 736 0 b 762 21 753 0 762 10 b 703 156 762 64 703 52 z m 1302 0 l 1302 608 l 1203 608 b 1182 576 1177 608 1172 590 b 1264 356 1233 516 1264 444 b 1106 38 1264 231 1207 92 b 1116 0 1085 28 1095 0 z m 0 0 l 85 0 b 111 21 102 0 111 10 b 52 156 111 64 52 52 l 52 208 b 78 252 52 233 57 252 b 292 219 115 252 200 219 b 378 318 342 219 378 260 b 250 524 378 392 293 484 b 0 608 188 582 104 608 b -38 304 -23 608 -38 542 b 0 0 -38 66 -23 0 z "},"´":{"ha":1302,"x_min":0,"x_max":0,"o":"m 1302 1128 l 1302 1302 l 976 1302 b 877 1257 929 1302 901 1288 l 826 1191 b 873 1128 802 1160 818 1128 z m 0 1302 l 0 1128 l 425 1128 b 512 1174 472 1128 503 1135 l 528 1240 b 455 1302 536 1278 510 1302 z "},"¨":{"ha":1302,"x_min":0,"x_max":0,"o":"m 384 1128 b 408 1141 401 1128 408 1134 b 372 1215 408 1158 372 1160 b 408 1290 372 1271 408 1273 b 384 1302 408 1297 401 1302 l 0 1302 l 0 1128 z m 918 1128 l 1302 1128 l 1302 1302 l 918 1302 b 894 1290 901 1302 894 1297 b 931 1215 894 1273 931 1271 b 894 1141 931 1160 894 1158 b 918 1128 894 1134 901 1128 z m 589 1128 l 714 1128 b 738 1141 731 1128 738 1134 b 701 1215 738 1158 701 1160 b 738 1290 701 1271 738 1273 b 714 1302 738 1297 731 1302 l 589 1302 b 564 1290 571 1302 564 1297 b 601 1215 564 1273 601 1271 b 564 1141 601 1160 564 1158 b 589 1128 564 1134 571 1128 z "},"Æ":{"ha":1953,"x_min":0,"x_max":0,"o":"m 0 694 l 153 694 b 248 776 205 694 240 724 l 316 1215 b 229 1302 323 1266 295 1302 l 0 1302 b -38 998 -23 1302 -38 1236 b 0 694 -38 760 -23 694 z m 1050 849 b 1137 762 1057 800 1089 762 l 1599 762 b 1745 694 1667 762 1655 694 l 1953 694 l 1953 1302 l 1832 1302 b 1707 1095 1736 1302 1847 1095 l 1113 1095 b 1026 1009 1064 1095 1019 1057 z m 745 488 b 816 569 790 488 821 524 l 741 1165 b 655 1269 734 1224 703 1269 l 649 1269 b 563 1165 601 1269 569 1224 l 488 569 b 559 488 483 524 514 488 z m 0 0 l 56 0 b 142 87 104 0 135 36 l 208 517 b 130 608 215 566 181 608 l 0 608 b -38 304 -23 608 -38 542 b 0 0 -38 66 -23 0 z m 1111 453 l 1135 295 b 1222 208 1142 247 1174 208 l 1793 208 b 1918 0 1934 208 1823 0 l 1953 0 l 1953 608 l 1745 608 b 1599 543 1655 608 1667 543 l 1198 543 b 1111 453 1149 543 1104 503 z m 533 307 b 441 226 483 307 448 278 l 425 104 b 512 0 418 45 464 0 l 790 0 b 877 104 839 0 884 45 l 861 226 b 769 307 854 278 819 307 z "},"Ø":{"ha":1302,"x_min":0,"x_max":0,"o":"m 0 694 b 101 832 40 694 68 720 b 490 1207 151 1002 302 1149 b 561 1267 540 1222 561 1241 b 509 1302 561 1286 547 1302 l 0 1302 b -38 998 -23 1302 -38 1236 b 0 694 -38 760 -23 694 z m 1201 832 b 1302 694 1234 720 1262 694 l 1302 1302 b 1208 1241 1269 1302 1238 1276 l 1113 1128 b 1106 1010 1080 1089 1071 1047 b 1201 832 1153 960 1182 896 z m 1066 1302 l 793 1302 b 741 1267 755 1302 741 1286 b 813 1207 741 1241 762 1222 b 929 1158 854 1194 894 1179 b 1030 1168 972 1132 1002 1135 l 1094 1245 b 1066 1302 1120 1274 1109 1302 z m 557 727 b 641 766 578 753 609 767 b 707 788 653 766 682 759 l 788 885 b 774 953 814 915 799 944 b 401 861 642 1003 491 969 b 375 479 309 750 304 597 b 444 476 389 455 415 441 l 528 573 b 536 641 549 599 540 628 b 557 727 530 672 536 703 z m 743 571 b 661 536 722 547 693 535 b 595 516 649 538 618 542 l 514 417 b 530 349 484 382 503 358 b 901 441 658 300 809 332 b 927 825 991 549 998 703 b 858 826 915 847 884 858 l 776 729 b 766 661 752 700 764 672 b 743 571 774 630 764 597 z m 1201 470 b 813 95 1151 300 1000 153 b 741 35 762 80 741 61 b 793 0 741 16 755 0 l 1302 0 l 1302 608 b 1201 470 1262 608 1234 582 z m 0 0 b 94 61 33 0 64 26 l 189 174 b 196 292 222 214 231 255 b 101 470 149 342 120 406 b 0 608 68 582 40 608 b -38 304 -23 608 -38 542 b 0 0 -38 66 -23 0 z m 236 0 l 509 0 b 561 35 547 0 561 16 b 490 95 561 61 540 80 b 373 144 448 108 408 123 b 273 134 330 170 300 167 l 208 57 b 236 0 182 28 193 0 z "},"±":{"ha":1302,"x_min":0,"x_max":0,"o":"m 0 694 l 104 694 b 250 861 194 694 182 861 l 446 861 b 516 931 488 861 516 889 l 516 1108 b 582 1194 516 1156 533 1194 l 720 1194 b 786 1108 769 1194 786 1156 l 786 931 b 856 861 786 889 814 861 l 1052 861 b 1198 694 1120 861 1108 694 l 1302 694 l 1302 1302 l 0 1302 b -38 998 -23 1302 -38 1236 b 0 694 -38 760 -23 694 z m 0 0 l 104 0 b 288 219 194 0 182 219 l 1014 219 b 1198 0 1120 219 1108 0 l 1302 0 l 1302 608 l 856 608 b 786 538 814 608 786 580 l 786 413 b 720 326 786 365 769 326 l 582 326 b 516 413 533 326 516 365 l 516 538 b 446 608 516 580 488 608 l 0 608 b -38 304 -23 608 -38 542 b 0 0 -38 66 -23 0 z "},"æ":{"ha":1953,"x_min":0,"x_max":0,"o":"m 0 694 l 153 694 b 248 776 205 694 240 724 l 316 1215 b 229 1302 323 1266 295 1302 l 0 1302 b -38 998 -23 1302 -38 1236 b 0 694 -38 760 -23 694 z m 1050 849 b 1137 762 1057 800 1089 762 l 1599 762 b 1745 694 1667 762 1655 694 l 1953 694 l 1953 1302 l 1832 1302 b 1707 1095 1736 1302 1847 1095 l 1113 1095 b 1026 1009 1064 1095 1019 1057 z m 745 488 b 816 569 790 488 821 524 l 741 1165 b 655 1269 734 1224 703 1269 l 649 1269 b 563 1165 601 1269 569 1224 l 488 569 b 559 488 483 524 514 488 z m 0 0 l 56 0 b 142 87 104 0 135 36 l 208 517 b 130 608 215 566 181 608 l 0 608 b -38 304 -23 608 -38 542 b 0 0 -38 66 -23 0 z m 1111 453 l 1135 295 b 1222 208 1142 247 1174 208 l 1793 208 b 1918 0 1934 208 1823 0 l 1953 0 l 1953 608 l 1745 608 b 1599 543 1655 608 1667 543 l 1198 543 b 1111 453 1149 543 1104 503 z m 533 307 b 441 226 483 307 448 278 l 425 104 b 512 0 418 45 464 0 l 790 0 b 877 104 839 0 884 45 l 861 226 b 769 307 854 278 819 307 z "},"ø":{"ha":1302,"x_min":0,"x_max":0,"o":"m 0 694 b 101 832 40 694 68 720 b 490 1207 151 1002 302 1149 b 561 1267 540 1222 561 1241 b 509 1302 561 1286 547 1302 l 0 1302 b -38 998 -23 1302 -38 1236 b 0 694 -38 760 -23 694 z m 1201 832 b 1302 694 1234 720 1262 694 l 1302 1302 b 1208 1241 1269 1302 1238 1276 l 1113 1128 b 1106 1010 1080 1089 1071 1047 b 1201 832 1153 960 1182 896 z m 1066 1302 l 793 1302 b 741 1267 755 1302 741 1286 b 813 1207 741 1241 762 1222 b 929 1158 854 1194 894 1179 b 1030 1168 972 1132 1002 1135 l 1094 1245 b 1066 1302 1120 1274 1109 1302 z m 557 727 b 641 766 578 753 609 767 b 707 788 653 766 682 759 l 788 885 b 774 953 814 915 799 944 b 401 861 642 1003 491 969 b 375 479 309 750 304 597 b 444 476 389 455 415 441 l 528 573 b 536 641 549 599 540 628 b 557 727 530 672 536 703 z m 743 571 b 661 536 722 547 693 535 b 595 516 649 538 618 542 l 514 417 b 530 349 484 382 503 358 b 901 441 658 300 809 332 b 927 825 991 549 998 703 b 858 826 915 847 884 858 l 776 729 b 766 661 752 700 764 672 b 743 571 774 630 764 597 z m 1201 470 b 813 95 1151 300 1000 153 b 741 35 762 80 741 61 b 793 0 741 16 755 0 l 1302 0 l 1302 608 b 1201 470 1262 608 1234 582 z m 0 0 b 94 61 33 0 64 26 l 189 174 b 196 292 222 214 231 255 b 101 470 149 342 120 406 b 0 608 68 582 40 608 b -38 304 -23 608 -38 542 b 0 0 -38 66 -23 0 z m 236 0 l 509 0 b 561 35 547 0 561 16 b 490 95 561 61 540 80 b 373 144 448 108 408 123 b 273 134 330 170 300 167 l 208 57 b 236 0 182 28 193 0 z "},"¿":{"ha":1302,"x_min":0,"x_max":0,"o":"m 0 694 l 550 694 b 601 722 587 694 601 701 b 566 757 601 736 595 745 b 418 972 481 792 418 875 b 651 1205 418 1099 523 1205 b 882 972 778 1205 882 1099 b 734 757 882 875 819 792 b 700 722 705 745 700 736 b 750 694 700 701 714 694 l 1302 694 b 1340 998 1325 694 1340 760 b 1302 1302 1340 1236 1325 1302 l 0 1302 b -38 998 -23 1302 -38 1236 b 0 694 -38 760 -23 694 z m 0 0 l 488 0 b 533 26 524 0 533 12 b 481 61 533 40 519 56 b 177 299 299 83 177 215 b 469 564 177 443 370 465 b 479 589 477 573 479 580 b 455 608 479 601 470 608 l 0 608 b -38 304 -23 608 -38 542 b 0 0 -38 66 -23 0 z m 1302 608 l 1144 608 b 995 599 1069 608 1023 606 b 950 510 941 589 918 559 b 1101 394 974 472 1014 441 b 1134 288 1149 368 1163 337 b 844 63 1071 186 970 101 b 797 26 809 52 797 45 b 840 0 797 17 804 0 l 1302 0 b 1340 304 1325 0 1340 66 b 1302 608 1340 542 1325 608 z m 891 481 b 802 580 870 528 840 580 b 720 498 781 580 760 568 b 455 306 639 359 455 349 b 637 259 455 276 521 259 b 891 370 766 259 844 314 b 891 481 918 403 917 427 z "},"¡":{"ha":651,"x_min":0,"x_max":0,"o":"m 0 694 l 226 694 b 276 722 262 694 276 701 b 241 757 276 736 271 745 b 94 972 156 792 94 875 b 326 1205 94 1099 198 1205 b 557 972 453 1205 557 1099 b 410 757 557 875 495 792 b 375 722 380 745 375 736 b 425 694 375 701 389 694 l 651 694 b 689 998 674 694 689 760 b 651 1302 689 1236 674 1302 l 0 1302 b -38 998 -23 1302 -38 1236 b 0 694 -38 760 -23 694 z m 651 608 l 443 608 b 389 519 389 608 368 585 l 526 106 b 651 0 547 42 575 0 b 689 304 674 0 689 66 b 651 608 689 542 674 608 z m 0 0 b 125 106 76 0 104 42 l 262 519 b 208 608 283 585 262 608 l 0 608 b -38 304 -23 608 -38 542 b 0 0 -38 66 -23 0 z "},"«":{"ha":1302,"x_min":0,"x_max":0,"o":"m 0 694 b 87 792 36 694 54 712 l 240 1168 b 189 1302 278 1262 278 1302 l 0 1302 b -38 998 -23 1302 -38 1236 b 0 694 -38 760 -23 694 z m 1302 694 l 1302 1302 b 1186 1194 1257 1302 1231 1269 l 938 790 b 997 694 901 731 924 694 z m 668 792 l 873 1168 b 823 1302 922 1257 911 1302 l 651 1302 b 552 1194 606 1302 590 1274 l 356 790 b 415 694 326 727 342 694 l 582 694 b 668 792 618 694 627 717 z m 668 510 b 582 608 627 585 618 608 l 415 608 b 356 512 342 608 326 575 l 552 108 b 651 0 590 28 606 0 l 823 0 b 873 134 911 0 922 45 z m 0 0 l 189 0 b 240 134 278 0 278 40 l 87 510 b 0 608 54 590 36 608 b -38 304 -23 608 -38 542 b 0 0 -38 66 -23 0 z m 1302 608 l 997 608 b 938 512 924 608 901 571 l 1186 108 b 1302 0 1231 33 1257 0 z "},"»":{"ha":1302,"x_min":0,"x_max":0,"o":"m 634 792 b 720 694 675 717 684 694 l 887 694 b 946 790 960 694 976 727 l 750 1194 b 651 1302 712 1274 696 1302 l 479 1302 b 429 1168 391 1302 380 1257 z m 1215 792 b 1302 694 1248 712 1266 694 l 1302 1302 l 1113 1302 b 1063 1168 1024 1302 1024 1262 z m 0 694 l 306 694 b 365 790 378 694 401 731 l 116 1194 b 0 1302 71 1269 45 1302 b -38 998 -23 1302 -38 1236 b 0 694 -38 760 -23 694 z m 634 510 l 429 134 b 479 0 380 45 391 0 l 651 0 b 750 108 696 0 712 28 l 946 512 b 887 608 976 575 960 608 l 720 608 b 634 510 684 608 675 585 z m 1215 510 l 1063 134 b 1113 0 1024 40 1024 0 l 1302 0 l 1302 608 b 1215 510 1266 608 1248 590 z m 0 0 b 116 108 45 0 71 33 l 365 512 b 306 608 401 571 378 608 l 0 608 b -38 304 -23 608 -38 542 b 0 0 -38 66 -23 0 z "},"…":{"ha":1302,"x_min":0,"x_max":0,"o":"m 0 694 l 550 694 b 601 722 587 694 601 701 b 566 757 601 736 595 745 b 418 972 481 792 418 875 b 649 1205 418 1099 523 1205 b 882 972 778 1205 882 1099 b 734 757 882 875 819 792 b 700 722 705 745 700 736 b 750 694 700 701 714 694 l 1302 694 l 1302 1302 l 0 1302 b -38 998 -23 1302 -38 1236 b 0 694 -38 760 -23 694 z m 0 0 l 1302 0 l 1302 608 l 1076 608 b 1026 580 1040 608 1026 601 b 1061 545 1026 566 1031 557 b 1208 330 1146 510 1208 427 b 976 97 1208 203 1104 97 b 745 330 849 97 745 203 b 892 545 745 427 807 510 b 927 580 922 557 927 566 b 877 608 927 601 913 608 l 425 608 b 375 580 389 608 375 601 b 410 545 375 566 380 557 b 557 330 495 510 557 427 b 325 97 557 203 453 97 b 94 330 198 97 94 203 b 241 545 94 427 156 510 b 276 580 271 557 276 566 b 226 608 276 601 262 608 l 0 608 b -38 304 -23 608 -38 542 b 0 0 -38 66 -23 0 z "},"À":{"ha":1302,"x_min":0,"x_max":0,"o":"m 0 694 l 168 694 b 264 776 220 694 253 726 l 316 1042 b 394 1128 325 1089 345 1128 l 429 1128 b 476 1191 484 1128 500 1160 l 425 1257 b 326 1302 401 1288 373 1302 l 0 1302 b -38 998 -23 1302 -38 1236 b 0 694 -38 760 -23 694 z m 1302 1302 l 847 1302 b 774 1240 792 1302 766 1278 l 790 1174 b 877 1128 799 1135 830 1128 l 908 1128 b 986 1042 957 1128 977 1089 l 1038 776 b 1134 694 1049 726 1082 694 l 1302 694 z m 731 488 b 802 569 776 488 809 524 l 733 991 b 651 1095 722 1050 701 1095 b 569 991 602 1095 580 1050 l 500 569 b 571 488 493 524 526 488 z m 0 0 l 54 0 b 141 87 102 0 132 36 l 217 517 b 139 608 226 566 189 608 l 0 608 b -38 304 -23 608 -38 542 b 0 0 -38 66 -23 0 z m 1163 608 b 1085 517 1113 608 1076 566 l 1161 87 b 1248 0 1170 36 1200 0 l 1302 0 l 1302 608 z m 790 0 b 877 104 839 0 885 45 l 858 226 b 766 307 849 278 816 307 l 536 307 b 444 226 486 307 453 278 l 425 104 b 512 0 417 45 464 0 z "},"Ã":{"ha":1302,"x_min":0,"x_max":0,"o":"m 986 1042 l 1038 776 b 1134 694 1049 726 1082 694 l 1302 694 l 1302 1302 l 986 1302 b 899 1257 939 1302 901 1295 b 818 1155 896 1184 818 1186 b 878 1128 818 1137 832 1128 l 908 1128 b 986 1042 957 1128 977 1089 z m 797 1276 b 769 1302 797 1292 786 1302 l 703 1302 b 674 1285 682 1302 674 1295 b 767 1248 674 1267 726 1248 b 797 1276 783 1248 797 1260 z m 0 694 l 168 694 b 264 776 220 694 253 726 l 316 1042 b 403 1174 330 1109 398 1127 b 484 1276 410 1245 484 1245 b 424 1302 484 1293 470 1302 l 0 1302 b -38 998 -23 1302 -38 1236 b 0 694 -38 760 -23 694 z m 505 1155 b 533 1128 505 1139 516 1128 l 599 1128 b 628 1146 620 1128 628 1135 b 535 1182 628 1163 576 1182 b 505 1155 519 1182 505 1170 z m 731 488 b 802 569 776 488 809 524 l 733 991 b 651 1095 722 1050 701 1095 b 569 991 602 1095 580 1050 l 500 569 b 571 488 493 524 526 488 z m 0 0 l 54 0 b 141 87 102 0 132 36 l 217 517 b 139 608 226 566 189 608 l 0 608 b -38 304 -23 608 -38 542 b 0 0 -38 66 -23 0 z m 1163 608 b 1085 517 1113 608 1076 566 l 1161 87 b 1248 0 1170 36 1200 0 l 1302 0 l 1302 608 z m 790 0 b 877 104 839 0 885 45 l 858 226 b 766 307 849 278 816 307 l 536 307 b 444 226 486 307 453 278 l 425 104 b 512 0 417 45 464 0 z "},"Õ":{"ha":1302,"x_min":0,"x_max":0,"o":"m 0 694 b 92 795 45 694 82 724 b 300 1128 127 1031 217 1128 l 316 1128 b 403 1174 363 1128 401 1135 b 484 1276 406 1247 484 1245 b 424 1302 484 1293 470 1302 l 0 1302 b -38 998 -23 1302 -38 1236 b 0 694 -38 760 -23 694 z m 1210 795 b 1302 694 1220 724 1257 694 l 1302 1302 l 986 1302 b 899 1257 939 1302 901 1295 b 818 1155 896 1184 818 1186 b 878 1128 818 1137 832 1128 l 1002 1128 b 1210 795 1087 1128 1175 1031 z m 797 1276 b 769 1302 797 1292 786 1302 l 703 1302 b 674 1285 682 1302 674 1295 b 767 1248 674 1267 726 1248 b 797 1276 783 1248 797 1260 z m 505 1155 b 533 1128 505 1139 516 1128 l 599 1128 b 628 1146 620 1128 628 1135 b 535 1182 628 1163 576 1182 b 505 1155 519 1182 505 1170 z m 616 988 b 330 649 427 988 330 868 b 651 292 330 457 476 292 b 974 649 828 292 974 457 b 688 988 974 868 878 988 z m 0 0 l 509 0 b 561 35 547 0 561 16 b 490 78 561 54 538 68 b 82 507 290 120 130 252 b 0 608 69 575 40 608 b -38 304 -23 608 -38 542 b 0 0 -38 66 -23 0 z m 1220 507 b 813 78 1174 252 1012 120 b 741 35 764 68 741 54 b 793 0 741 16 755 0 l 1302 0 l 1302 608 b 1220 507 1262 608 1233 575 z "},"Œ":{"ha":1953,"x_min":0,"x_max":0,"o":"m 0 694 b 146 856 54 694 90 717 b 684 1253 215 1031 434 1219 b 719 1283 717 1259 719 1273 b 686 1302 719 1293 710 1302 l 0 1302 b -38 998 -23 1302 -38 1236 b 0 694 -38 760 -23 694 z m 1111 849 b 1198 762 1111 800 1149 762 l 1599 762 b 1745 694 1667 762 1655 694 l 1953 694 l 1953 1302 l 1918 1302 b 1793 1095 1823 1302 1934 1095 l 1198 1095 b 1111 1009 1149 1095 1111 1057 z m 842 307 l 842 995 b 776 1040 842 1038 804 1042 b 377 651 549 1023 377 896 b 776 262 377 406 552 280 b 842 307 806 260 842 260 z m 0 0 l 686 0 b 719 19 710 0 719 9 b 684 49 719 30 717 43 b 146 446 434 83 215 271 b 0 608 90 585 54 608 b -38 304 -23 608 -38 542 b 0 0 -38 66 -23 0 z m 1111 453 l 1111 295 b 1198 208 1111 247 1149 208 l 1793 208 b 1918 0 1934 208 1823 0 l 1953 0 l 1953 608 l 1745 608 b 1599 543 1655 608 1667 543 l 1198 543 b 1111 453 1149 543 1111 503 z "},"œ":{"ha":1953,"x_min":0,"x_max":0,"o":"m 0 694 b 146 856 54 694 90 717 b 684 1253 215 1031 434 1219 b 719 1283 717 1259 719 1273 b 686 1302 719 1293 710 1302 l 0 1302 b -38 998 -23 1302 -38 1236 b 0 694 -38 760 -23 694 z m 1111 849 b 1198 762 1111 800 1149 762 l 1599 762 b 1745 694 1667 762 1655 694 l 1953 694 l 1953 1302 l 1918 1302 b 1793 1095 1823 1302 1934 1095 l 1198 1095 b 1111 1009 1149 1095 1111 1057 z m 842 307 l 842 995 b 776 1040 842 1038 804 1042 b 377 651 549 1023 377 896 b 776 262 377 406 552 280 b 842 307 806 260 842 260 z m 0 0 l 686 0 b 719 19 710 0 719 9 b 684 49 719 30 717 43 b 146 446 434 83 215 271 b 0 608 90 585 54 608 b -38 304 -23 608 -38 542 b 0 0 -38 66 -23 0 z m 1111 453 l 1111 295 b 1198 208 1111 247 1149 208 l 1793 208 b 1918 0 1934 208 1823 0 l 1953 0 l 1953 608 l 1745 608 b 1599 543 1655 608 1667 543 l 1198 543 b 1111 453 1149 543 1111 503 z "},"–":{"ha":1302,"x_min":0,"x_max":0,"o":"m 0 694 l 1302 694 l 1302 1302 l 0 1302 b -38 998 -23 1302 -38 1236 b 0 694 -38 760 -23 694 z m 0 0 l 1302 0 l 1302 608 l 0 608 b -38 304 -23 608 -38 542 b 0 0 -38 66 -23 0 z "},"—":{"ha":2604,"x_min":0,"x_max":0,"o":"m 0 694 l 2604 694 l 2604 1302 l 0 1302 b -38 998 -23 1302 -38 1236 b 0 694 -38 760 -23 694 z m 0 0 l 2604 0 l 2604 608 l 0 608 b -38 304 -23 608 -38 542 b 0 0 -38 66 -23 0 z "},"“":{"ha":1302,"x_min":0,"x_max":0,"o":"m 0 694 l 226 694 b 276 722 262 694 276 701 b 241 757 276 736 271 745 b 94 948 156 792 94 875 b 391 1245 94 1064 226 1172 b 429 1278 418 1257 429 1266 b 389 1302 429 1290 417 1302 l 0 1302 b -38 998 -23 1302 -38 1236 b 0 694 -38 760 -23 694 z m 1040 1302 l 563 1302 b 526 1266 538 1302 526 1286 b 557 972 526 1205 557 1087 b 410 757 557 875 495 792 b 375 722 380 745 375 736 b 425 694 375 701 389 694 l 877 694 b 927 722 913 694 927 701 b 892 757 927 736 922 745 b 745 948 807 792 745 875 b 1042 1245 745 1064 877 1172 b 1080 1278 1069 1257 1080 1266 b 1040 1302 1080 1290 1068 1302 z m 1302 1302 l 1214 1302 b 1177 1266 1189 1302 1177 1286 b 1208 972 1177 1205 1208 1087 b 1061 757 1208 875 1146 792 b 1026 722 1031 745 1026 736 b 1076 694 1026 701 1040 694 l 1302 694 z m 0 0 l 1302 0 l 1302 608 l 0 608 b -38 304 -23 608 -38 542 b 0 0 -38 66 -23 0 z "},"”":{"ha":1302,"x_min":0,"x_max":0,"o":"m 262 694 l 740 694 b 776 731 764 694 776 710 b 745 1024 776 792 745 910 b 892 1240 745 1122 807 1205 b 927 1274 922 1252 927 1260 b 877 1302 927 1295 913 1302 l 425 1302 b 375 1274 389 1302 375 1295 b 410 1240 375 1260 380 1252 b 557 1049 495 1205 557 1122 b 260 752 557 932 425 825 b 222 719 233 740 222 731 b 262 694 222 707 234 694 z m 0 694 l 89 694 b 125 731 113 694 125 710 b 94 1024 125 792 94 910 b 241 1240 94 1122 156 1205 b 276 1274 271 1252 276 1260 b 226 1302 276 1295 262 1302 l 0 1302 b -38 998 -23 1302 -38 1236 b 0 694 -38 760 -23 694 z m 913 694 l 1302 694 l 1302 1302 l 1076 1302 b 1026 1274 1040 1302 1026 1295 b 1061 1240 1026 1260 1031 1252 b 1208 1049 1146 1205 1208 1122 b 911 752 1208 932 1076 825 b 873 719 884 740 873 731 b 913 694 873 707 885 694 z m 0 0 l 1302 0 l 1302 608 l 0 608 b -38 304 -23 608 -38 542 b 0 0 -38 66 -23 0 z "},"‘":{"ha":651,"x_min":0,"x_max":0,"o":"m 0 694 l 226 694 b 276 722 262 694 276 701 b 241 757 276 736 271 745 b 94 948 156 792 94 875 b 391 1245 94 1064 226 1172 b 429 1278 418 1257 429 1266 b 389 1302 429 1290 417 1302 l 0 1302 b -38 998 -23 1302 -38 1236 b 0 694 -38 760 -23 694 z m 651 1302 l 563 1302 b 526 1266 538 1302 526 1286 b 557 972 526 1205 557 1087 b 410 757 557 875 495 792 b 375 722 380 745 375 736 b 425 694 375 701 389 694 l 651 694 z m 0 0 l 651 0 l 651 608 l 0 608 b -38 304 -23 608 -38 542 b 0 0 -38 66 -23 0 z "},"’":{"ha":651,"x_min":0,"x_max":0,"o":"m 262 694 l 651 694 l 651 1302 l 425 1302 b 375 1274 389 1302 375 1295 b 410 1240 375 1260 380 1252 b 557 1049 495 1205 557 1122 b 260 752 557 932 425 825 b 222 719 233 740 222 731 b 262 694 222 707 234 694 z m 0 694 l 89 694 b 125 731 113 694 125 710 b 94 1024 125 792 94 910 b 241 1240 94 1122 156 1205 b 276 1274 271 1252 276 1260 b 226 1302 276 1295 262 1302 l 0 1302 b -38 998 -23 1302 -38 1236 b 0 694 -38 760 -23 694 z m 0 0 l 651 0 l 651 608 l 0 608 b -38 304 -23 608 -38 542 b 0 0 -38 66 -23 0 z "},"÷":{"ha":1302,"x_min":0,"x_max":0,"o":"m 0 694 l 139 694 b 285 795 229 694 217 795 l 550 795 b 604 826 589 795 604 806 b 568 870 604 845 595 856 b 465 1035 517 892 465 957 b 649 1220 465 1135 549 1220 b 835 1035 752 1220 835 1135 b 733 870 835 957 783 892 b 696 826 705 856 696 845 b 750 795 696 806 712 795 l 1017 795 b 1163 694 1085 795 1073 694 l 1302 694 l 1302 1302 l 0 1302 b -38 998 -23 1302 -38 1236 b 0 694 -38 760 -23 694 z m 0 0 l 1302 0 l 1302 608 l 1163 608 b 1017 507 1073 608 1085 507 l 750 507 b 696 476 712 507 696 497 b 733 432 696 457 705 446 b 835 267 783 410 835 345 b 649 82 835 167 752 82 b 465 267 549 82 465 167 b 568 432 465 345 517 410 b 604 476 595 446 604 457 b 550 507 604 497 589 507 l 285 507 b 139 608 217 507 229 608 l 0 608 b -38 304 -23 608 -38 542 b 0 0 -38 66 -23 0 z "},"ÿ":{"ha":1302,"x_min":0,"x_max":0,"o":"m 0 694 l 234 694 b 290 781 306 694 316 736 l 142 1042 b 168 1128 116 1089 127 1128 l 385 1128 b 410 1141 403 1128 410 1134 b 373 1215 410 1158 373 1160 b 410 1290 373 1271 410 1273 b 385 1302 410 1297 403 1302 l 2 1302 b 0 1302 2 1302 0 1302 b -38 998 -23 1302 -38 1236 b 0 694 -38 760 -23 694 z m 920 1128 l 1134 1128 b 1160 1042 1175 1128 1186 1089 l 1012 781 b 1068 694 986 736 997 694 l 1302 694 l 1302 1128 l 1304 1128 l 1304 1302 l 920 1302 b 896 1290 903 1302 896 1297 b 932 1215 896 1273 932 1271 b 896 1141 932 1160 896 1158 b 920 1128 896 1134 903 1128 z m 590 1128 l 715 1128 b 740 1141 733 1128 740 1134 b 703 1215 740 1158 703 1160 b 740 1290 703 1271 740 1273 b 715 1302 740 1297 733 1302 l 590 1302 b 566 1290 573 1302 566 1297 b 602 1215 566 1273 602 1271 b 566 1141 602 1160 566 1158 b 590 1128 566 1134 573 1128 z m 547 1094 b 460 990 474 1094 436 1047 l 557 762 b 651 663 582 705 602 663 b 745 762 700 663 720 705 l 842 990 b 755 1094 866 1047 828 1094 z m 0 0 l 438 0 b 524 87 486 0 524 38 l 524 274 b 304 608 524 462 392 608 l 0 608 b -38 304 -23 608 -38 542 b 0 0 -38 66 -23 0 z m 1302 0 l 1302 608 l 998 608 b 778 274 910 608 778 462 l 778 87 b 865 0 778 38 816 0 z "},"Ÿ":{"ha":1302,"x_min":0,"x_max":0,"o":"m 0 694 l 234 694 b 290 781 306 694 316 736 l 142 1042 b 168 1128 116 1089 127 1128 l 385 1128 b 410 1141 403 1128 410 1134 b 373 1215 410 1158 373 1160 b 410 1290 373 1271 410 1273 b 385 1302 410 1297 403 1302 l 2 1302 b 0 1302 2 1302 0 1302 b -38 998 -23 1302 -38 1236 b 0 694 -38 760 -23 694 z m 920 1128 l 1134 1128 b 1160 1042 1175 1128 1186 1089 l 1012 781 b 1068 694 986 736 997 694 l 1302 694 l 1302 1128 l 1304 1128 l 1304 1302 l 920 1302 b 896 1290 903 1302 896 1297 b 932 1215 896 1273 932 1271 b 896 1141 932 1160 896 1158 b 920 1128 896 1134 903 1128 z m 590 1128 l 715 1128 b 740 1141 733 1128 740 1134 b 703 1215 740 1158 703 1160 b 740 1290 703 1271 740 1273 b 715 1302 740 1297 733 1302 l 590 1302 b 566 1290 573 1302 566 1297 b 602 1215 566 1273 602 1271 b 566 1141 602 1160 566 1158 b 590 1128 566 1134 573 1128 z m 547 1094 b 460 990 474 1094 436 1047 l 557 762 b 651 663 582 705 602 663 b 745 762 700 663 720 705 l 842 990 b 755 1094 866 1047 828 1094 z m 0 0 l 438 0 b 524 87 486 0 524 38 l 524 274 b 304 608 524 462 392 608 l 0 608 b -38 304 -23 608 -38 542 b 0 0 -38 66 -23 0 z m 1302 0 l 1302 608 l 998 608 b 778 274 910 608 778 462 l 778 87 b 865 0 778 38 816 0 z "},"⁄":{"ha":1302,"x_min":0,"x_max":0,"o":"m 1302 694 l 1302 1302 b 1021 1043 1227 1302 1135 1250 l 875 781 b 927 694 854 743 880 694 z m 0 694 l 378 694 b 571 781 464 694 542 727 l 780 1168 b 729 1302 828 1259 818 1302 l 0 1302 b -38 998 -23 1302 -38 1236 b 0 694 -38 760 -23 694 z m 731 521 l 519 134 b 569 0 470 45 481 0 l 1302 0 l 1302 608 l 924 608 b 731 521 839 608 760 575 z m 0 0 b 281 259 75 0 167 52 l 427 521 b 375 608 448 559 422 608 l 0 608 b -38 304 -23 608 -38 542 b 0 0 -38 66 -23 0 z "},"‹":{"ha":651,"x_min":0,"x_max":0,"o":"m 651 694 l 651 1302 b 552 1194 606 1302 590 1274 l 356 790 b 415 694 326 727 342 694 z m 0 694 b 87 792 36 694 54 712 l 240 1168 b 189 1302 278 1262 278 1302 l 0 1302 b -38 998 -23 1302 -38 1236 b 0 694 -38 760 -23 694 z m 651 608 l 415 608 b 356 512 342 608 326 575 l 552 108 b 651 0 590 28 606 0 z m 0 0 l 189 0 b 240 134 278 0 278 40 l 87 510 b 0 608 54 590 36 608 b -38 304 -23 608 -38 542 b 0 0 -38 66 -23 0 z "},"›":{"ha":651,"x_min":0,"x_max":0,"o":"m 0 694 l 236 694 b 295 790 309 694 325 727 l 99 1194 b 0 1302 61 1274 45 1302 b -38 998 -23 1302 -38 1236 b 0 694 -38 760 -23 694 z m 564 792 b 651 694 597 712 615 694 l 651 1302 l 462 1302 b 411 1168 373 1302 373 1262 z m 0 0 b 99 108 45 0 61 28 l 295 512 b 236 608 325 575 309 608 l 0 608 b -38 304 -23 608 -38 542 b 0 0 -38 66 -23 0 z m 564 510 l 411 134 b 462 0 373 40 373 0 l 651 0 l 651 608 b 564 510 615 608 597 590 z "},"·":{"ha":1302,"x_min":0,"x_max":0,"o":"m 0 694 l 370 694 b 453 748 415 694 438 710 b 651 887 484 830 563 887 b 851 748 741 887 819 830 b 934 694 865 710 887 694 l 1302 694 l 1302 1302 l 0 1302 b -38 998 -23 1302 -38 1236 b 0 694 -38 760 -23 694 z m 0 0 l 1302 0 l 1302 608 l 934 608 b 851 552 887 608 865 592 b 651 415 819 472 741 415 b 453 552 563 415 484 472 b 370 608 438 592 415 608 l 0 608 b -38 304 -23 608 -38 542 b 0 0 -38 66 -23 0 z "},"‚":{"ha":651,"x_min":0,"x_max":0,"o":"m 0 694 l 651 694 l 651 1302 l 0 1302 b -38 998 -23 1302 -38 1236 b 0 694 -38 760 -23 694 z m 262 0 l 651 0 l 651 608 l 425 608 b 375 580 389 608 375 601 b 410 545 375 566 380 557 b 557 354 495 510 557 427 b 260 57 557 238 425 130 b 222 24 233 45 222 36 b 262 0 222 12 234 0 z m 0 0 l 89 0 b 125 36 113 0 125 16 b 94 330 125 97 94 215 b 241 545 94 427 156 510 b 276 580 271 557 276 566 b 226 608 276 601 262 608 l 0 608 b -38 304 -23 608 -38 542 b 0 0 -38 66 -23 0 z "},"„":{"ha":1302,"x_min":0,"x_max":0,"o":"m 0 694 l 1302 694 l 1302 1302 l 0 1302 b -38 998 -23 1302 -38 1236 b 0 694 -38 760 -23 694 z m 262 0 l 740 0 b 776 36 764 0 776 16 b 745 330 776 97 745 215 b 892 545 745 427 807 510 b 927 580 922 557 927 566 b 877 608 927 601 913 608 l 425 608 b 375 580 389 608 375 601 b 410 545 375 566 380 557 b 557 354 495 510 557 427 b 260 57 557 238 425 130 b 222 24 233 45 222 36 b 262 0 222 12 234 0 z m 0 0 l 89 0 b 125 36 113 0 125 16 b 94 330 125 97 94 215 b 241 545 94 427 156 510 b 276 580 271 557 276 566 b 226 608 276 601 262 608 l 0 608 b -38 304 -23 608 -38 542 b 0 0 -38 66 -23 0 z m 913 0 l 1302 0 l 1302 608 l 1076 608 b 1026 580 1040 608 1026 601 b 1061 545 1026 566 1031 557 b 1208 354 1146 510 1208 427 b 911 57 1208 238 1076 130 b 873 24 884 45 873 36 b 913 0 873 12 885 0 z "},"‰":{"ha":1953,"x_min":0,"x_max":0,"o":"m 1021 1043 l 875 781 b 927 694 854 743 880 694 l 1953 694 l 1953 1302 l 1302 1302 b 1021 1043 1227 1302 1135 1250 z m 0 694 l 378 694 b 575 786 464 694 543 731 b 575 844 592 818 592 833 b 528 830 563 851 552 851 b 267 802 457 771 352 755 b 172 1115 156 861 111 1003 b 486 1210 233 1229 375 1271 b 606 977 573 1163 616 1069 b 622 931 604 946 609 938 b 668 962 639 922 651 931 l 780 1168 b 729 1302 828 1259 818 1302 l 0 1302 b -38 998 -23 1302 -38 1236 b 0 694 -38 760 -23 694 z m 377 925 b 458 1007 420 925 458 962 b 377 1089 458 1050 420 1089 b 295 1007 332 1089 295 1050 b 377 925 295 962 332 925 z m 523 134 b 573 0 474 43 484 0 l 1953 0 l 1953 608 l 1727 608 b 1677 580 1691 608 1677 601 b 1712 545 1677 566 1682 557 b 1859 330 1797 510 1859 427 b 1627 97 1859 203 1755 97 b 1396 330 1500 97 1396 203 b 1543 545 1396 427 1458 510 b 1578 580 1573 557 1578 566 b 1528 608 1578 601 1564 608 l 924 608 b 727 516 839 608 759 571 b 727 458 710 484 710 469 b 774 472 740 451 750 451 b 1035 500 845 531 950 547 b 1130 188 1146 441 1191 299 b 816 92 1069 73 927 31 b 696 325 729 139 686 233 b 681 372 698 356 693 365 b 634 340 663 380 651 372 z m 0 0 b 281 259 75 0 167 52 l 427 521 b 375 608 448 559 422 608 l 0 608 b -38 304 -23 608 -38 542 b 0 0 -38 66 -23 0 z m 1627 250 b 1708 332 1670 250 1708 286 b 1627 413 1708 375 1670 413 b 1545 332 1582 413 1545 375 b 1627 250 1545 286 1582 250 z m 925 215 b 1007 297 969 215 1007 252 b 925 378 1007 340 969 378 b 844 297 880 378 844 340 b 925 215 844 252 880 215 z "},"Â":{"ha":1302,"x_min":0,"x_max":0,"o":"m 0 694 l 168 694 b 264 776 220 694 253 726 l 316 1042 b 373 1174 328 1102 352 1146 l 424 1240 b 377 1302 448 1271 432 1302 l 0 1302 b -47 1163 -19 1302 -38 1267 l -52 1125 b -56 998 -54 1087 -56 1033 b -52 870 -56 965 -54 908 l -47 832 b 0 694 -38 729 -19 694 z m 1302 694 l 1302 1302 l 925 1302 b 878 1240 870 1302 854 1271 l 929 1174 b 986 1042 950 1146 974 1102 l 1038 776 b 1134 694 1049 726 1082 694 z m 674 1128 b 712 1174 698 1128 719 1139 l 698 1248 b 651 1288 693 1280 672 1288 b 604 1250 630 1288 609 1280 l 590 1174 b 628 1128 583 1139 604 1128 z m 731 488 b 802 569 776 488 809 524 l 733 991 b 651 1095 722 1050 701 1095 b 569 991 602 1095 580 1050 l 500 569 b 571 488 493 524 526 488 z m 0 0 l 54 0 b 141 87 102 0 132 36 l 217 517 b 139 608 226 566 189 608 l 0 608 b -47 469 -19 608 -38 573 l -52 431 b -56 304 -54 392 -56 339 b -52 175 -56 271 -54 214 l -47 137 b 0 0 -38 35 -19 0 z m 1163 608 b 1085 517 1113 608 1076 566 l 1161 87 b 1248 0 1170 36 1200 0 l 1302 0 l 1302 608 z m 790 0 b 877 104 839 0 885 45 l 858 226 b 766 307 849 278 816 307 l 536 307 b 444 226 486 307 453 278 l 425 104 b 512 0 417 45 464 0 z "},"Ê":{"ha":1302,"x_min":0,"x_max":0,"o":"m 0 694 l 104 694 b 191 781 153 694 191 733 l 191 1042 b 257 1128 191 1090 208 1128 l 292 1128 b 373 1174 330 1128 351 1144 l 424 1240 b 377 1302 448 1271 432 1302 l 0 1302 b -38 998 -23 1302 -38 1236 b 0 694 -38 760 -23 694 z m 1222 1017 b 1142 922 1219 969 1210 922 l 543 922 b 457 835 495 922 457 884 l 457 781 b 543 694 457 733 495 694 l 1302 694 l 1302 1302 l 925 1302 b 878 1240 870 1302 854 1271 l 929 1174 b 1010 1128 951 1144 972 1128 l 1156 1128 b 1222 1042 1205 1128 1222 1090 z m 674 1128 b 712 1174 698 1128 719 1139 l 698 1248 b 651 1288 693 1280 672 1288 b 604 1250 630 1288 609 1280 l 590 1174 b 628 1128 583 1139 604 1128 z m 0 0 l 104 0 b 191 87 153 0 191 38 l 191 521 b 104 608 191 569 153 608 l 0 608 b -38 304 -23 608 -38 542 b 0 0 -38 66 -23 0 z m 457 385 l 457 295 b 543 208 457 247 495 208 l 1142 208 b 1267 0 1283 208 1172 0 l 1302 0 l 1302 608 l 1094 608 b 948 476 1003 608 1016 476 l 543 476 b 457 385 495 476 457 436 z "},"Á":{"ha":1302,"x_min":0,"x_max":0,"o":"m 986 1042 l 1038 776 b 1134 694 1049 726 1082 694 l 1302 694 l 1302 1302 l 976 1302 b 877 1257 929 1302 901 1288 l 826 1191 b 873 1128 802 1160 818 1128 l 908 1128 b 986 1042 957 1128 977 1089 z m 0 694 l 168 694 b 264 776 220 694 253 726 l 316 1042 b 394 1128 325 1089 345 1128 l 425 1128 b 512 1174 472 1128 503 1135 l 528 1240 b 455 1302 536 1278 510 1302 l 0 1302 b -38 998 -23 1302 -38 1236 b 0 694 -38 760 -23 694 z m 731 488 b 802 569 776 488 809 524 l 733 991 b 651 1095 722 1050 701 1095 b 569 991 602 1095 580 1050 l 500 569 b 571 488 493 524 526 488 z m 0 0 l 54 0 b 141 87 102 0 132 36 l 217 517 b 139 608 226 566 189 608 l 0 608 b -38 304 -23 608 -38 542 b 0 0 -38 66 -23 0 z m 1163 608 b 1085 517 1113 608 1076 566 l 1161 87 b 1248 0 1170 36 1200 0 l 1302 0 l 1302 608 z m 790 0 b 877 104 839 0 885 45 l 858 226 b 766 307 849 278 816 307 l 536 307 b 444 226 486 307 453 278 l 425 104 b 512 0 417 45 464 0 z "},"Ë":{"ha":1302,"x_min":0,"x_max":0,"o":"m 0 694 l 104 694 b 191 781 153 694 191 733 l 191 1042 b 257 1128 191 1090 208 1128 l 384 1128 b 408 1141 401 1128 408 1134 b 372 1215 408 1158 372 1160 b 408 1290 372 1271 408 1273 b 384 1302 408 1297 401 1302 l 0 1302 b -38 998 -23 1302 -38 1236 b 0 694 -38 760 -23 694 z m 918 1128 l 1156 1128 b 1222 1042 1205 1128 1222 1090 l 1222 1017 b 1142 922 1219 969 1210 922 l 543 922 b 457 835 495 922 457 884 l 457 781 b 543 694 457 733 495 694 l 1302 694 l 1302 1302 l 918 1302 b 894 1290 901 1302 894 1297 b 931 1215 894 1273 931 1271 b 894 1141 931 1160 894 1158 b 918 1128 894 1134 901 1128 z m 589 1128 l 714 1128 b 738 1141 731 1128 738 1134 b 701 1215 738 1158 701 1160 b 738 1290 701 1271 738 1273 b 714 1302 738 1297 731 1302 l 589 1302 b 564 1290 571 1302 564 1297 b 601 1215 564 1273 601 1271 b 564 1141 601 1160 564 1158 b 589 1128 564 1134 571 1128 z m 0 0 l 104 0 b 191 87 153 0 191 38 l 191 521 b 104 608 191 569 153 608 l 0 608 b -38 304 -23 608 -38 542 b 0 0 -38 66 -23 0 z m 457 385 l 457 295 b 543 208 457 247 495 208 l 1142 208 b 1267 0 1283 208 1172 0 l 1302 0 l 1302 608 l 1094 608 b 948 476 1003 608 1016 476 l 543 476 b 457 385 495 476 457 436 z "},"È":{"ha":1302,"x_min":0,"x_max":0,"o":"m 0 694 l 104 694 b 191 781 153 694 191 733 l 191 1042 b 257 1128 191 1090 208 1128 l 429 1128 b 476 1191 484 1128 500 1160 l 425 1257 b 326 1302 401 1288 373 1302 l 0 1302 b -38 998 -23 1302 -38 1236 b 0 694 -38 760 -23 694 z m 1222 1017 b 1142 922 1219 969 1210 922 l 543 922 b 457 835 495 922 457 884 l 457 781 b 543 694 457 733 495 694 l 1302 694 l 1302 1302 l 847 1302 b 774 1240 792 1302 766 1278 l 790 1174 b 877 1128 799 1135 830 1128 l 1156 1128 b 1222 1042 1205 1128 1222 1090 z m 0 0 l 104 0 b 191 87 153 0 191 38 l 191 521 b 104 608 191 569 153 608 l 0 608 b -38 304 -23 608 -38 542 b 0 0 -38 66 -23 0 z m 457 385 l 457 295 b 543 208 457 247 495 208 l 1142 208 b 1267 0 1283 208 1172 0 l 1302 0 l 1302 608 l 1094 608 b 948 476 1003 608 1016 476 l 543 476 b 457 385 495 476 457 436 z "},"Í":{"ha":1302,"x_min":0,"x_max":0,"o":"m 0 694 l 434 694 b 521 781 483 694 521 733 l 521 800 b 434 887 521 849 483 887 l 160 887 b 80 983 92 887 80 934 l 80 1042 b 146 1128 80 1090 97 1128 l 425 1128 b 512 1174 472 1128 503 1135 l 528 1240 b 455 1302 536 1278 510 1302 l 0 1302 b -38 998 -23 1302 -38 1236 b 0 694 -38 760 -23 694 z m 1142 887 l 868 887 b 781 800 819 887 781 849 l 781 781 b 868 694 781 733 819 694 l 1302 694 l 1302 1302 l 976 1302 b 877 1257 929 1302 901 1288 l 826 1191 b 873 1128 802 1160 818 1128 l 1156 1128 b 1222 1042 1205 1128 1222 1090 l 1222 983 b 1142 887 1222 934 1210 887 z m 781 521 l 781 328 b 868 241 781 280 819 241 l 1057 241 b 1302 0 1257 241 1137 0 l 1302 608 l 868 608 b 781 521 819 608 781 569 z m 0 0 b 245 241 163 0 45 241 l 434 241 b 521 328 483 241 521 280 l 521 521 b 434 608 521 569 483 608 l 0 608 b -38 304 -23 608 -38 542 b 0 0 -38 66 -23 0 z "},"Î":{"ha":1302,"x_min":0,"x_max":0,"o":"m 0 694 l 434 694 b 521 781 483 694 521 733 l 521 800 b 434 887 521 849 483 887 l 160 887 b 80 983 92 887 80 934 l 80 1042 b 146 1128 80 1090 97 1128 l 292 1128 b 373 1174 330 1128 351 1144 l 424 1240 b 377 1302 448 1271 432 1302 l 0 1302 b -38 998 -23 1302 -38 1236 b 0 694 -38 760 -23 694 z m 1142 887 l 868 887 b 781 800 819 887 781 849 l 781 781 b 868 694 781 733 819 694 l 1302 694 l 1302 1302 l 925 1302 b 878 1240 870 1302 854 1271 l 929 1174 b 1010 1128 951 1144 972 1128 l 1156 1128 b 1222 1042 1205 1128 1222 1090 l 1222 983 b 1142 887 1222 934 1210 887 z m 674 1128 b 712 1174 698 1128 719 1139 l 698 1248 b 651 1288 693 1280 672 1288 b 604 1250 630 1288 609 1280 l 590 1174 b 628 1128 583 1139 604 1128 z m 781 521 l 781 328 b 868 241 781 280 819 241 l 1057 241 b 1302 0 1257 241 1137 0 l 1302 608 l 868 608 b 781 521 819 608 781 569 z m 0 0 b 245 241 163 0 45 241 l 434 241 b 521 328 483 241 521 280 l 521 521 b 434 608 521 569 483 608 l 0 608 b -38 304 -23 608 -38 542 b 0 0 -38 66 -23 0 z "},"Ï":{"ha":1302,"x_min":0,"x_max":0,"o":"m 0 694 l 434 694 b 521 781 483 694 521 733 l 521 800 b 434 887 521 849 483 887 l 160 887 b 80 983 92 887 80 934 l 80 1042 b 146 1128 80 1090 97 1128 l 384 1128 b 408 1141 401 1128 408 1134 b 372 1215 408 1158 372 1160 b 408 1290 372 1271 408 1273 b 384 1302 408 1297 401 1302 l 0 1302 b -38 998 -23 1302 -38 1236 b 0 694 -38 760 -23 694 z m 1142 887 l 868 887 b 781 800 819 887 781 849 l 781 781 b 868 694 781 733 819 694 l 1302 694 l 1302 1302 l 918 1302 b 894 1290 901 1302 894 1297 b 931 1215 894 1273 931 1271 b 894 1141 931 1160 894 1158 b 918 1128 894 1134 901 1128 l 1156 1128 b 1222 1042 1205 1128 1222 1090 l 1222 983 b 1142 887 1222 934 1210 887 z m 589 1128 l 714 1128 b 738 1141 731 1128 738 1134 b 701 1215 738 1158 701 1160 b 738 1290 701 1271 738 1273 b 714 1302 738 1297 731 1302 l 589 1302 b 564 1290 571 1302 564 1297 b 601 1215 564 1273 601 1271 b 564 1141 601 1160 564 1158 b 589 1128 564 1134 571 1128 z m 781 521 l 781 328 b 868 241 781 280 819 241 l 1057 241 b 1302 0 1257 241 1137 0 l 1302 608 l 868 608 b 781 521 819 608 781 569 z m 0 0 b 245 241 163 0 45 241 l 434 241 b 521 328 483 241 521 280 l 521 521 b 434 608 521 569 483 608 l 0 608 b -38 304 -23 608 -38 542 b 0 0 -38 66 -23 0 z "},"Ì":{"ha":1302,"x_min":0,"x_max":0,"o":"m 0 694 l 434 694 b 521 781 483 694 521 733 l 521 800 b 434 887 521 849 483 887 l 160 887 b 80 983 92 887 80 934 l 80 1042 b 146 1128 80 1090 97 1128 l 429 1128 b 476 1191 484 1128 500 1160 l 425 1257 b 326 1302 401 1288 373 1302 l 0 1302 b -38 998 -23 1302 -38 1236 b 0 694 -38 760 -23 694 z m 1142 887 l 868 887 b 781 800 819 887 781 849 l 781 781 b 868 694 781 733 819 694 l 1302 694 l 1302 1302 l 847 1302 b 774 1240 792 1302 766 1278 l 790 1174 b 877 1128 799 1135 830 1128 l 1156 1128 b 1222 1042 1205 1128 1222 1090 l 1222 983 b 1142 887 1222 934 1210 887 z m 781 521 l 781 328 b 868 241 781 280 819 241 l 1057 241 b 1302 0 1257 241 1137 0 l 1302 608 l 868 608 b 781 521 819 608 781 569 z m 0 0 b 245 241 163 0 45 241 l 434 241 b 521 328 483 241 521 280 l 521 521 b 434 608 521 569 483 608 l 0 608 b -38 304 -23 608 -38 542 b 0 0 -38 66 -23 0 z "},"Ó":{"ha":1302,"x_min":0,"x_max":0,"o":"m 1210 795 b 1302 694 1220 724 1257 694 l 1302 1302 l 976 1302 b 877 1257 929 1302 901 1288 l 826 1191 b 873 1128 802 1160 818 1128 l 1002 1128 b 1210 795 1087 1128 1175 1031 z m 0 694 b 92 795 45 694 82 724 b 300 1128 127 1031 217 1128 l 425 1128 b 512 1174 472 1128 503 1135 l 528 1240 b 455 1302 536 1278 510 1302 l 0 1302 b -38 998 -23 1302 -38 1236 b 0 694 -38 760 -23 694 z m 616 988 b 330 649 427 988 330 868 b 651 292 330 457 476 292 b 974 649 828 292 974 457 b 688 988 974 868 878 988 z m 0 0 l 509 0 b 561 35 547 0 561 16 b 490 78 561 54 538 68 b 82 507 290 120 130 252 b 0 608 69 575 40 608 b -38 304 -23 608 -38 542 b 0 0 -38 66 -23 0 z m 1220 507 b 813 78 1174 252 1012 120 b 741 35 764 68 741 54 b 793 0 741 16 755 0 l 1302 0 l 1302 608 b 1220 507 1262 608 1233 575 z "},"Ô":{"ha":1302,"x_min":0,"x_max":0,"o":"m 0 694 b 92 795 45 694 82 724 b 300 1128 127 1031 217 1128 l 292 1128 b 373 1174 330 1128 351 1144 l 424 1240 b 377 1302 448 1271 432 1302 l 0 1302 b -38 998 -23 1302 -38 1236 b 0 694 -38 760 -23 694 z m 1210 795 b 1302 694 1220 724 1257 694 l 1302 1302 l 925 1302 b 878 1240 870 1302 854 1271 l 929 1174 b 1010 1128 951 1144 972 1128 l 1002 1128 b 1210 795 1087 1128 1175 1031 z m 674 1128 b 712 1174 698 1128 719 1139 l 698 1248 b 651 1288 693 1280 672 1288 b 604 1250 630 1288 609 1280 l 590 1174 b 628 1128 583 1139 604 1128 z m 616 988 b 330 649 427 988 330 868 b 651 292 330 457 476 292 b 974 649 828 292 974 457 b 688 988 974 868 878 988 z m 0 0 l 509 0 b 561 35 547 0 561 16 b 490 78 561 54 538 68 b 82 507 290 120 130 252 b 0 608 69 575 40 608 b -38 304 -23 608 -38 542 b 0 0 -38 66 -23 0 z m 1220 507 b 813 78 1174 252 1012 120 b 741 35 764 68 741 54 b 793 0 741 16 755 0 l 1302 0 l 1302 608 b 1220 507 1262 608 1233 575 z "},"Ò":{"ha":1302,"x_min":0,"x_max":0,"o":"m 0 694 b 92 795 45 694 82 724 b 300 1128 127 1031 217 1128 l 429 1128 b 476 1191 484 1128 500 1160 l 425 1257 b 326 1302 401 1288 373 1302 l 0 1302 b -38 998 -23 1302 -38 1236 b 0 694 -38 760 -23 694 z m 1210 795 b 1302 694 1220 724 1257 694 l 1302 1302 l 847 1302 b 774 1240 792 1302 766 1278 l 790 1174 b 877 1128 799 1135 830 1128 l 1002 1128 b 1210 795 1087 1128 1175 1031 z m 616 988 b 330 649 427 988 330 868 b 651 292 330 457 476 292 b 974 649 828 292 974 457 b 688 988 974 868 878 988 z m 0 0 l 509 0 b 561 35 547 0 561 16 b 490 78 561 54 538 68 b 82 507 290 120 130 252 b 0 608 69 575 40 608 b -38 304 -23 608 -38 542 b 0 0 -38 66 -23 0 z m 1220 507 b 813 78 1174 252 1012 120 b 741 35 764 68 741 54 b 793 0 741 16 755 0 l 1302 0 l 1302 608 b 1220 507 1262 608 1233 575 z "},"Ú":{"ha":1302,"x_min":0,"x_max":0,"o":"m 1302 694 l 1302 1302 l 976 1302 b 877 1257 929 1302 901 1288 l 826 1191 b 873 1128 802 1160 818 1128 l 1045 1128 b 1111 1042 1094 1128 1111 1090 l 1111 781 b 1198 694 1111 733 1149 694 z m 0 694 l 104 694 b 191 781 153 694 191 733 l 191 1042 b 257 1128 191 1090 208 1128 l 425 1128 b 512 1174 472 1128 503 1135 l 528 1240 b 455 1302 536 1278 510 1302 l 0 1302 b -38 998 -23 1302 -38 1236 b 0 694 -38 760 -23 694 z m 842 599 l 842 990 b 755 1076 842 1038 804 1076 l 547 1076 b 460 990 498 1076 460 1038 l 460 599 b 651 300 460 408 535 300 b 842 599 767 300 842 408 z m 0 0 l 509 0 b 549 28 538 0 549 12 b 490 78 549 49 531 64 b 214 470 352 120 247 297 b 0 608 189 597 85 608 b -38 304 -23 608 -38 542 b 0 0 -38 66 -23 0 z m 1089 470 b 813 78 1056 297 950 120 b 753 28 771 64 753 49 b 793 0 753 12 764 0 l 1302 0 l 1302 608 b 1089 470 1217 608 1113 597 z "},"Û":{"ha":1302,"x_min":0,"x_max":0,"o":"m 0 694 l 104 694 b 191 781 153 694 191 733 l 191 1042 b 257 1128 191 1090 208 1128 l 292 1128 b 373 1174 330 1128 351 1144 l 424 1240 b 377 1302 448 1271 432 1302 l 0 1302 b -38 998 -23 1302 -38 1236 b 0 694 -38 760 -23 694 z m 1302 694 l 1302 1302 l 925 1302 b 878 1240 870 1302 854 1271 l 929 1174 b 1010 1128 951 1144 972 1128 l 1045 1128 b 1111 1042 1094 1128 1111 1090 l 1111 781 b 1198 694 1111 733 1149 694 z m 674 1128 b 712 1174 698 1128 719 1139 l 698 1248 b 651 1288 693 1280 672 1288 b 604 1250 630 1288 609 1280 l 590 1174 b 628 1128 583 1139 604 1128 z m 842 599 l 842 990 b 755 1076 842 1038 804 1076 l 547 1076 b 460 990 498 1076 460 1038 l 460 599 b 651 300 460 408 535 300 b 842 599 767 300 842 408 z m 0 0 l 509 0 b 549 28 538 0 549 12 b 490 78 549 49 531 64 b 214 470 352 120 247 297 b 0 608 189 597 85 608 b -38 304 -23 608 -38 542 b 0 0 -38 66 -23 0 z m 1089 470 b 813 78 1056 297 950 120 b 753 28 771 64 753 49 b 793 0 753 12 764 0 l 1302 0 l 1302 608 b 1089 470 1217 608 1113 597 z "},"Ù":{"ha":1302,"x_min":0,"x_max":0,"o":"m 0 694 l 104 694 b 191 781 153 694 191 733 l 191 1042 b 257 1128 191 1090 208 1128 l 429 1128 b 476 1191 484 1128 500 1160 l 425 1257 b 326 1302 401 1288 373 1302 l 0 1302 b -38 998 -23 1302 -38 1236 b 0 694 -38 760 -23 694 z m 1302 694 l 1302 1302 l 847 1302 b 774 1240 792 1302 766 1278 l 790 1174 b 877 1128 799 1135 830 1128 l 1045 1128 b 1111 1042 1094 1128 1111 1090 l 1111 781 b 1198 694 1111 733 1149 694 z m 842 599 l 842 990 b 755 1076 842 1038 804 1076 l 547 1076 b 460 990 498 1076 460 1038 l 460 599 b 651 300 460 408 535 300 b 842 599 767 300 842 408 z m 0 0 l 509 0 b 549 28 538 0 549 12 b 490 78 549 49 531 64 b 214 470 352 120 247 297 b 0 608 189 597 85 608 b -38 304 -23 608 -38 542 b 0 0 -38 66 -23 0 z m 1089 470 b 813 78 1056 297 950 120 b 753 28 771 64 753 49 b 793 0 753 12 764 0 l 1302 0 l 1302 608 b 1089 470 1217 608 1113 597 z "},"ı":{"ha":1302,"x_min":0,"x_max":0,"o":"m 0 694 l 434 694 b 521 781 483 694 521 733 l 521 800 b 434 887 521 849 483 887 l 160 887 b 80 983 92 887 80 934 l 80 1042 b 146 1128 80 1090 97 1128 l 36 1128 b 0 1302 31 1262 17 1302 b -38 998 -23 1302 -38 1236 b 0 694 -38 760 -23 694 z m 1142 887 l 868 887 b 781 800 819 887 781 849 l 781 781 b 868 694 781 733 819 694 l 1302 694 l 1302 1128 l 1156 1128 b 1222 1042 1205 1128 1222 1090 l 1222 983 b 1142 887 1222 934 1210 887 z m 781 521 l 781 328 b 868 241 781 280 819 241 l 1057 241 b 1302 0 1257 241 1137 0 l 1302 608 l 868 608 b 781 521 819 608 781 569 z m 0 0 b 245 241 163 0 45 241 l 434 241 b 521 328 483 241 521 280 l 521 521 b 434 608 521 569 483 608 l 0 608 b -38 304 -23 608 -38 542 b 0 0 -38 66 -23 0 z "},"ˆ":{"ha":1302,"x_min":0,"x_max":0,"o":"m 0 1302 l 0 1128 l 292 1128 b 373 1174 330 1128 351 1144 l 424 1240 b 377 1302 448 1271 432 1302 z m 1302 1302 l 925 1302 b 878 1240 870 1302 854 1271 l 929 1174 b 1010 1128 951 1144 972 1128 l 1302 1128 z m 674 1128 b 712 1174 698 1128 719 1139 l 698 1248 b 651 1288 693 1280 672 1288 b 604 1250 630 1288 609 1280 l 590 1174 b 628 1128 583 1139 604 1128 z "},"˜":{"ha":1302,"x_min":0,"x_max":0,"o":"m 0 1302 l 0 1128 l 316 1128 b 403 1174 363 1128 401 1135 b 484 1276 406 1247 484 1245 b 424 1302 484 1293 470 1302 z m 1302 1128 l 1302 1302 l 986 1302 b 899 1257 939 1302 901 1295 b 818 1155 896 1184 818 1186 b 878 1128 818 1137 832 1128 z m 797 1276 b 769 1302 797 1292 786 1302 l 703 1302 b 674 1285 682 1302 674 1295 b 767 1248 674 1267 726 1248 b 797 1276 783 1248 797 1260 z m 505 1155 b 533 1128 505 1139 516 1128 l 599 1128 b 628 1146 620 1128 628 1135 b 535 1182 628 1163 576 1182 b 505 1155 519 1182 505 1170 z "},"¯":{"ha":1302,"x_min":0,"x_max":0,"o":"m 1302 1302 l 898 1302 b 825 1240 842 1302 825 1280 l 825 1184 b 911 1128 825 1144 844 1128 l 1302 1128 z m 0 1302 l 0 1128 l 391 1128 b 477 1184 458 1128 477 1144 l 477 1240 b 405 1302 477 1280 460 1302 z "},"˘":{"ha":1302,"x_min":0,"x_max":0,"o":"m 0 1128 l 408 1128 b 425 1175 448 1128 451 1156 b 370 1266 401 1194 380 1226 b 285 1302 361 1297 332 1302 l 0 1302 z m 674 1302 l 628 1302 b 590 1257 604 1302 582 1292 l 594 1243 b 651 1205 601 1214 630 1205 b 708 1245 672 1205 701 1217 l 712 1257 b 674 1302 722 1295 698 1302 z m 1302 1128 l 1302 1302 l 1017 1302 b 932 1266 970 1302 941 1297 b 877 1175 922 1226 901 1194 b 894 1128 851 1156 854 1128 z "},"˙":{"ha":1302,"x_min":0,"x_max":0,"o":"m 549 1128 b 573 1141 566 1128 573 1134 b 536 1215 573 1158 536 1160 b 573 1290 536 1271 573 1273 b 549 1302 573 1297 566 1302 l 0 1302 l 0 1128 z m 753 1128 l 1302 1128 l 1302 1302 l 753 1302 b 729 1290 736 1302 729 1297 b 766 1215 729 1273 766 1271 b 729 1141 766 1160 729 1158 b 753 1128 729 1134 736 1128 z "},"˚":{"ha":1302,"x_min":0,"x_max":0,"o":"m 444 1128 b 469 1141 462 1128 469 1134 b 432 1215 469 1158 432 1160 b 469 1290 432 1271 469 1273 b 444 1302 469 1297 462 1302 l 0 1302 l 0 1128 z m 858 1128 l 1302 1128 l 1302 1302 l 858 1302 b 833 1290 840 1302 833 1297 b 870 1215 833 1273 870 1271 b 833 1141 870 1160 833 1158 b 858 1128 833 1134 840 1128 z m 651 1170 b 762 1215 722 1170 762 1188 b 651 1260 762 1243 722 1260 b 540 1215 582 1260 540 1243 b 651 1170 540 1188 582 1170 z "},"¸":{"ha":1302,"x_min":0,"x_max":0,"o":"m 0 174 l 0 0 l 326 0 b 425 45 373 0 401 14 l 476 111 b 429 174 500 142 484 174 z m 1302 0 l 1302 174 l 877 174 b 790 128 830 174 799 167 l 774 63 b 847 0 766 24 792 0 z "},"˝":{"ha":1302,"x_min":0,"x_max":0,"o":"m 1302 1128 l 1302 1302 l 1149 1302 b 1050 1257 1102 1302 1075 1288 l 1000 1191 b 1047 1128 976 1160 991 1128 z m 0 1302 l 0 1128 l 252 1128 b 339 1174 299 1128 330 1135 l 354 1240 b 281 1302 363 1278 337 1302 z m 722 1302 b 625 1241 677 1302 646 1285 l 601 1191 b 648 1128 583 1156 592 1128 b 734 1174 694 1128 717 1139 l 759 1220 b 722 1302 786 1276 780 1302 z "},"˛":{"ha":1302,"x_min":0,"x_max":0,"o":"m 462 0 b 486 12 479 0 486 5 b 450 71 486 30 450 31 b 521 161 450 127 521 144 b 497 174 521 168 514 174 l 0 174 l 0 0 z m 719 52 l 750 52 b 856 0 811 52 823 0 l 1302 0 l 1302 174 l 719 174 b 632 113 655 174 632 151 b 719 52 632 75 655 52 z "},"ˇ":{"ha":1302,"x_min":0,"x_max":0,"o":"m 0 1128 l 377 1128 b 424 1191 432 1128 448 1160 l 373 1257 b 274 1302 349 1288 321 1302 l 0 1302 z m 1302 1128 l 1302 1302 l 1028 1302 b 929 1257 981 1302 953 1288 l 878 1191 b 925 1128 854 1160 870 1128 z m 674 1302 l 628 1302 b 590 1257 604 1302 583 1292 l 604 1181 b 651 1142 609 1151 630 1142 b 698 1182 672 1142 693 1151 l 712 1257 b 674 1302 719 1292 698 1302 z "},"Ā":{"ha":1302,"x_min":0,"x_max":0,"o":"m 0 694 l 168 694 b 264 776 220 694 253 726 l 316 1042 b 394 1128 325 1089 345 1128 l 391 1128 b 477 1184 458 1128 477 1144 l 477 1240 b 405 1302 477 1280 460 1302 l 0 1302 b -38 998 -23 1302 -38 1236 b 0 694 -38 760 -23 694 z m 1302 1302 l 898 1302 b 825 1240 842 1302 825 1280 l 825 1184 b 911 1128 825 1144 844 1128 l 908 1128 b 986 1042 957 1128 977 1089 l 1038 776 b 1134 694 1049 726 1082 694 l 1302 694 z m 731 488 b 802 569 776 488 809 524 l 733 991 b 651 1095 722 1050 701 1095 b 569 991 602 1095 580 1050 l 500 569 b 571 488 493 524 526 488 z m 0 0 l 54 0 b 141 87 102 0 132 36 l 217 517 b 139 608 226 566 189 608 l 0 608 b -38 304 -23 608 -38 542 b 0 0 -38 66 -23 0 z m 1163 608 b 1085 517 1113 608 1076 566 l 1161 87 b 1248 0 1170 36 1200 0 l 1302 0 l 1302 608 z m 790 0 b 877 104 839 0 885 45 l 858 226 b 766 307 849 278 816 307 l 536 307 b 444 226 486 307 453 278 l 425 104 b 512 0 417 45 464 0 z "},"Ă":{"ha":1302,"x_min":0,"x_max":0,"o":"m 0 694 l 168 694 b 264 776 220 694 253 726 l 316 1042 b 394 1128 325 1089 345 1128 l 408 1128 b 425 1175 448 1128 451 1156 b 370 1266 401 1194 380 1226 b 285 1302 361 1297 332 1302 l 0 1302 b -38 998 -23 1302 -38 1236 b 0 694 -38 760 -23 694 z m 674 1302 l 628 1302 b 590 1257 604 1302 582 1292 l 594 1243 b 651 1205 601 1214 630 1205 b 708 1245 672 1205 701 1217 l 712 1257 b 674 1302 722 1295 698 1302 z m 986 1042 l 1038 776 b 1134 694 1049 726 1082 694 l 1302 694 l 1302 1302 l 1017 1302 b 932 1266 970 1302 941 1297 b 877 1175 922 1226 901 1194 b 894 1128 851 1156 854 1128 l 908 1128 b 986 1042 957 1128 977 1089 z m 731 488 b 802 569 776 488 809 524 l 733 991 b 651 1095 722 1050 701 1095 b 569 991 602 1095 580 1050 l 500 569 b 571 488 493 524 526 488 z m 0 0 l 54 0 b 141 87 102 0 132 36 l 217 517 b 139 608 226 566 189 608 l 0 608 b -38 304 -23 608 -38 542 b 0 0 -38 66 -23 0 z m 1163 608 b 1085 517 1113 608 1076 566 l 1161 87 b 1248 0 1170 36 1200 0 l 1302 0 l 1302 608 z m 790 0 b 877 104 839 0 885 45 l 858 226 b 766 307 849 278 816 307 l 536 307 b 444 226 486 307 453 278 l 425 104 b 512 0 417 45 464 0 z "},"Ą":{"ha":1302,"x_min":0,"x_max":0,"o":"m 0 694 l 139 694 b 234 776 191 694 224 724 l 316 1215 b 229 1302 325 1266 295 1302 l 0 1302 b -38 998 -23 1302 -38 1236 b 0 694 -38 760 -23 694 z m 1170 694 l 1302 694 l 1302 1302 l 1080 1302 b 993 1215 1014 1302 984 1266 l 1075 776 b 1170 694 1085 724 1118 694 z m 727 661 b 799 743 773 661 806 698 l 741 1165 b 655 1269 733 1224 703 1269 l 649 1269 b 563 1165 601 1269 571 1224 l 505 743 b 576 661 498 698 531 661 z m 1132 174 l 1130 174 b 1061 113 1078 174 1061 151 b 1148 52 1061 75 1083 52 l 1179 52 b 1285 0 1240 52 1252 0 l 1302 0 l 1302 608 l 1198 608 b 1120 517 1148 608 1111 564 l 1167 260 b 1132 174 1175 212 1174 174 z m 0 0 l 891 0 b 915 12 908 0 915 5 b 878 71 915 30 878 31 b 950 161 878 127 950 144 b 925 174 950 168 943 174 l 186 174 b 142 260 139 174 134 212 l 189 517 b 111 608 198 564 161 608 l 0 608 b -38 304 -23 608 -38 542 b 0 0 -38 66 -23 0 z m 535 481 b 443 399 484 481 450 451 l 422 259 b 354 174 415 207 401 174 l 924 174 b 878 257 898 174 889 189 l 859 399 b 767 481 852 451 818 481 z "},"Ć":{"ha":1302,"x_min":0,"x_max":0,"o":"m 0 694 b 101 832 40 694 63 720 b 304 1128 167 1021 205 1128 l 425 1128 b 512 1174 472 1128 503 1135 l 528 1240 b 455 1302 536 1278 510 1302 l 0 1302 b -38 998 -23 1302 -38 1236 b 0 694 -38 760 -23 694 z m 995 1128 b 1153 946 1069 1128 1092 1068 b 1128 833 1181 891 1167 852 l 1064 802 b 1010 747 1021 781 1009 764 b 1078 694 1010 720 1033 694 l 1302 694 l 1302 1302 l 976 1302 b 877 1257 929 1302 901 1288 l 826 1191 b 873 1128 802 1160 818 1128 z m 938 651 b 651 976 938 885 832 976 b 328 651 477 976 328 884 b 651 326 328 455 495 326 b 938 651 814 326 938 417 z m 0 0 l 509 0 b 561 35 547 0 561 16 b 490 95 561 61 540 80 b 101 470 302 153 151 300 b 0 608 68 582 40 608 b -38 304 -23 608 -38 542 b 0 0 -38 66 -23 0 z m 1078 608 b 1010 556 1033 608 1010 582 b 1064 500 1009 538 1021 521 l 1128 469 b 1153 356 1167 450 1186 411 b 813 95 1085 238 958 141 b 741 35 762 80 741 61 b 793 0 741 16 755 0 l 1302 0 l 1302 608 z "},"Ĉ":{"ha":1302,"x_min":0,"x_max":0,"o":"m 0 694 b 101 832 40 694 63 720 b 304 1128 167 1021 205 1128 l 292 1128 b 373 1174 330 1128 351 1144 l 424 1240 b 377 1302 448 1271 432 1302 l 0 1302 b -38 998 -23 1302 -38 1236 b 0 694 -38 760 -23 694 z m 995 1128 b 1153 946 1069 1128 1092 1068 b 1128 833 1181 891 1167 852 l 1064 802 b 1010 747 1021 781 1009 764 b 1078 694 1010 720 1033 694 l 1302 694 l 1302 1302 l 925 1302 b 878 1240 870 1302 854 1271 l 929 1174 b 1010 1128 951 1144 972 1128 z m 674 1128 b 712 1174 698 1128 719 1139 l 698 1248 b 651 1288 693 1280 672 1288 b 604 1250 630 1288 609 1280 l 590 1174 b 628 1128 583 1139 604 1128 z m 938 651 b 651 976 938 885 832 976 b 328 651 477 976 328 884 b 651 326 328 455 495 326 b 938 651 814 326 938 417 z m 0 0 l 509 0 b 561 35 547 0 561 16 b 490 95 561 61 540 80 b 101 470 302 153 151 300 b 0 608 68 582 40 608 b -38 304 -23 608 -38 542 b 0 0 -38 66 -23 0 z m 1078 608 b 1010 556 1033 608 1010 582 b 1064 500 1009 538 1021 521 l 1128 469 b 1153 356 1167 450 1186 411 b 813 95 1085 238 958 141 b 741 35 762 80 741 61 b 793 0 741 16 755 0 l 1302 0 l 1302 608 z "},"Č":{"ha":1302,"x_min":0,"x_max":0,"o":"m 0 694 b 101 832 40 694 63 720 b 304 1128 167 1021 205 1128 l 377 1128 b 424 1191 432 1128 448 1160 l 373 1257 b 274 1302 349 1288 321 1302 l 0 1302 b -38 998 -23 1302 -38 1236 b 0 694 -38 760 -23 694 z m 995 1128 b 1153 946 1069 1128 1092 1068 b 1128 833 1181 891 1167 852 l 1064 802 b 1010 747 1021 781 1009 764 b 1078 694 1010 720 1033 694 l 1302 694 l 1302 1302 l 1028 1302 b 929 1257 981 1302 953 1288 l 878 1191 b 925 1128 854 1160 870 1128 z m 674 1302 l 628 1302 b 590 1257 604 1302 583 1292 l 604 1181 b 651 1142 609 1151 630 1142 b 698 1182 672 1142 693 1151 l 712 1257 b 674 1302 719 1292 698 1302 z m 938 651 b 651 976 938 885 832 976 b 328 651 477 976 328 884 b 651 326 328 455 495 326 b 938 651 814 326 938 417 z m 0 0 l 509 0 b 561 35 547 0 561 16 b 490 95 561 61 540 80 b 101 470 302 153 151 300 b 0 608 68 582 40 608 b -38 304 -23 608 -38 542 b 0 0 -38 66 -23 0 z m 1078 608 b 1010 556 1033 608 1010 582 b 1064 500 1009 538 1021 521 l 1128 469 b 1153 356 1167 450 1186 411 b 813 95 1085 238 958 141 b 741 35 762 80 741 61 b 793 0 741 16 755 0 l 1302 0 l 1302 608 z "},"Ċ":{"ha":1302,"x_min":0,"x_max":0,"o":"m 0 694 b 101 832 40 694 63 720 b 304 1128 167 1021 205 1128 l 549 1128 b 573 1141 566 1128 573 1134 b 536 1215 573 1158 536 1160 b 573 1290 536 1271 573 1273 b 549 1302 573 1297 566 1302 l 0 1302 b -38 998 -23 1302 -38 1236 b 0 694 -38 760 -23 694 z m 753 1128 l 995 1128 b 1153 946 1069 1128 1092 1068 b 1128 833 1181 891 1167 852 l 1064 802 b 1010 747 1021 781 1009 764 b 1078 694 1010 720 1033 694 l 1302 694 l 1302 1302 l 753 1302 b 729 1290 736 1302 729 1297 b 766 1215 729 1273 766 1271 b 729 1141 766 1160 729 1158 b 753 1128 729 1134 736 1128 z m 938 651 b 651 976 938 885 832 976 b 328 651 477 976 328 884 b 651 326 328 455 495 326 b 938 651 814 326 938 417 z m 0 0 l 509 0 b 561 35 547 0 561 16 b 490 95 561 61 540 80 b 101 470 302 153 151 300 b 0 608 68 582 40 608 b -38 304 -23 608 -38 542 b 0 0 -38 66 -23 0 z m 1078 608 b 1010 556 1033 608 1010 582 b 1064 500 1009 538 1021 521 l 1128 469 b 1153 356 1167 450 1186 411 b 813 95 1085 238 958 141 b 741 35 762 80 741 61 b 793 0 741 16 755 0 l 1302 0 l 1302 608 z "},"Ď":{"ha":1302,"x_min":0,"x_max":0,"o":"m 0 694 l 104 694 b 191 781 153 694 191 733 l 191 1042 b 278 1128 191 1090 229 1128 l 377 1128 b 424 1191 432 1128 448 1160 l 373 1257 b 274 1302 349 1288 321 1302 l 0 1302 b -38 998 -23 1302 -38 1236 b 0 694 -38 760 -23 694 z m 1156 856 b 1302 694 1212 717 1248 694 l 1302 1302 l 1028 1302 b 929 1257 981 1302 953 1288 l 878 1191 b 925 1128 854 1160 870 1128 l 908 1128 b 1156 856 1026 1128 1106 981 z m 674 1302 l 628 1302 b 590 1257 604 1302 583 1292 l 604 1181 b 651 1142 609 1151 630 1142 b 698 1182 672 1142 693 1151 l 712 1257 b 674 1302 719 1292 698 1302 z m 460 307 b 526 262 460 260 497 260 b 925 651 750 280 925 406 b 526 970 925 870 778 970 b 460 906 486 970 460 953 z m 1156 446 b 618 49 1087 271 868 83 b 583 19 585 43 583 30 b 616 0 583 9 592 0 l 1302 0 l 1302 608 b 1156 446 1248 608 1212 585 z m 0 0 l 104 0 b 191 87 153 0 191 38 l 191 521 b 104 608 191 569 153 608 l 0 608 b -38 304 -23 608 -38 542 b 0 0 -38 66 -23 0 z "},"Ē":{"ha":1302,"x_min":0,"x_max":0,"o":"m 0 694 l 104 694 b 191 781 153 694 191 733 l 191 1042 b 257 1128 191 1090 208 1128 l 391 1128 b 477 1184 458 1128 477 1144 l 477 1240 b 405 1302 477 1280 460 1302 l 0 1302 b -38 998 -23 1302 -38 1236 b 0 694 -38 760 -23 694 z m 1222 1017 b 1142 922 1219 969 1210 922 l 543 922 b 457 835 495 922 457 884 l 457 781 b 543 694 457 733 495 694 l 1302 694 l 1302 1302 l 898 1302 b 825 1240 842 1302 825 1280 l 825 1184 b 911 1128 825 1144 844 1128 l 1156 1128 b 1222 1042 1205 1128 1222 1090 z m 0 0 l 104 0 b 191 87 153 0 191 38 l 191 521 b 104 608 191 569 153 608 l 0 608 b -38 304 -23 608 -38 542 b 0 0 -38 66 -23 0 z m 457 385 l 457 295 b 543 208 457 247 495 208 l 1142 208 b 1267 0 1283 208 1172 0 l 1302 0 l 1302 608 l 1094 608 b 948 476 1003 608 1016 476 l 543 476 b 457 385 495 476 457 436 z "},"Ĕ":{"ha":1302,"x_min":0,"x_max":0,"o":"m 0 694 l 104 694 b 191 781 153 694 191 733 l 191 1042 b 257 1128 191 1090 208 1128 l 408 1128 b 425 1175 448 1128 451 1156 b 370 1266 401 1194 380 1226 b 285 1302 361 1297 332 1302 l 0 1302 b -38 998 -23 1302 -38 1236 b 0 694 -38 760 -23 694 z m 674 1302 l 628 1302 b 590 1257 604 1302 582 1292 l 594 1243 b 651 1205 601 1214 630 1205 b 708 1245 672 1205 701 1217 l 712 1257 b 674 1302 722 1295 698 1302 z m 1222 1017 b 1142 922 1219 969 1210 922 l 543 922 b 457 835 495 922 457 884 l 457 781 b 543 694 457 733 495 694 l 1302 694 l 1302 1302 l 1017 1302 b 932 1266 970 1302 941 1297 b 877 1175 922 1226 901 1194 b 894 1128 851 1156 854 1128 l 1156 1128 b 1222 1042 1205 1128 1222 1090 z m 0 0 l 104 0 b 191 87 153 0 191 38 l 191 521 b 104 608 191 569 153 608 l 0 608 b -38 304 -23 608 -38 542 b 0 0 -38 66 -23 0 z m 457 385 l 457 295 b 543 208 457 247 495 208 l 1142 208 b 1267 0 1283 208 1172 0 l 1302 0 l 1302 608 l 1094 608 b 948 476 1003 608 1016 476 l 543 476 b 457 385 495 476 457 436 z "},"Ė":{"ha":1302,"x_min":0,"x_max":0,"o":"m 0 694 l 104 694 b 191 781 153 694 191 733 l 191 1042 b 257 1128 191 1090 208 1128 l 549 1128 b 573 1141 566 1128 573 1134 b 536 1215 573 1158 536 1160 b 573 1290 536 1271 573 1273 b 549 1302 573 1297 566 1302 l 0 1302 b -38 998 -23 1302 -38 1236 b 0 694 -38 760 -23 694 z m 753 1128 l 1156 1128 b 1222 1042 1205 1128 1222 1090 l 1222 1017 b 1142 922 1219 969 1210 922 l 543 922 b 457 835 495 922 457 884 l 457 781 b 543 694 457 733 495 694 l 1302 694 l 1302 1302 l 753 1302 b 729 1290 736 1302 729 1297 b 766 1215 729 1273 766 1271 b 729 1141 766 1160 729 1158 b 753 1128 729 1134 736 1128 z m 0 0 l 104 0 b 191 87 153 0 191 38 l 191 521 b 104 608 191 569 153 608 l 0 608 b -38 304 -23 608 -38 542 b 0 0 -38 66 -23 0 z m 457 385 l 457 295 b 543 208 457 247 495 208 l 1142 208 b 1267 0 1283 208 1172 0 l 1302 0 l 1302 608 l 1094 608 b 948 476 1003 608 1016 476 l 543 476 b 457 385 495 476 457 436 z "},"Ę":{"ha":1302,"x_min":0,"x_max":0,"o":"m 0 1302 b -38 998 -23 1302 -38 1236 b 0 694 -38 760 -23 694 l 104 694 b 191 781 153 694 191 733 l 191 1215 b 104 1302 191 1264 153 1302 z m 457 917 b 543 826 457 866 495 826 l 948 826 b 1094 694 1016 826 1003 694 l 1302 694 l 1302 1302 l 1267 1302 b 1142 1094 1172 1302 1283 1094 l 543 1094 b 457 1007 495 1094 457 1056 z m 0 608 b -38 304 -23 608 -38 542 b 0 0 -38 66 -23 0 l 896 0 b 920 12 913 0 920 5 b 884 71 920 30 884 31 b 955 161 884 127 955 144 b 931 174 955 168 948 174 l 257 174 b 191 260 208 174 191 212 l 191 521 b 104 608 191 569 153 608 z m 1153 52 l 1184 52 b 1290 0 1245 52 1257 0 l 1302 0 l 1302 608 l 543 608 b 457 521 495 608 457 569 l 457 467 b 543 380 457 418 495 380 l 1142 380 b 1222 285 1210 380 1219 333 l 1222 260 b 1156 174 1222 212 1205 174 l 1153 174 b 1066 113 1089 174 1066 151 b 1153 52 1066 75 1089 52 z "},"Ě":{"ha":1302,"x_min":0,"x_max":0,"o":"m 0 694 l 104 694 b 191 781 153 694 191 733 l 191 1042 b 257 1128 191 1090 208 1128 l 377 1128 b 424 1191 432 1128 448 1160 l 373 1257 b 274 1302 349 1288 321 1302 l 0 1302 b -38 998 -23 1302 -38 1236 b 0 694 -38 760 -23 694 z m 1222 1017 b 1142 922 1219 969 1210 922 l 543 922 b 457 835 495 922 457 884 l 457 781 b 543 694 457 733 495 694 l 1302 694 l 1302 1302 l 1028 1302 b 929 1257 981 1302 953 1288 l 878 1191 b 925 1128 854 1160 870 1128 l 1156 1128 b 1222 1042 1205 1128 1222 1090 z m 674 1302 l 628 1302 b 590 1257 604 1302 583 1292 l 604 1181 b 651 1142 609 1151 630 1142 b 698 1182 672 1142 693 1151 l 712 1257 b 674 1302 719 1292 698 1302 z m 0 0 l 104 0 b 191 87 153 0 191 38 l 191 521 b 104 608 191 569 153 608 l 0 608 b -38 304 -23 608 -38 542 b 0 0 -38 66 -23 0 z m 457 385 l 457 295 b 543 208 457 247 495 208 l 1142 208 b 1267 0 1283 208 1172 0 l 1302 0 l 1302 608 l 1094 608 b 948 476 1003 608 1016 476 l 543 476 b 457 385 495 476 457 436 z "},"Ĝ":{"ha":1302,"x_min":0,"x_max":0,"o":"m 0 694 b 101 832 40 694 63 720 b 304 1128 167 1021 205 1128 l 292 1128 b 373 1174 330 1128 351 1144 l 424 1240 b 377 1302 448 1271 432 1302 l 0 1302 b -38 998 -23 1302 -38 1236 b 0 694 -38 760 -23 694 z m 1123 1003 b 1082 891 1158 948 1151 925 l 1012 856 b 958 800 969 833 957 818 b 1026 755 958 778 981 755 l 1090 755 b 1302 694 1191 755 1217 694 l 1302 1302 l 925 1302 b 878 1240 870 1302 854 1271 l 929 1174 b 1010 1128 951 1144 972 1128 l 995 1128 b 1123 1003 1042 1128 1064 1099 z m 674 1128 b 712 1174 698 1128 719 1139 l 698 1248 b 651 1288 693 1280 672 1288 b 604 1250 630 1288 609 1280 l 590 1174 b 628 1128 583 1139 604 1128 z m 547 602 l 547 681 b 628 755 547 727 580 755 l 807 755 b 873 884 873 755 920 821 b 651 979 819 946 733 979 b 325 651 455 979 325 847 b 651 325 325 472 472 325 b 941 491 809 325 905 392 b 911 536 951 517 941 536 l 628 536 b 547 602 576 536 547 573 z m 0 0 l 509 0 b 561 35 547 0 561 16 b 490 95 561 61 540 80 b 101 470 302 153 151 300 b 0 608 68 582 40 608 b -38 304 -23 608 -38 542 b 0 0 -38 66 -23 0 z m 1214 448 l 1214 87 b 1302 0 1214 43 1229 0 l 1302 608 b 1214 448 1248 608 1214 564 z m 1009 243 b 974 219 997 243 984 234 b 793 85 934 163 859 109 b 741 35 760 73 741 59 b 793 0 741 16 755 0 l 1101 0 b 1139 59 1141 0 1153 7 b 1009 243 1097 215 1042 243 z "},"Ġ":{"ha":1302,"x_min":0,"x_max":0,"o":"m 0 694 b 101 832 40 694 63 720 b 304 1128 167 1021 205 1128 l 549 1128 b 573 1141 566 1128 573 1134 b 536 1215 573 1158 536 1160 b 573 1290 536 1271 573 1273 b 549 1302 573 1297 566 1302 l 0 1302 b -38 998 -23 1302 -38 1236 b 0 694 -38 760 -23 694 z m 753 1128 l 995 1128 b 1123 1003 1042 1128 1064 1099 b 1082 891 1158 948 1151 925 l 1012 856 b 958 800 969 833 957 818 b 1026 755 958 778 981 755 l 1090 755 b 1302 694 1191 755 1217 694 l 1302 1302 l 753 1302 b 729 1290 736 1302 729 1297 b 766 1215 729 1273 766 1271 b 729 1141 766 1160 729 1158 b 753 1128 729 1134 736 1128 z m 547 602 l 547 681 b 628 755 547 727 580 755 l 807 755 b 873 884 873 755 920 821 b 651 979 819 946 733 979 b 325 651 455 979 325 847 b 651 325 325 472 472 325 b 941 491 809 325 905 392 b 911 536 951 517 941 536 l 628 536 b 547 602 576 536 547 573 z m 0 0 l 509 0 b 561 35 547 0 561 16 b 490 95 561 61 540 80 b 101 470 302 153 151 300 b 0 608 68 582 40 608 b -38 304 -23 608 -38 542 b 0 0 -38 66 -23 0 z m 1214 448 l 1214 87 b 1302 0 1214 43 1229 0 l 1302 608 b 1214 448 1248 608 1214 564 z m 1009 243 b 974 219 997 243 984 234 b 793 85 934 163 859 109 b 741 35 760 73 741 59 b 793 0 741 16 755 0 l 1101 0 b 1139 59 1141 0 1153 7 b 1009 243 1097 215 1042 243 z "},"Ĥ":{"ha":1302,"x_min":0,"x_max":0,"o":"m 0 694 l 104 694 b 191 781 153 694 191 733 l 191 1042 b 257 1128 191 1089 212 1128 l 292 1128 b 373 1174 330 1128 351 1144 l 424 1240 b 377 1302 448 1271 432 1302 l 0 1302 b -38 998 -23 1302 -38 1236 b 0 694 -38 760 -23 694 z m 1111 1042 l 1111 781 b 1198 694 1111 733 1149 694 l 1302 694 l 1302 1302 l 925 1302 b 878 1240 870 1302 854 1271 l 929 1174 b 1010 1128 951 1144 972 1128 l 1045 1128 b 1111 1042 1094 1128 1111 1090 z m 674 1128 b 712 1174 698 1128 719 1139 l 698 1248 b 651 1288 693 1280 672 1288 b 604 1250 630 1288 609 1280 l 590 1174 b 628 1128 583 1139 604 1128 z m 460 762 b 547 675 460 714 498 675 l 755 675 b 842 762 804 675 842 714 l 842 990 b 755 1076 842 1038 804 1076 l 547 1076 b 460 990 498 1076 460 1038 z m 0 0 l 104 0 b 191 87 153 0 191 38 l 191 521 b 104 608 191 569 153 608 l 0 608 b -38 304 -23 608 -38 542 b 0 0 -38 66 -23 0 z m 1111 87 b 1198 0 1111 38 1149 0 l 1302 0 l 1302 608 l 1198 608 b 1111 521 1149 608 1111 569 z m 460 87 b 547 0 460 38 498 0 l 755 0 b 842 87 804 0 842 38 l 842 382 b 755 469 842 431 804 469 l 547 469 b 460 382 498 469 460 431 z "},"Ĩ":{"ha":1302,"x_min":0,"x_max":0,"o":"m 0 694 l 434 694 b 521 781 483 694 521 733 l 521 800 b 434 887 521 849 483 887 l 160 887 b 80 983 92 887 80 934 l 80 1042 b 146 1128 80 1090 97 1128 l 316 1128 b 403 1174 363 1128 401 1135 b 484 1276 406 1247 484 1245 b 424 1302 484 1293 470 1302 l 0 1302 b -38 998 -23 1302 -38 1236 b 0 694 -38 760 -23 694 z m 1142 887 l 868 887 b 781 800 819 887 781 849 l 781 781 b 868 694 781 733 819 694 l 1302 694 l 1302 1302 l 986 1302 b 899 1257 939 1302 901 1295 b 818 1155 896 1184 818 1186 b 878 1128 818 1137 832 1128 l 1156 1128 b 1222 1042 1205 1128 1222 1090 l 1222 983 b 1142 887 1222 934 1210 887 z m 797 1276 b 769 1302 797 1292 786 1302 l 703 1302 b 674 1285 682 1302 674 1295 b 767 1248 674 1267 726 1248 b 797 1276 783 1248 797 1260 z m 505 1155 b 533 1128 505 1139 516 1128 l 599 1128 b 628 1146 620 1128 628 1135 b 535 1182 628 1163 576 1182 b 505 1155 519 1182 505 1170 z m 781 521 l 781 328 b 868 241 781 280 819 241 l 1057 241 b 1302 0 1257 241 1137 0 l 1302 608 l 868 608 b 781 521 819 608 781 569 z m 0 0 b 245 241 163 0 45 241 l 434 241 b 521 328 483 241 521 280 l 521 521 b 434 608 521 569 483 608 l 0 608 b -38 304 -23 608 -38 542 b 0 0 -38 66 -23 0 z "},"Ī":{"ha":1302,"x_min":0,"x_max":0,"o":"m 0 694 l 434 694 b 521 781 483 694 521 733 l 521 800 b 434 887 521 849 483 887 l 160 887 b 80 983 92 887 80 934 l 80 1042 b 146 1128 80 1090 97 1128 l 391 1128 b 477 1184 458 1128 477 1144 l 477 1240 b 405 1302 477 1280 460 1302 l 0 1302 b -38 998 -23 1302 -38 1236 b 0 694 -38 760 -23 694 z m 1142 887 l 868 887 b 781 800 819 887 781 849 l 781 781 b 868 694 781 733 819 694 l 1302 694 l 1302 1302 l 898 1302 b 825 1240 842 1302 825 1280 l 825 1184 b 911 1128 825 1144 844 1128 l 1156 1128 b 1222 1042 1205 1128 1222 1090 l 1222 983 b 1142 887 1222 934 1210 887 z m 781 521 l 781 328 b 868 241 781 280 819 241 l 1057 241 b 1302 0 1257 241 1137 0 l 1302 608 l 868 608 b 781 521 819 608 781 569 z m 0 0 b 245 241 163 0 45 241 l 434 241 b 521 328 483 241 521 280 l 521 521 b 434 608 521 569 483 608 l 0 608 b -38 304 -23 608 -38 542 b 0 0 -38 66 -23 0 z "},"Ĭ":{"ha":1302,"x_min":0,"x_max":0,"o":"m 0 694 l 434 694 b 521 781 483 694 521 733 l 521 800 b 434 887 521 849 483 887 l 160 887 b 80 983 92 887 80 934 l 80 1042 b 146 1128 80 1090 97 1128 l 408 1128 b 425 1175 448 1128 451 1156 b 370 1266 401 1194 380 1226 b 285 1302 361 1297 332 1302 l 0 1302 b -38 998 -23 1302 -38 1236 b 0 694 -38 760 -23 694 z m 674 1302 l 628 1302 b 590 1257 604 1302 582 1292 l 594 1243 b 651 1205 601 1214 630 1205 b 708 1245 672 1205 701 1217 l 712 1257 b 674 1302 722 1295 698 1302 z m 1142 887 l 868 887 b 781 800 819 887 781 849 l 781 781 b 868 694 781 733 819 694 l 1302 694 l 1302 1302 l 1017 1302 b 932 1266 970 1302 941 1297 b 877 1175 922 1226 901 1194 b 894 1128 851 1156 854 1128 l 1156 1128 b 1222 1042 1205 1128 1222 1090 l 1222 983 b 1142 887 1222 934 1210 887 z m 781 521 l 781 328 b 868 241 781 280 819 241 l 1057 241 b 1302 0 1257 241 1137 0 l 1302 608 l 868 608 b 781 521 819 608 781 569 z m 0 0 b 245 241 163 0 45 241 l 434 241 b 521 328 483 241 521 280 l 521 521 b 434 608 521 569 483 608 l 0 608 b -38 304 -23 608 -38 542 b 0 0 -38 66 -23 0 z "},"Į":{"ha":1302,"x_min":0,"x_max":0,"o":"m 781 781 b 868 694 781 733 819 694 l 1302 694 l 1302 1302 b 1057 1061 1137 1302 1257 1061 l 868 1061 b 781 974 819 1061 781 1023 z m 521 781 l 521 974 b 434 1061 521 1023 483 1061 l 245 1061 b 0 1302 45 1061 163 1302 b -38 998 -23 1302 -38 1236 b 0 694 -38 760 -23 694 l 434 694 b 521 781 483 694 521 733 z m 719 52 l 750 52 b 856 0 811 52 823 0 l 1302 0 l 1302 608 l 868 608 b 781 521 819 608 781 569 l 781 502 b 868 415 781 453 819 415 l 1142 415 b 1222 319 1210 415 1222 368 l 1222 260 b 1156 174 1222 212 1205 174 l 719 174 b 632 113 655 174 632 151 b 719 52 632 75 655 52 z m 160 415 l 434 415 b 521 502 483 415 521 453 l 521 521 b 434 608 521 569 483 608 l 0 608 b -38 304 -23 608 -38 542 b 0 0 -38 66 -23 0 l 462 0 b 486 12 479 0 486 5 b 450 71 486 30 450 31 b 521 161 450 127 521 144 b 497 174 521 168 514 174 l 146 174 b 80 260 97 174 80 212 l 80 319 b 160 415 80 368 92 415 z "},"İ":{"ha":1302,"x_min":0,"x_max":0,"o":"m 0 694 l 434 694 b 521 781 483 694 521 733 l 521 800 b 434 887 521 849 483 887 l 160 887 b 80 983 92 887 80 934 l 80 1042 b 146 1128 80 1090 97 1128 l 549 1128 b 573 1141 566 1128 573 1134 b 536 1215 573 1158 536 1160 b 573 1290 536 1271 573 1273 b 549 1302 573 1297 566 1302 l 0 1302 b -38 998 -23 1302 -38 1236 b 0 694 -38 760 -23 694 z m 753 1128 l 1156 1128 b 1222 1042 1205 1128 1222 1090 l 1222 983 b 1142 887 1222 934 1210 887 l 868 887 b 781 800 819 887 781 849 l 781 781 b 868 694 781 733 819 694 l 1302 694 l 1302 1302 l 753 1302 b 729 1290 736 1302 729 1297 b 766 1215 729 1273 766 1271 b 729 1141 766 1160 729 1158 b 753 1128 729 1134 736 1128 z m 781 521 l 781 328 b 868 241 781 280 819 241 l 1057 241 b 1302 0 1257 241 1137 0 l 1302 608 l 868 608 b 781 521 819 608 781 569 z m 0 0 b 245 241 163 0 45 241 l 434 241 b 521 328 483 241 521 280 l 521 521 b 434 608 521 569 483 608 l 0 608 b -38 304 -23 608 -38 542 b 0 0 -38 66 -23 0 z "},"Ĳ":{"ha":1302,"x_min":0,"x_max":0,"o":"m 1302 694 l 1302 1302 l 1194 1302 b 1108 1215 1146 1302 1108 1264 l 1108 785 b 1194 694 1108 734 1146 694 z m 764 694 b 839 766 819 694 839 722 l 839 1215 b 752 1302 839 1264 800 1302 l 547 1302 b 460 1215 498 1302 460 1264 l 460 785 b 547 694 460 734 498 694 z m 0 694 l 104 694 b 191 785 153 694 191 734 l 191 1215 b 104 1302 191 1264 153 1302 l 0 1302 b -38 998 -23 1302 -38 1236 b 0 694 -38 760 -23 694 z m 1089 458 b 731 95 1040 293 905 148 b 660 35 681 80 660 61 b 712 0 660 16 674 0 l 1302 0 l 1302 608 l 1250 608 b 1089 458 1186 608 1128 589 z m 0 0 l 491 0 b 543 35 530 0 543 16 b 472 95 543 61 523 80 b 135 417 335 137 200 267 b 222 521 115 465 156 491 b 309 583 293 552 313 561 b 222 608 306 601 281 608 l 0 608 b -38 304 -23 608 -38 542 b 0 0 -38 66 -23 0 z m 398 533 b 622 335 413 431 503 335 b 821 517 740 335 806 438 b 766 608 832 569 807 608 l 457 608 b 398 533 405 608 389 583 z "},"Ĵ":{"ha":1302,"x_min":0,"x_max":0,"o":"m 0 694 l 764 694 b 839 766 819 694 839 722 l 839 1042 b 752 1128 839 1090 800 1128 l 712 1128 b 679 1174 665 1128 660 1149 l 729 1240 b 682 1302 753 1271 738 1302 l 0 1302 b -38 998 -23 1302 -38 1236 b 0 694 -38 760 -23 694 z m 1302 694 l 1302 1302 l 1231 1302 b 1184 1240 1175 1302 1160 1271 l 1234 1174 b 1220 1128 1253 1149 1252 1139 b 1108 1042 1153 1106 1108 1090 l 1108 785 b 1194 694 1108 734 1146 694 z m 979 1128 b 1017 1174 1003 1128 1024 1139 l 1003 1248 b 957 1288 998 1280 977 1288 b 910 1250 936 1288 915 1280 l 896 1174 b 934 1128 889 1139 910 1128 z m 1089 458 b 731 95 1040 293 905 148 b 660 35 681 80 660 61 b 712 0 660 16 674 0 l 1302 0 l 1302 608 l 1250 608 b 1089 458 1186 608 1128 589 z m 0 0 l 491 0 b 543 35 530 0 543 16 b 472 95 543 61 523 80 b 135 417 335 137 200 267 b 222 521 115 465 156 491 b 309 583 293 552 313 561 b 222 608 306 601 281 608 l 0 608 b -38 304 -23 608 -38 542 b 0 0 -38 66 -23 0 z m 398 533 b 622 335 413 431 503 335 b 821 517 740 335 806 438 b 766 608 832 569 807 608 l 457 608 b 398 533 405 608 389 583 z "},"Ĺ":{"ha":1302,"x_min":0,"x_max":0,"o":"m 0 694 l 104 694 b 191 781 153 694 191 733 l 191 1003 b 226 1174 191 1057 205 1118 l 250 1240 b 177 1302 264 1278 233 1302 l 0 1302 b -38 998 -23 1302 -38 1236 b 0 694 -38 760 -23 694 z m 1302 1302 l 698 1302 b 599 1257 651 1302 623 1288 l 549 1191 b 457 998 500 1128 457 1069 l 457 785 b 543 694 457 734 495 694 l 1302 694 z m 457 521 l 457 295 b 543 208 457 247 495 208 l 1142 208 b 1267 0 1283 208 1172 0 l 1302 0 l 1302 608 l 543 608 b 457 521 495 608 457 569 z m 0 0 l 104 0 b 191 87 153 0 191 38 l 191 517 b 104 608 191 568 153 608 l 0 608 b -38 304 -23 608 -38 542 b 0 0 -38 66 -23 0 z "},"Ľ":{"ha":1302,"x_min":0,"x_max":0,"o":"m 0 694 l 104 694 b 191 781 153 694 191 733 l 191 1215 b 104 1302 191 1264 153 1302 l 0 1302 b -38 998 -23 1302 -38 1236 b 0 694 -38 760 -23 694 z m 538 694 l 627 694 b 663 731 651 694 663 710 b 632 1024 663 792 632 910 b 780 1240 632 1122 694 1205 b 814 1274 809 1252 814 1260 b 764 1302 814 1295 800 1302 l 538 1302 b 457 1215 495 1302 457 1264 l 457 785 b 538 694 457 736 491 698 z m 800 694 l 1302 694 l 1302 1302 l 964 1302 b 913 1274 927 1302 913 1295 b 948 1240 913 1260 918 1252 b 1095 1049 1033 1205 1095 1122 b 799 752 1095 932 964 825 b 760 719 771 740 760 731 b 800 694 760 707 773 694 z m 457 521 l 457 295 b 543 208 457 247 495 208 l 1142 208 b 1267 0 1283 208 1172 0 l 1302 0 l 1302 608 l 543 608 b 457 521 495 608 457 569 z m 0 0 l 104 0 b 191 87 153 0 191 38 l 191 517 b 104 608 191 568 153 608 l 0 608 b -38 304 -23 608 -38 542 b 0 0 -38 66 -23 0 z "},"Ŀ":{"ha":1302,"x_min":0,"x_max":0,"o":"m 0 694 l 104 694 b 191 781 153 694 191 733 l 191 1215 b 104 1302 191 1264 153 1302 l 0 1302 b -38 998 -23 1302 -38 1236 b 0 694 -38 760 -23 694 z m 457 785 b 543 694 457 734 495 694 l 790 694 b 840 722 826 694 840 701 b 806 757 840 736 835 745 b 658 972 720 792 658 875 b 889 1205 658 1099 762 1205 b 1122 972 1017 1205 1122 1099 b 974 757 1122 875 1059 792 b 939 722 944 745 939 736 b 990 694 939 701 953 694 l 1302 694 l 1302 1302 l 543 1302 b 457 1215 495 1302 457 1264 z m 457 521 l 457 295 b 543 208 457 247 495 208 l 1142 208 b 1267 0 1283 208 1172 0 l 1302 0 l 1302 608 l 543 608 b 457 521 495 608 457 569 z m 0 0 l 104 0 b 191 87 153 0 191 38 l 191 517 b 104 608 191 568 153 608 l 0 608 b -38 304 -23 608 -38 542 b 0 0 -38 66 -23 0 z "},"Ń":{"ha":1302,"x_min":0,"x_max":0,"o":"m 1101 1128 b 1167 1042 1149 1128 1167 1090 l 1167 781 b 1253 694 1167 733 1205 694 l 1302 694 l 1302 1302 l 976 1302 b 877 1257 929 1302 901 1288 l 826 1191 b 743 1128 793 1148 778 1128 z m 0 694 l 56 694 b 142 781 104 694 142 733 l 142 1042 b 208 1128 142 1090 160 1128 l 425 1128 b 512 1174 472 1128 503 1135 l 528 1240 b 455 1302 536 1278 510 1302 l 0 1302 b -38 998 -23 1302 -38 1236 b 0 694 -38 760 -23 694 z m 752 1128 b 665 1042 686 1128 651 1092 l 856 347 b 920 260 870 297 884 260 b 964 352 953 260 964 297 l 964 1042 b 1030 1128 964 1090 981 1128 z m 345 73 b 418 0 345 30 375 0 l 557 0 b 644 87 623 0 658 36 l 453 781 b 389 868 439 832 425 868 b 345 776 356 868 345 832 z m 0 0 l 56 0 b 142 87 104 0 142 38 l 142 521 b 56 608 142 569 104 608 l 0 608 b -38 304 -23 608 -38 542 b 0 0 -38 66 -23 0 z m 1167 87 b 1253 0 1167 38 1205 0 l 1302 0 l 1302 608 l 1253 608 b 1167 521 1205 608 1167 569 z "},"Ň":{"ha":1302,"x_min":0,"x_max":0,"o":"m 0 694 l 56 694 b 142 781 104 694 142 733 l 142 1042 b 208 1128 142 1090 160 1128 l 377 1128 b 424 1191 432 1128 448 1160 l 373 1257 b 274 1302 349 1288 321 1302 l 0 1302 b -38 998 -23 1302 -38 1236 b 0 694 -38 760 -23 694 z m 1101 1128 b 1167 1042 1149 1128 1167 1090 l 1167 781 b 1253 694 1167 733 1205 694 l 1302 694 l 1302 1302 l 1028 1302 b 929 1257 981 1302 953 1288 l 878 1191 b 771 1128 842 1144 826 1128 z m 674 1302 l 628 1302 b 590 1257 604 1302 583 1292 l 604 1181 b 651 1142 609 1151 630 1142 b 698 1182 672 1142 693 1151 l 712 1257 b 674 1302 719 1292 698 1302 z m 752 1128 b 665 1042 686 1128 651 1092 l 856 347 b 920 260 870 297 884 260 b 964 352 953 260 964 297 l 964 1042 b 1030 1128 964 1090 981 1128 z m 345 73 b 418 0 345 30 375 0 l 557 0 b 644 87 623 0 658 36 l 453 781 b 389 868 439 832 425 868 b 345 776 356 868 345 832 z m 0 0 l 56 0 b 142 87 104 0 142 38 l 142 521 b 56 608 142 569 104 608 l 0 608 b -38 304 -23 608 -38 542 b 0 0 -38 66 -23 0 z m 1167 87 b 1253 0 1167 38 1205 0 l 1302 0 l 1302 608 l 1253 608 b 1167 521 1205 608 1167 569 z "}}}
